<?xml version="1.0" encoding="utf-8" standalone="no"?>
<!DOCTYPE svg PUBLIC "-//W3C//DTD SVG 1.1//EN"
  "http://www.w3.org/Graphics/SVG/1.1/DTD/svg11.dtd">
<svg xmlns:xlink="http://www.w3.org/1999/xlink" width="720pt" height="288pt" viewBox="0 0 720 288" xmlns="http://www.w3.org/2000/svg" version="1.1">
 <metadata>
  <rdf:RDF xmlns:dc="http://purl.org/dc/elements/1.1/" xmlns:cc="http://creativecommons.org/ns#" xmlns:rdf="http://www.w3.org/1999/02/22-rdf-syntax-ns#">
   <cc:Work>
    <dc:type rdf:resource="http://purl.org/dc/dcmitype/StillImage"/>
    <dc:date>2023-05-04T17:06:44.975251</dc:date>
    <dc:format>image/svg+xml</dc:format>
    <dc:creator>
     <cc:Agent>
      <dc:title>Matplotlib v3.6.3, https://matplotlib.org/</dc:title>
     </cc:Agent>
    </dc:creator>
   </cc:Work>
  </rdf:RDF>
 </metadata>
 <defs>
  <style type="text/css">*{stroke-linejoin: round; stroke-linecap: butt}</style>
 </defs>
 <g id="figure_1">
  <g id="patch_1">
   <path d="M 0 288 
L 720 288 
L 720 0 
L 0 0 
z
" style="fill: #ffffff"/>
  </g>
  <g id="axes_1">
   <g id="patch_2">
    <path d="M 110.385 244.8 
L 114.915 244.8 
L 114.915 244.692 
L 110.385 244.692 
z
" clip-path="url(#pae81ce34eb)" style="fill: #d2b48c; opacity: 0.8"/>
   </g>
   <g id="patch_3">
    <path d="M 382.185 244.8 
L 386.715 244.8 
L 386.715 244.476 
L 382.185 244.476 
z
" clip-path="url(#pae81ce34eb)" style="fill: #d2b48c; opacity: 0.8"/>
   </g>
   <g id="patch_4">
    <path d="M 472.785 244.8 
L 477.315 244.8 
L 477.315 243.72 
L 472.785 243.72 
z
" clip-path="url(#pae81ce34eb)" style="fill: #d2b48c; opacity: 0.8"/>
   </g>
   <g id="patch_5">
    <path d="M 529.41 244.8 
L 533.94 244.8 
L 533.94 244.692 
L 529.41 244.692 
z
" clip-path="url(#pae81ce34eb)" style="fill: #d2b48c; opacity: 0.8"/>
   </g>
   <g id="patch_6">
    <path d="M 104.7225 244.8 
L 109.2525 244.8 
L 109.2525 240.156 
L 104.7225 240.156 
z
" clip-path="url(#pae81ce34eb)" style="fill: #b8860b; opacity: 0.8"/>
   </g>
   <g id="patch_7">
    <path d="M 376.5225 244.8 
L 381.0525 244.8 
L 381.0525 239.616 
L 376.5225 239.616 
z
" clip-path="url(#pae81ce34eb)" style="fill: #b8860b; opacity: 0.8"/>
   </g>
   <g id="patch_8">
    <path d="M 467.1225 244.8 
L 471.6525 244.8 
L 471.6525 226.332 
L 467.1225 226.332 
z
" clip-path="url(#pae81ce34eb)" style="fill: #b8860b; opacity: 0.8"/>
   </g>
   <g id="patch_9">
    <path d="M 523.7475 244.8 
L 528.2775 244.8 
L 528.2775 226.224 
L 523.7475 226.224 
z
" clip-path="url(#pae81ce34eb)" style="fill: #b8860b; opacity: 0.8"/>
   </g>
   <g id="patch_10">
    <path d="M 99.06 244.8 
L 103.59 244.8 
L 103.59 50.94 
L 99.06 50.94 
z
" clip-path="url(#pae81ce34eb)" style="fill: #008000; opacity: 0.8"/>
   </g>
   <g id="patch_11">
    <path d="M 370.86 244.8 
L 375.39 244.8 
L 375.39 49.428 
L 370.86 49.428 
z
" clip-path="url(#pae81ce34eb)" style="fill: #008000; opacity: 0.8"/>
   </g>
   <g id="patch_12">
    <path d="M 461.46 244.8 
L 465.99 244.8 
L 465.99 65.952 
L 461.46 65.952 
z
" clip-path="url(#pae81ce34eb)" style="fill: #008000; opacity: 0.8"/>
   </g>
   <g id="patch_13">
    <path d="M 518.085 244.8 
L 522.615 244.8 
L 522.615 80.532 
L 518.085 80.532 
z
" clip-path="url(#pae81ce34eb)" style="fill: #008000; opacity: 0.8"/>
   </g>
   <g id="patch_14">
    <path d="M 93.3975 244.8 
L 97.9275 244.8 
L 97.9275 236.484 
L 93.3975 236.484 
z
" clip-path="url(#pae81ce34eb)" style="fill: #ffa500; opacity: 0.8"/>
   </g>
   <g id="patch_15">
    <path d="M 365.1975 244.8 
L 369.7275 244.8 
L 369.7275 236.052 
L 365.1975 236.052 
z
" clip-path="url(#pae81ce34eb)" style="fill: #ffa500; opacity: 0.8"/>
   </g>
   <g id="patch_16">
    <path d="M 455.7975 244.8 
L 460.3275 244.8 
L 460.3275 235.404 
L 455.7975 235.404 
z
" clip-path="url(#pae81ce34eb)" style="fill: #ffa500; opacity: 0.8"/>
   </g>
   <g id="patch_17">
    <path d="M 512.4225 244.8 
L 516.9525 244.8 
L 516.9525 241.776 
L 512.4225 241.776 
z
" clip-path="url(#pae81ce34eb)" style="fill: #ffa500; opacity: 0.8"/>
   </g>
   <g id="patch_18">
    <path d="M 87.735 244.8 
L 92.265 244.8 
L 92.265 244.26 
L 87.735 244.26 
z
" clip-path="url(#pae81ce34eb)" style="fill: #f5deb3; opacity: 0.8"/>
   </g>
   <g id="patch_19">
    <path d="M 359.535 244.8 
L 364.065 244.8 
L 364.065 244.584 
L 359.535 244.584 
z
" clip-path="url(#pae81ce34eb)" style="fill: #f5deb3; opacity: 0.8"/>
   </g>
   <g id="patch_20">
    <path d="M 450.135 244.8 
L 454.665 244.8 
L 454.665 241.02 
L 450.135 241.02 
z
" clip-path="url(#pae81ce34eb)" style="fill: #f5deb3; opacity: 0.8"/>
   </g>
   <g id="patch_21">
    <path d="M 506.76 244.8 
L 511.29 244.8 
L 511.29 244.8 
L 506.76 244.8 
z
" clip-path="url(#pae81ce34eb)" style="fill: #f5deb3; opacity: 0.8"/>
   </g>
   <g id="patch_22">
    <path d="M 116.0475 244.8 
L 120.5775 244.8 
L 120.5775 244.584 
L 116.0475 244.584 
z
" clip-path="url(#pae81ce34eb)" style="fill: #808080; opacity: 0.8"/>
   </g>
   <g id="patch_23">
    <path d="M 121.71 244.8 
L 126.24 244.8 
L 126.24 244.692 
L 121.71 244.692 
z
" clip-path="url(#pae81ce34eb)" style="fill: #808080; opacity: 0.8"/>
   </g>
   <g id="patch_24">
    <path d="M 127.3725 244.8 
L 131.9025 244.8 
L 131.9025 244.26 
L 127.3725 244.26 
z
" clip-path="url(#pae81ce34eb)" style="fill: #808080; opacity: 0.8"/>
   </g>
   <g id="patch_25">
    <path d="M 133.035 244.8 
L 137.565 244.8 
L 137.565 244.692 
L 133.035 244.692 
z
" clip-path="url(#pae81ce34eb)" style="fill: #808080; opacity: 0.8"/>
   </g>
   <g id="patch_26">
    <path d="M 138.6975 244.8 
L 143.2275 244.8 
L 143.2275 243.396 
L 138.6975 243.396 
z
" clip-path="url(#pae81ce34eb)" style="fill: #808080; opacity: 0.8"/>
   </g>
   <g id="patch_27">
    <path d="M 144.36 244.8 
L 148.89 244.8 
L 148.89 244.8 
L 144.36 244.8 
z
" clip-path="url(#pae81ce34eb)" style="fill: #808080; opacity: 0.8"/>
   </g>
   <g id="patch_28">
    <path d="M 150.0225 244.8 
L 154.5525 244.8 
L 154.5525 244.584 
L 150.0225 244.584 
z
" clip-path="url(#pae81ce34eb)" style="fill: #808080; opacity: 0.8"/>
   </g>
   <g id="patch_29">
    <path d="M 155.685 244.8 
L 160.215 244.8 
L 160.215 244.368 
L 155.685 244.368 
z
" clip-path="url(#pae81ce34eb)" style="fill: #808080; opacity: 0.8"/>
   </g>
   <g id="patch_30">
    <path d="M 161.3475 244.8 
L 165.8775 244.8 
L 165.8775 244.476 
L 161.3475 244.476 
z
" clip-path="url(#pae81ce34eb)" style="fill: #808080; opacity: 0.8"/>
   </g>
   <g id="patch_31">
    <path d="M 167.01 244.8 
L 171.54 244.8 
L 171.54 244.584 
L 167.01 244.584 
z
" clip-path="url(#pae81ce34eb)" style="fill: #808080; opacity: 0.8"/>
   </g>
   <g id="patch_32">
    <path d="M 172.6725 244.8 
L 177.2025 244.8 
L 177.2025 244.584 
L 172.6725 244.584 
z
" clip-path="url(#pae81ce34eb)" style="fill: #808080; opacity: 0.8"/>
   </g>
   <g id="patch_33">
    <path d="M 178.335 244.8 
L 182.865 244.8 
L 182.865 244.26 
L 178.335 244.26 
z
" clip-path="url(#pae81ce34eb)" style="fill: #808080; opacity: 0.8"/>
   </g>
   <g id="patch_34">
    <path d="M 183.9975 244.8 
L 188.5275 244.8 
L 188.5275 244.584 
L 183.9975 244.584 
z
" clip-path="url(#pae81ce34eb)" style="fill: #808080; opacity: 0.8"/>
   </g>
   <g id="patch_35">
    <path d="M 189.66 244.8 
L 194.19 244.8 
L 194.19 243.828 
L 189.66 243.828 
z
" clip-path="url(#pae81ce34eb)" style="fill: #808080; opacity: 0.8"/>
   </g>
   <g id="patch_36">
    <path d="M 195.3225 244.8 
L 199.8525 244.8 
L 199.8525 244.8 
L 195.3225 244.8 
z
" clip-path="url(#pae81ce34eb)" style="fill: #808080; opacity: 0.8"/>
   </g>
   <g id="patch_37">
    <path d="M 200.985 244.8 
L 205.515 244.8 
L 205.515 243.936 
L 200.985 243.936 
z
" clip-path="url(#pae81ce34eb)" style="fill: #808080; opacity: 0.8"/>
   </g>
   <g id="patch_38">
    <path d="M 206.6475 244.8 
L 211.1775 244.8 
L 211.1775 244.152 
L 206.6475 244.152 
z
" clip-path="url(#pae81ce34eb)" style="fill: #808080; opacity: 0.8"/>
   </g>
   <g id="patch_39">
    <path d="M 212.31 244.8 
L 216.84 244.8 
L 216.84 243.936 
L 212.31 243.936 
z
" clip-path="url(#pae81ce34eb)" style="fill: #808080; opacity: 0.8"/>
   </g>
   <g id="patch_40">
    <path d="M 217.9725 244.8 
L 222.5025 244.8 
L 222.5025 243.072 
L 217.9725 243.072 
z
" clip-path="url(#pae81ce34eb)" style="fill: #808080; opacity: 0.8"/>
   </g>
   <g id="patch_41">
    <path d="M 223.635 244.8 
L 228.165 244.8 
L 228.165 244.692 
L 223.635 244.692 
z
" clip-path="url(#pae81ce34eb)" style="fill: #808080; opacity: 0.8"/>
   </g>
   <g id="patch_42">
    <path d="M 229.2975 244.8 
L 233.8275 244.8 
L 233.8275 244.476 
L 229.2975 244.476 
z
" clip-path="url(#pae81ce34eb)" style="fill: #808080; opacity: 0.8"/>
   </g>
   <g id="patch_43">
    <path d="M 234.96 244.8 
L 239.49 244.8 
L 239.49 243.504 
L 234.96 243.504 
z
" clip-path="url(#pae81ce34eb)" style="fill: #808080; opacity: 0.8"/>
   </g>
   <g id="patch_44">
    <path d="M 240.6225 244.8 
L 245.1525 244.8 
L 245.1525 242.532 
L 240.6225 242.532 
z
" clip-path="url(#pae81ce34eb)" style="fill: #808080; opacity: 0.8"/>
   </g>
   <g id="patch_45">
    <path d="M 246.285 244.8 
L 250.815 244.8 
L 250.815 244.368 
L 246.285 244.368 
z
" clip-path="url(#pae81ce34eb)" style="fill: #808080; opacity: 0.8"/>
   </g>
   <g id="patch_46">
    <path d="M 251.9475 244.8 
L 256.4775 244.8 
L 256.4775 243.504 
L 251.9475 243.504 
z
" clip-path="url(#pae81ce34eb)" style="fill: #808080; opacity: 0.8"/>
   </g>
   <g id="patch_47">
    <path d="M 257.61 244.8 
L 262.14 244.8 
L 262.14 244.368 
L 257.61 244.368 
z
" clip-path="url(#pae81ce34eb)" style="fill: #808080; opacity: 0.8"/>
   </g>
   <g id="patch_48">
    <path d="M 263.2725 244.8 
L 267.8025 244.8 
L 267.8025 240.804 
L 263.2725 240.804 
z
" clip-path="url(#pae81ce34eb)" style="fill: #808080; opacity: 0.8"/>
   </g>
   <g id="patch_49">
    <path d="M 268.935 244.8 
L 273.465 244.8 
L 273.465 243.72 
L 268.935 243.72 
z
" clip-path="url(#pae81ce34eb)" style="fill: #808080; opacity: 0.8"/>
   </g>
   <g id="patch_50">
    <path d="M 274.5975 244.8 
L 279.1275 244.8 
L 279.1275 244.044 
L 274.5975 244.044 
z
" clip-path="url(#pae81ce34eb)" style="fill: #808080; opacity: 0.8"/>
   </g>
   <g id="patch_51">
    <path d="M 280.26 244.8 
L 284.79 244.8 
L 284.79 244.584 
L 280.26 244.584 
z
" clip-path="url(#pae81ce34eb)" style="fill: #808080; opacity: 0.8"/>
   </g>
   <g id="patch_52">
    <path d="M 285.9225 244.8 
L 290.4525 244.8 
L 290.4525 244.26 
L 285.9225 244.26 
z
" clip-path="url(#pae81ce34eb)" style="fill: #808080; opacity: 0.8"/>
   </g>
   <g id="patch_53">
    <path d="M 291.585 244.8 
L 296.115 244.8 
L 296.115 243.828 
L 291.585 243.828 
z
" clip-path="url(#pae81ce34eb)" style="fill: #808080; opacity: 0.8"/>
   </g>
   <g id="patch_54">
    <path d="M 297.2475 244.8 
L 301.7775 244.8 
L 301.7775 244.692 
L 297.2475 244.692 
z
" clip-path="url(#pae81ce34eb)" style="fill: #808080; opacity: 0.8"/>
   </g>
   <g id="patch_55">
    <path d="M 302.91 244.8 
L 307.44 244.8 
L 307.44 244.8 
L 302.91 244.8 
z
" clip-path="url(#pae81ce34eb)" style="fill: #808080; opacity: 0.8"/>
   </g>
   <g id="patch_56">
    <path d="M 308.5725 244.8 
L 313.1025 244.8 
L 313.1025 244.152 
L 308.5725 244.152 
z
" clip-path="url(#pae81ce34eb)" style="fill: #808080; opacity: 0.8"/>
   </g>
   <g id="patch_57">
    <path d="M 314.235 244.8 
L 318.765 244.8 
L 318.765 244.8 
L 314.235 244.8 
z
" clip-path="url(#pae81ce34eb)" style="fill: #808080; opacity: 0.8"/>
   </g>
   <g id="patch_58">
    <path d="M 319.8975 244.8 
L 324.4275 244.8 
L 324.4275 243.396 
L 319.8975 243.396 
z
" clip-path="url(#pae81ce34eb)" style="fill: #808080; opacity: 0.8"/>
   </g>
   <g id="patch_59">
    <path d="M 325.56 244.8 
L 330.09 244.8 
L 330.09 243.936 
L 325.56 243.936 
z
" clip-path="url(#pae81ce34eb)" style="fill: #808080; opacity: 0.8"/>
   </g>
   <g id="patch_60">
    <path d="M 331.2225 244.8 
L 335.7525 244.8 
L 335.7525 244.368 
L 331.2225 244.368 
z
" clip-path="url(#pae81ce34eb)" style="fill: #808080; opacity: 0.8"/>
   </g>
   <g id="patch_61">
    <path d="M 336.885 244.8 
L 341.415 244.8 
L 341.415 244.368 
L 336.885 244.368 
z
" clip-path="url(#pae81ce34eb)" style="fill: #808080; opacity: 0.8"/>
   </g>
   <g id="patch_62">
    <path d="M 342.5475 244.8 
L 347.0775 244.8 
L 347.0775 244.692 
L 342.5475 244.692 
z
" clip-path="url(#pae81ce34eb)" style="fill: #808080; opacity: 0.8"/>
   </g>
   <g id="patch_63">
    <path d="M 348.21 244.8 
L 352.74 244.8 
L 352.74 244.8 
L 348.21 244.8 
z
" clip-path="url(#pae81ce34eb)" style="fill: #808080; opacity: 0.8"/>
   </g>
   <g id="patch_64">
    <path d="M 353.8725 244.8 
L 358.4025 244.8 
L 358.4025 244.26 
L 353.8725 244.26 
z
" clip-path="url(#pae81ce34eb)" style="fill: #808080; opacity: 0.8"/>
   </g>
   <g id="patch_65">
    <path d="M 387.8475 244.8 
L 392.3775 244.8 
L 392.3775 244.8 
L 387.8475 244.8 
z
" clip-path="url(#pae81ce34eb)" style="fill: #808080; opacity: 0.8"/>
   </g>
   <g id="patch_66">
    <path d="M 393.51 244.8 
L 398.04 244.8 
L 398.04 244.26 
L 393.51 244.26 
z
" clip-path="url(#pae81ce34eb)" style="fill: #808080; opacity: 0.8"/>
   </g>
   <g id="patch_67">
    <path d="M 399.1725 244.8 
L 403.7025 244.8 
L 403.7025 244.692 
L 399.1725 244.692 
z
" clip-path="url(#pae81ce34eb)" style="fill: #808080; opacity: 0.8"/>
   </g>
   <g id="patch_68">
    <path d="M 404.835 244.8 
L 409.365 244.8 
L 409.365 244.8 
L 404.835 244.8 
z
" clip-path="url(#pae81ce34eb)" style="fill: #808080; opacity: 0.8"/>
   </g>
   <g id="patch_69">
    <path d="M 410.4975 244.8 
L 415.0275 244.8 
L 415.0275 244.584 
L 410.4975 244.584 
z
" clip-path="url(#pae81ce34eb)" style="fill: #808080; opacity: 0.8"/>
   </g>
   <g id="patch_70">
    <path d="M 416.16 244.8 
L 420.69 244.8 
L 420.69 244.692 
L 416.16 244.692 
z
" clip-path="url(#pae81ce34eb)" style="fill: #808080; opacity: 0.8"/>
   </g>
   <g id="patch_71">
    <path d="M 421.8225 244.8 
L 426.3525 244.8 
L 426.3525 244.8 
L 421.8225 244.8 
z
" clip-path="url(#pae81ce34eb)" style="fill: #808080; opacity: 0.8"/>
   </g>
   <g id="patch_72">
    <path d="M 427.485 244.8 
L 432.015 244.8 
L 432.015 244.8 
L 427.485 244.8 
z
" clip-path="url(#pae81ce34eb)" style="fill: #808080; opacity: 0.8"/>
   </g>
   <g id="patch_73">
    <path d="M 433.1475 244.8 
L 437.6775 244.8 
L 437.6775 244.8 
L 433.1475 244.8 
z
" clip-path="url(#pae81ce34eb)" style="fill: #808080; opacity: 0.8"/>
   </g>
   <g id="patch_74">
    <path d="M 438.81 244.8 
L 443.34 244.8 
L 443.34 244.8 
L 438.81 244.8 
z
" clip-path="url(#pae81ce34eb)" style="fill: #808080; opacity: 0.8"/>
   </g>
   <g id="patch_75">
    <path d="M 444.4725 244.8 
L 449.0025 244.8 
L 449.0025 244.8 
L 444.4725 244.8 
z
" clip-path="url(#pae81ce34eb)" style="fill: #808080; opacity: 0.8"/>
   </g>
   <g id="patch_76">
    <path d="M 478.4475 244.8 
L 482.9775 244.8 
L 482.9775 244.8 
L 478.4475 244.8 
z
" clip-path="url(#pae81ce34eb)" style="fill: #808080; opacity: 0.8"/>
   </g>
   <g id="patch_77">
    <path d="M 484.11 244.8 
L 488.64 244.8 
L 488.64 244.8 
L 484.11 244.8 
z
" clip-path="url(#pae81ce34eb)" style="fill: #808080; opacity: 0.8"/>
   </g>
   <g id="patch_78">
    <path d="M 489.7725 244.8 
L 494.3025 244.8 
L 494.3025 244.8 
L 489.7725 244.8 
z
" clip-path="url(#pae81ce34eb)" style="fill: #808080; opacity: 0.8"/>
   </g>
   <g id="patch_79">
    <path d="M 495.435 244.8 
L 499.965 244.8 
L 499.965 244.8 
L 495.435 244.8 
z
" clip-path="url(#pae81ce34eb)" style="fill: #808080; opacity: 0.8"/>
   </g>
   <g id="patch_80">
    <path d="M 501.0975 244.8 
L 505.6275 244.8 
L 505.6275 243.828 
L 501.0975 243.828 
z
" clip-path="url(#pae81ce34eb)" style="fill: #808080; opacity: 0.8"/>
   </g>
   <g id="patch_81">
    <path d="M 535.0725 244.8 
L 539.6025 244.8 
L 539.6025 244.8 
L 535.0725 244.8 
z
" clip-path="url(#pae81ce34eb)" style="fill: #808080; opacity: 0.8"/>
   </g>
   <g id="patch_82">
    <path d="M 540.735 244.8 
L 545.265 244.8 
L 545.265 244.8 
L 540.735 244.8 
z
" clip-path="url(#pae81ce34eb)" style="fill: #808080; opacity: 0.8"/>
   </g>
   <g id="patch_83">
    <path d="M 546.3975 244.8 
L 550.9275 244.8 
L 550.9275 244.8 
L 546.3975 244.8 
z
" clip-path="url(#pae81ce34eb)" style="fill: #808080; opacity: 0.8"/>
   </g>
   <g id="patch_84">
    <path d="M 552.06 244.8 
L 556.59 244.8 
L 556.59 244.8 
L 552.06 244.8 
z
" clip-path="url(#pae81ce34eb)" style="fill: #808080; opacity: 0.8"/>
   </g>
   <g id="patch_85">
    <path d="M 557.7225 244.8 
L 562.2525 244.8 
L 562.2525 244.8 
L 557.7225 244.8 
z
" clip-path="url(#pae81ce34eb)" style="fill: #808080; opacity: 0.8"/>
   </g>
   <g id="patch_86">
    <path d="M 563.385 244.8 
L 567.915 244.8 
L 567.915 244.584 
L 563.385 244.584 
z
" clip-path="url(#pae81ce34eb)" style="fill: #808080; opacity: 0.8"/>
   </g>
   <g id="patch_87">
    <path d="M 569.0475 244.8 
L 573.5775 244.8 
L 573.5775 244.8 
L 569.0475 244.8 
z
" clip-path="url(#pae81ce34eb)" style="fill: #808080; opacity: 0.8"/>
   </g>
   <g id="patch_88">
    <path d="M 574.71 244.8 
L 579.24 244.8 
L 579.24 244.8 
L 574.71 244.8 
z
" clip-path="url(#pae81ce34eb)" style="fill: #808080; opacity: 0.8"/>
   </g>
   <g id="patch_89">
    <path d="M 580.3725 244.8 
L 584.9025 244.8 
L 584.9025 244.8 
L 580.3725 244.8 
z
" clip-path="url(#pae81ce34eb)" style="fill: #808080; opacity: 0.8"/>
   </g>
   <g id="patch_90">
    <path d="M 586.035 244.8 
L 590.565 244.8 
L 590.565 244.8 
L 586.035 244.8 
z
" clip-path="url(#pae81ce34eb)" style="fill: #808080; opacity: 0.8"/>
   </g>
   <g id="patch_91">
    <path d="M 591.6975 244.8 
L 596.2275 244.8 
L 596.2275 244.8 
L 591.6975 244.8 
z
" clip-path="url(#pae81ce34eb)" style="fill: #808080; opacity: 0.8"/>
   </g>
   <g id="patch_92">
    <path d="M 597.36 244.8 
L 601.89 244.8 
L 601.89 244.152 
L 597.36 244.152 
z
" clip-path="url(#pae81ce34eb)" style="fill: #808080; opacity: 0.8"/>
   </g>
   <g id="patch_93">
    <path d="M 603.0225 244.8 
L 607.5525 244.8 
L 607.5525 244.476 
L 603.0225 244.476 
z
" clip-path="url(#pae81ce34eb)" style="fill: #808080; opacity: 0.8"/>
   </g>
   <g id="patch_94">
    <path d="M 608.685 244.8 
L 613.215 244.8 
L 613.215 244.8 
L 608.685 244.8 
z
" clip-path="url(#pae81ce34eb)" style="fill: #808080; opacity: 0.8"/>
   </g>
   <g id="patch_95">
    <path d="M 614.3475 244.8 
L 618.8775 244.8 
L 618.8775 243.612 
L 614.3475 243.612 
z
" clip-path="url(#pae81ce34eb)" style="fill: #808080; opacity: 0.8"/>
   </g>
   <g id="patch_96">
    <path d="M 620.01 244.8 
L 624.54 244.8 
L 624.54 244.26 
L 620.01 244.26 
z
" clip-path="url(#pae81ce34eb)" style="fill: #808080; opacity: 0.8"/>
   </g>
   <g id="patch_97">
    <path d="M 625.6725 244.8 
L 630.2025 244.8 
L 630.2025 244.044 
L 625.6725 244.044 
z
" clip-path="url(#pae81ce34eb)" style="fill: #808080; opacity: 0.8"/>
   </g>
   <g id="matplotlib.axis_1">
    <g id="ytick_1">
     <g id="line2d_1">
      <defs>
       <path id="mcedbcf48bc" d="M 0 0 
L 3.5 0 
" style="stroke: #000000; stroke-width: 0.8"/>
      </defs>
      <g>
       <use xlink:href="#mcedbcf48bc" x="633.6" y="244.8" style="stroke: #000000; stroke-width: 0.8"/>
      </g>
     </g>
     <g id="text_1">
      <!-- 0% -->
      <g transform="translate(640.6 249.359062) scale(0.12 -0.12)">
       <defs>
        <path id="DejaVuSans-30" d="M 2034 4250 
Q 1547 4250 1301 3770 
Q 1056 3291 1056 2328 
Q 1056 1369 1301 889 
Q 1547 409 2034 409 
Q 2525 409 2770 889 
Q 3016 1369 3016 2328 
Q 3016 3291 2770 3770 
Q 2525 4250 2034 4250 
z
M 2034 4750 
Q 2819 4750 3233 4129 
Q 3647 3509 3647 2328 
Q 3647 1150 3233 529 
Q 2819 -91 2034 -91 
Q 1250 -91 836 529 
Q 422 1150 422 2328 
Q 422 3509 836 4129 
Q 1250 4750 2034 4750 
z
" transform="scale(0.015625)"/>
        <path id="DejaVuSans-25" d="M 4653 2053 
Q 4381 2053 4226 1822 
Q 4072 1591 4072 1178 
Q 4072 772 4226 539 
Q 4381 306 4653 306 
Q 4919 306 5073 539 
Q 5228 772 5228 1178 
Q 5228 1588 5073 1820 
Q 4919 2053 4653 2053 
z
M 4653 2450 
Q 5147 2450 5437 2106 
Q 5728 1763 5728 1178 
Q 5728 594 5436 251 
Q 5144 -91 4653 -91 
Q 4153 -91 3862 251 
Q 3572 594 3572 1178 
Q 3572 1766 3864 2108 
Q 4156 2450 4653 2450 
z
M 1428 4353 
Q 1159 4353 1004 4120 
Q 850 3888 850 3481 
Q 850 3069 1003 2837 
Q 1156 2606 1428 2606 
Q 1700 2606 1854 2837 
Q 2009 3069 2009 3481 
Q 2009 3884 1853 4118 
Q 1697 4353 1428 4353 
z
M 4250 4750 
L 4750 4750 
L 1831 -91 
L 1331 -91 
L 4250 4750 
z
M 1428 4750 
Q 1922 4750 2215 4408 
Q 2509 4066 2509 3481 
Q 2509 2891 2217 2550 
Q 1925 2209 1428 2209 
Q 931 2209 642 2551 
Q 353 2894 353 3481 
Q 353 4063 643 4406 
Q 934 4750 1428 4750 
z
" transform="scale(0.015625)"/>
       </defs>
       <use xlink:href="#DejaVuSans-30"/>
       <use xlink:href="#DejaVuSans-25" x="63.623047"/>
      </g>
     </g>
    </g>
    <g id="ytick_2">
     <g id="line2d_2">
      <g>
       <use xlink:href="#mcedbcf48bc" x="633.6" y="190.8" style="stroke: #000000; stroke-width: 0.8"/>
      </g>
     </g>
     <g id="text_2">
      <!-- 25% -->
      <g transform="translate(640.6 195.359062) scale(0.12 -0.12)">
       <defs>
        <path id="DejaVuSans-32" d="M 1228 531 
L 3431 531 
L 3431 0 
L 469 0 
L 469 531 
Q 828 903 1448 1529 
Q 2069 2156 2228 2338 
Q 2531 2678 2651 2914 
Q 2772 3150 2772 3378 
Q 2772 3750 2511 3984 
Q 2250 4219 1831 4219 
Q 1534 4219 1204 4116 
Q 875 4013 500 3803 
L 500 4441 
Q 881 4594 1212 4672 
Q 1544 4750 1819 4750 
Q 2544 4750 2975 4387 
Q 3406 4025 3406 3419 
Q 3406 3131 3298 2873 
Q 3191 2616 2906 2266 
Q 2828 2175 2409 1742 
Q 1991 1309 1228 531 
z
" transform="scale(0.015625)"/>
        <path id="DejaVuSans-35" d="M 691 4666 
L 3169 4666 
L 3169 4134 
L 1269 4134 
L 1269 2991 
Q 1406 3038 1543 3061 
Q 1681 3084 1819 3084 
Q 2600 3084 3056 2656 
Q 3513 2228 3513 1497 
Q 3513 744 3044 326 
Q 2575 -91 1722 -91 
Q 1428 -91 1123 -41 
Q 819 9 494 109 
L 494 744 
Q 775 591 1075 516 
Q 1375 441 1709 441 
Q 2250 441 2565 725 
Q 2881 1009 2881 1497 
Q 2881 1984 2565 2268 
Q 2250 2553 1709 2553 
Q 1456 2553 1204 2497 
Q 953 2441 691 2322 
L 691 4666 
z
" transform="scale(0.015625)"/>
       </defs>
       <use xlink:href="#DejaVuSans-32"/>
       <use xlink:href="#DejaVuSans-35" x="63.623047"/>
       <use xlink:href="#DejaVuSans-25" x="127.246094"/>
      </g>
     </g>
    </g>
    <g id="ytick_3">
     <g id="line2d_3">
      <g>
       <use xlink:href="#mcedbcf48bc" x="633.6" y="136.8" style="stroke: #000000; stroke-width: 0.8"/>
      </g>
     </g>
     <g id="text_3">
      <!-- 50% -->
      <g transform="translate(640.6 141.359063) scale(0.12 -0.12)">
       <use xlink:href="#DejaVuSans-35"/>
       <use xlink:href="#DejaVuSans-30" x="63.623047"/>
       <use xlink:href="#DejaVuSans-25" x="127.246094"/>
      </g>
     </g>
    </g>
    <g id="ytick_4">
     <g id="line2d_4">
      <g>
       <use xlink:href="#mcedbcf48bc" x="633.6" y="82.8" style="stroke: #000000; stroke-width: 0.8"/>
      </g>
     </g>
     <g id="text_4">
      <!-- 75% -->
      <g transform="translate(640.6 87.359063) scale(0.12 -0.12)">
       <defs>
        <path id="DejaVuSans-37" d="M 525 4666 
L 3525 4666 
L 3525 4397 
L 1831 0 
L 1172 0 
L 2766 4134 
L 525 4134 
L 525 4666 
z
" transform="scale(0.015625)"/>
       </defs>
       <use xlink:href="#DejaVuSans-37"/>
       <use xlink:href="#DejaVuSans-35" x="63.623047"/>
       <use xlink:href="#DejaVuSans-25" x="127.246094"/>
      </g>
     </g>
    </g>
    <g id="ytick_5">
     <g id="line2d_5">
      <g>
       <use xlink:href="#mcedbcf48bc" x="633.6" y="28.8" style="stroke: #000000; stroke-width: 0.8"/>
      </g>
     </g>
     <g id="text_5">
      <!-- 100% -->
      <g transform="translate(640.6 33.359063) scale(0.12 -0.12)">
       <defs>
        <path id="DejaVuSans-31" d="M 794 531 
L 1825 531 
L 1825 4091 
L 703 3866 
L 703 4441 
L 1819 4666 
L 2450 4666 
L 2450 531 
L 3481 531 
L 3481 0 
L 794 0 
L 794 531 
z
" transform="scale(0.015625)"/>
       </defs>
       <use xlink:href="#DejaVuSans-31"/>
       <use xlink:href="#DejaVuSans-30" x="63.623047"/>
       <use xlink:href="#DejaVuSans-30" x="127.246094"/>
       <use xlink:href="#DejaVuSans-25" x="190.869141"/>
      </g>
     </g>
    </g>
    <g id="text_6">
     <!-- Pulse detection [% of cells] -->
     <g transform="translate(688.025 218.180625) rotate(-90) scale(0.12 -0.12)">
      <defs>
       <path id="DejaVuSans-50" d="M 1259 4147 
L 1259 2394 
L 2053 2394 
Q 2494 2394 2734 2622 
Q 2975 2850 2975 3272 
Q 2975 3691 2734 3919 
Q 2494 4147 2053 4147 
L 1259 4147 
z
M 628 4666 
L 2053 4666 
Q 2838 4666 3239 4311 
Q 3641 3956 3641 3272 
Q 3641 2581 3239 2228 
Q 2838 1875 2053 1875 
L 1259 1875 
L 1259 0 
L 628 0 
L 628 4666 
z
" transform="scale(0.015625)"/>
       <path id="DejaVuSans-75" d="M 544 1381 
L 544 3500 
L 1119 3500 
L 1119 1403 
Q 1119 906 1312 657 
Q 1506 409 1894 409 
Q 2359 409 2629 706 
Q 2900 1003 2900 1516 
L 2900 3500 
L 3475 3500 
L 3475 0 
L 2900 0 
L 2900 538 
Q 2691 219 2414 64 
Q 2138 -91 1772 -91 
Q 1169 -91 856 284 
Q 544 659 544 1381 
z
M 1991 3584 
L 1991 3584 
z
" transform="scale(0.015625)"/>
       <path id="DejaVuSans-6c" d="M 603 4863 
L 1178 4863 
L 1178 0 
L 603 0 
L 603 4863 
z
" transform="scale(0.015625)"/>
       <path id="DejaVuSans-73" d="M 2834 3397 
L 2834 2853 
Q 2591 2978 2328 3040 
Q 2066 3103 1784 3103 
Q 1356 3103 1142 2972 
Q 928 2841 928 2578 
Q 928 2378 1081 2264 
Q 1234 2150 1697 2047 
L 1894 2003 
Q 2506 1872 2764 1633 
Q 3022 1394 3022 966 
Q 3022 478 2636 193 
Q 2250 -91 1575 -91 
Q 1294 -91 989 -36 
Q 684 19 347 128 
L 347 722 
Q 666 556 975 473 
Q 1284 391 1588 391 
Q 1994 391 2212 530 
Q 2431 669 2431 922 
Q 2431 1156 2273 1281 
Q 2116 1406 1581 1522 
L 1381 1569 
Q 847 1681 609 1914 
Q 372 2147 372 2553 
Q 372 3047 722 3315 
Q 1072 3584 1716 3584 
Q 2034 3584 2315 3537 
Q 2597 3491 2834 3397 
z
" transform="scale(0.015625)"/>
       <path id="DejaVuSans-65" d="M 3597 1894 
L 3597 1613 
L 953 1613 
Q 991 1019 1311 708 
Q 1631 397 2203 397 
Q 2534 397 2845 478 
Q 3156 559 3463 722 
L 3463 178 
Q 3153 47 2828 -22 
Q 2503 -91 2169 -91 
Q 1331 -91 842 396 
Q 353 884 353 1716 
Q 353 2575 817 3079 
Q 1281 3584 2069 3584 
Q 2775 3584 3186 3129 
Q 3597 2675 3597 1894 
z
M 3022 2063 
Q 3016 2534 2758 2815 
Q 2500 3097 2075 3097 
Q 1594 3097 1305 2825 
Q 1016 2553 972 2059 
L 3022 2063 
z
" transform="scale(0.015625)"/>
       <path id="DejaVuSans-20" transform="scale(0.015625)"/>
       <path id="DejaVuSans-64" d="M 2906 2969 
L 2906 4863 
L 3481 4863 
L 3481 0 
L 2906 0 
L 2906 525 
Q 2725 213 2448 61 
Q 2172 -91 1784 -91 
Q 1150 -91 751 415 
Q 353 922 353 1747 
Q 353 2572 751 3078 
Q 1150 3584 1784 3584 
Q 2172 3584 2448 3432 
Q 2725 3281 2906 2969 
z
M 947 1747 
Q 947 1113 1208 752 
Q 1469 391 1925 391 
Q 2381 391 2643 752 
Q 2906 1113 2906 1747 
Q 2906 2381 2643 2742 
Q 2381 3103 1925 3103 
Q 1469 3103 1208 2742 
Q 947 2381 947 1747 
z
" transform="scale(0.015625)"/>
       <path id="DejaVuSans-74" d="M 1172 4494 
L 1172 3500 
L 2356 3500 
L 2356 3053 
L 1172 3053 
L 1172 1153 
Q 1172 725 1289 603 
Q 1406 481 1766 481 
L 2356 481 
L 2356 0 
L 1766 0 
Q 1100 0 847 248 
Q 594 497 594 1153 
L 594 3053 
L 172 3053 
L 172 3500 
L 594 3500 
L 594 4494 
L 1172 4494 
z
" transform="scale(0.015625)"/>
       <path id="DejaVuSans-63" d="M 3122 3366 
L 3122 2828 
Q 2878 2963 2633 3030 
Q 2388 3097 2138 3097 
Q 1578 3097 1268 2742 
Q 959 2388 959 1747 
Q 959 1106 1268 751 
Q 1578 397 2138 397 
Q 2388 397 2633 464 
Q 2878 531 3122 666 
L 3122 134 
Q 2881 22 2623 -34 
Q 2366 -91 2075 -91 
Q 1284 -91 818 406 
Q 353 903 353 1747 
Q 353 2603 823 3093 
Q 1294 3584 2113 3584 
Q 2378 3584 2631 3529 
Q 2884 3475 3122 3366 
z
" transform="scale(0.015625)"/>
       <path id="DejaVuSans-69" d="M 603 3500 
L 1178 3500 
L 1178 0 
L 603 0 
L 603 3500 
z
M 603 4863 
L 1178 4863 
L 1178 4134 
L 603 4134 
L 603 4863 
z
" transform="scale(0.015625)"/>
       <path id="DejaVuSans-6f" d="M 1959 3097 
Q 1497 3097 1228 2736 
Q 959 2375 959 1747 
Q 959 1119 1226 758 
Q 1494 397 1959 397 
Q 2419 397 2687 759 
Q 2956 1122 2956 1747 
Q 2956 2369 2687 2733 
Q 2419 3097 1959 3097 
z
M 1959 3584 
Q 2709 3584 3137 3096 
Q 3566 2609 3566 1747 
Q 3566 888 3137 398 
Q 2709 -91 1959 -91 
Q 1206 -91 779 398 
Q 353 888 353 1747 
Q 353 2609 779 3096 
Q 1206 3584 1959 3584 
z
" transform="scale(0.015625)"/>
       <path id="DejaVuSans-6e" d="M 3513 2113 
L 3513 0 
L 2938 0 
L 2938 2094 
Q 2938 2591 2744 2837 
Q 2550 3084 2163 3084 
Q 1697 3084 1428 2787 
Q 1159 2491 1159 1978 
L 1159 0 
L 581 0 
L 581 3500 
L 1159 3500 
L 1159 2956 
Q 1366 3272 1645 3428 
Q 1925 3584 2291 3584 
Q 2894 3584 3203 3211 
Q 3513 2838 3513 2113 
z
" transform="scale(0.015625)"/>
       <path id="DejaVuSans-5b" d="M 550 4863 
L 1875 4863 
L 1875 4416 
L 1125 4416 
L 1125 -397 
L 1875 -397 
L 1875 -844 
L 550 -844 
L 550 4863 
z
" transform="scale(0.015625)"/>
       <path id="DejaVuSans-66" d="M 2375 4863 
L 2375 4384 
L 1825 4384 
Q 1516 4384 1395 4259 
Q 1275 4134 1275 3809 
L 1275 3500 
L 2222 3500 
L 2222 3053 
L 1275 3053 
L 1275 0 
L 697 0 
L 697 3053 
L 147 3053 
L 147 3500 
L 697 3500 
L 697 3744 
Q 697 4328 969 4595 
Q 1241 4863 1831 4863 
L 2375 4863 
z
" transform="scale(0.015625)"/>
       <path id="DejaVuSans-5d" d="M 1947 4863 
L 1947 -844 
L 622 -844 
L 622 -397 
L 1369 -397 
L 1369 4416 
L 622 4416 
L 622 4863 
L 1947 4863 
z
" transform="scale(0.015625)"/>
      </defs>
      <use xlink:href="#DejaVuSans-50"/>
      <use xlink:href="#DejaVuSans-75" x="58.552734"/>
      <use xlink:href="#DejaVuSans-6c" x="121.931641"/>
      <use xlink:href="#DejaVuSans-73" x="149.714844"/>
      <use xlink:href="#DejaVuSans-65" x="201.814453"/>
      <use xlink:href="#DejaVuSans-20" x="263.337891"/>
      <use xlink:href="#DejaVuSans-64" x="295.125"/>
      <use xlink:href="#DejaVuSans-65" x="358.601562"/>
      <use xlink:href="#DejaVuSans-74" x="420.125"/>
      <use xlink:href="#DejaVuSans-65" x="459.333984"/>
      <use xlink:href="#DejaVuSans-63" x="520.857422"/>
      <use xlink:href="#DejaVuSans-74" x="575.837891"/>
      <use xlink:href="#DejaVuSans-69" x="615.046875"/>
      <use xlink:href="#DejaVuSans-6f" x="642.830078"/>
      <use xlink:href="#DejaVuSans-6e" x="704.011719"/>
      <use xlink:href="#DejaVuSans-20" x="767.390625"/>
      <use xlink:href="#DejaVuSans-5b" x="799.177734"/>
      <use xlink:href="#DejaVuSans-25" x="838.191406"/>
      <use xlink:href="#DejaVuSans-20" x="933.210938"/>
      <use xlink:href="#DejaVuSans-6f" x="964.998047"/>
      <use xlink:href="#DejaVuSans-66" x="1026.179688"/>
      <use xlink:href="#DejaVuSans-20" x="1061.384766"/>
      <use xlink:href="#DejaVuSans-63" x="1093.171875"/>
      <use xlink:href="#DejaVuSans-65" x="1148.152344"/>
      <use xlink:href="#DejaVuSans-6c" x="1209.675781"/>
      <use xlink:href="#DejaVuSans-6c" x="1237.458984"/>
      <use xlink:href="#DejaVuSans-73" x="1265.242188"/>
      <use xlink:href="#DejaVuSans-5d" x="1317.341797"/>
     </g>
    </g>
   </g>
   <g id="line2d_6">
    <defs>
     <path id="m35a70d1342" d="M -0 4 
L 4 -4 
L -4 -4 
z
" style="stroke: #1e90ff; stroke-linejoin: miter"/>
    </defs>
    <g clip-path="url(#pae81ce34eb)">
     <use xlink:href="#m35a70d1342" x="101.325" y="35.28" style="fill: #1e90ff; stroke: #1e90ff; stroke-linejoin: miter"/>
     <use xlink:href="#m35a70d1342" x="373.125" y="35.28" style="fill: #1e90ff; stroke: #1e90ff; stroke-linejoin: miter"/>
     <use xlink:href="#m35a70d1342" x="463.725" y="35.28" style="fill: #1e90ff; stroke: #1e90ff; stroke-linejoin: miter"/>
     <use xlink:href="#m35a70d1342" x="520.35" y="35.28" style="fill: #1e90ff; stroke: #1e90ff; stroke-linejoin: miter"/>
    </g>
   </g>
   <g id="patch_98">
    <path d="M 90 244.8 
L 90 28.8 
" style="fill: none; stroke: #000000; stroke-width: 0.8; stroke-linejoin: miter; stroke-linecap: square"/>
   </g>
   <g id="patch_99">
    <path d="M 633.6 244.8 
L 633.6 28.8 
" style="fill: none; stroke: #000000; stroke-width: 0.8; stroke-linejoin: miter; stroke-linecap: square"/>
   </g>
   <g id="text_7">
    <!-- 90% -->
    <g style="fill: #008000" transform="translate(101.325 46.94) scale(0.1 -0.1)">
     <defs>
      <path id="DejaVuSans-39" d="M 703 97 
L 703 672 
Q 941 559 1184 500 
Q 1428 441 1663 441 
Q 2288 441 2617 861 
Q 2947 1281 2994 2138 
Q 2813 1869 2534 1725 
Q 2256 1581 1919 1581 
Q 1219 1581 811 2004 
Q 403 2428 403 3163 
Q 403 3881 828 4315 
Q 1253 4750 1959 4750 
Q 2769 4750 3195 4129 
Q 3622 3509 3622 2328 
Q 3622 1225 3098 567 
Q 2575 -91 1691 -91 
Q 1453 -91 1209 -44 
Q 966 3 703 97 
z
M 1959 2075 
Q 2384 2075 2632 2365 
Q 2881 2656 2881 3163 
Q 2881 3666 2632 3958 
Q 2384 4250 1959 4250 
Q 1534 4250 1286 3958 
Q 1038 3666 1038 3163 
Q 1038 2656 1286 2365 
Q 1534 2075 1959 2075 
z
" transform="scale(0.015625)"/>
     </defs>
     <use xlink:href="#DejaVuSans-39"/>
     <use xlink:href="#DejaVuSans-30" x="63.623047"/>
     <use xlink:href="#DejaVuSans-25" x="127.246094"/>
    </g>
   </g>
   <g id="text_8">
    <!-- 90% -->
    <g style="fill: #008000" transform="translate(373.125 45.428) scale(0.1 -0.1)">
     <use xlink:href="#DejaVuSans-39"/>
     <use xlink:href="#DejaVuSans-30" x="63.623047"/>
     <use xlink:href="#DejaVuSans-25" x="127.246094"/>
    </g>
   </g>
   <g id="text_9">
    <!-- 83% -->
    <g style="fill: #008000" transform="translate(463.725 61.952) scale(0.1 -0.1)">
     <defs>
      <path id="DejaVuSans-38" d="M 2034 2216 
Q 1584 2216 1326 1975 
Q 1069 1734 1069 1313 
Q 1069 891 1326 650 
Q 1584 409 2034 409 
Q 2484 409 2743 651 
Q 3003 894 3003 1313 
Q 3003 1734 2745 1975 
Q 2488 2216 2034 2216 
z
M 1403 2484 
Q 997 2584 770 2862 
Q 544 3141 544 3541 
Q 544 4100 942 4425 
Q 1341 4750 2034 4750 
Q 2731 4750 3128 4425 
Q 3525 4100 3525 3541 
Q 3525 3141 3298 2862 
Q 3072 2584 2669 2484 
Q 3125 2378 3379 2068 
Q 3634 1759 3634 1313 
Q 3634 634 3220 271 
Q 2806 -91 2034 -91 
Q 1263 -91 848 271 
Q 434 634 434 1313 
Q 434 1759 690 2068 
Q 947 2378 1403 2484 
z
M 1172 3481 
Q 1172 3119 1398 2916 
Q 1625 2713 2034 2713 
Q 2441 2713 2670 2916 
Q 2900 3119 2900 3481 
Q 2900 3844 2670 4047 
Q 2441 4250 2034 4250 
Q 1625 4250 1398 4047 
Q 1172 3844 1172 3481 
z
" transform="scale(0.015625)"/>
      <path id="DejaVuSans-33" d="M 2597 2516 
Q 3050 2419 3304 2112 
Q 3559 1806 3559 1356 
Q 3559 666 3084 287 
Q 2609 -91 1734 -91 
Q 1441 -91 1130 -33 
Q 819 25 488 141 
L 488 750 
Q 750 597 1062 519 
Q 1375 441 1716 441 
Q 2309 441 2620 675 
Q 2931 909 2931 1356 
Q 2931 1769 2642 2001 
Q 2353 2234 1838 2234 
L 1294 2234 
L 1294 2753 
L 1863 2753 
Q 2328 2753 2575 2939 
Q 2822 3125 2822 3475 
Q 2822 3834 2567 4026 
Q 2313 4219 1838 4219 
Q 1578 4219 1281 4162 
Q 984 4106 628 3988 
L 628 4550 
Q 988 4650 1302 4700 
Q 1616 4750 1894 4750 
Q 2613 4750 3031 4423 
Q 3450 4097 3450 3541 
Q 3450 3153 3228 2886 
Q 3006 2619 2597 2516 
z
" transform="scale(0.015625)"/>
     </defs>
     <use xlink:href="#DejaVuSans-38"/>
     <use xlink:href="#DejaVuSans-33" x="63.623047"/>
     <use xlink:href="#DejaVuSans-25" x="127.246094"/>
    </g>
   </g>
   <g id="text_10">
    <!-- 76% -->
    <g style="fill: #008000" transform="translate(520.35 76.532) scale(0.1 -0.1)">
     <defs>
      <path id="DejaVuSans-36" d="M 2113 2584 
Q 1688 2584 1439 2293 
Q 1191 2003 1191 1497 
Q 1191 994 1439 701 
Q 1688 409 2113 409 
Q 2538 409 2786 701 
Q 3034 994 3034 1497 
Q 3034 2003 2786 2293 
Q 2538 2584 2113 2584 
z
M 3366 4563 
L 3366 3988 
Q 3128 4100 2886 4159 
Q 2644 4219 2406 4219 
Q 1781 4219 1451 3797 
Q 1122 3375 1075 2522 
Q 1259 2794 1537 2939 
Q 1816 3084 2150 3084 
Q 2853 3084 3261 2657 
Q 3669 2231 3669 1497 
Q 3669 778 3244 343 
Q 2819 -91 2113 -91 
Q 1303 -91 875 529 
Q 447 1150 447 2328 
Q 447 3434 972 4092 
Q 1497 4750 2381 4750 
Q 2619 4750 2861 4703 
Q 3103 4656 3366 4563 
z
" transform="scale(0.015625)"/>
     </defs>
     <use xlink:href="#DejaVuSans-37"/>
     <use xlink:href="#DejaVuSans-36" x="63.623047"/>
     <use xlink:href="#DejaVuSans-25" x="127.246094"/>
    </g>
   </g>
   <g id="text_11">
    <!-- 48 min -->
    <g transform="translate(218.042969 31.040313) scale(0.1 -0.1)">
     <defs>
      <path id="DejaVuSans-Bold-34" d="M 2356 3675 
L 1038 1722 
L 2356 1722 
L 2356 3675 
z
M 2156 4666 
L 3494 4666 
L 3494 1722 
L 4159 1722 
L 4159 850 
L 3494 850 
L 3494 0 
L 2356 0 
L 2356 850 
L 288 850 
L 288 1881 
L 2156 4666 
z
" transform="scale(0.015625)"/>
      <path id="DejaVuSans-Bold-38" d="M 2228 2088 
Q 1891 2088 1709 1903 
Q 1528 1719 1528 1375 
Q 1528 1031 1709 848 
Q 1891 666 2228 666 
Q 2563 666 2741 848 
Q 2919 1031 2919 1375 
Q 2919 1722 2741 1905 
Q 2563 2088 2228 2088 
z
M 1350 2484 
Q 925 2613 709 2878 
Q 494 3144 494 3541 
Q 494 4131 934 4440 
Q 1375 4750 2228 4750 
Q 3075 4750 3515 4442 
Q 3956 4134 3956 3541 
Q 3956 3144 3739 2878 
Q 3522 2613 3097 2484 
Q 3572 2353 3814 2058 
Q 4056 1763 4056 1313 
Q 4056 619 3595 264 
Q 3134 -91 2228 -91 
Q 1319 -91 855 264 
Q 391 619 391 1313 
Q 391 1763 633 2058 
Q 875 2353 1350 2484 
z
M 1631 3419 
Q 1631 3141 1786 2991 
Q 1941 2841 2228 2841 
Q 2509 2841 2662 2991 
Q 2816 3141 2816 3419 
Q 2816 3697 2662 3845 
Q 2509 3994 2228 3994 
Q 1941 3994 1786 3844 
Q 1631 3694 1631 3419 
z
" transform="scale(0.015625)"/>
      <path id="DejaVuSans-Bold-20" transform="scale(0.015625)"/>
      <path id="DejaVuSans-Bold-6d" d="M 3781 2919 
Q 3994 3244 4286 3414 
Q 4578 3584 4928 3584 
Q 5531 3584 5847 3212 
Q 6163 2841 6163 2131 
L 6163 0 
L 5038 0 
L 5038 1825 
Q 5041 1866 5042 1909 
Q 5044 1953 5044 2034 
Q 5044 2406 4934 2573 
Q 4825 2741 4581 2741 
Q 4263 2741 4089 2478 
Q 3916 2216 3909 1719 
L 3909 0 
L 2784 0 
L 2784 1825 
Q 2784 2406 2684 2573 
Q 2584 2741 2328 2741 
Q 2006 2741 1831 2477 
Q 1656 2213 1656 1722 
L 1656 0 
L 531 0 
L 531 3500 
L 1656 3500 
L 1656 2988 
Q 1863 3284 2130 3434 
Q 2397 3584 2719 3584 
Q 3081 3584 3359 3409 
Q 3638 3234 3781 2919 
z
" transform="scale(0.015625)"/>
      <path id="DejaVuSans-Bold-69" d="M 538 3500 
L 1656 3500 
L 1656 0 
L 538 0 
L 538 3500 
z
M 538 4863 
L 1656 4863 
L 1656 3950 
L 538 3950 
L 538 4863 
z
" transform="scale(0.015625)"/>
      <path id="DejaVuSans-Bold-6e" d="M 4056 2131 
L 4056 0 
L 2931 0 
L 2931 347 
L 2931 1631 
Q 2931 2084 2911 2256 
Q 2891 2428 2841 2509 
Q 2775 2619 2662 2680 
Q 2550 2741 2406 2741 
Q 2056 2741 1856 2470 
Q 1656 2200 1656 1722 
L 1656 0 
L 538 0 
L 538 3500 
L 1656 3500 
L 1656 2988 
Q 1909 3294 2193 3439 
Q 2478 3584 2822 3584 
Q 3428 3584 3742 3212 
Q 4056 2841 4056 2131 
z
" transform="scale(0.015625)"/>
     </defs>
     <use xlink:href="#DejaVuSans-Bold-34"/>
     <use xlink:href="#DejaVuSans-Bold-38" x="69.580078"/>
     <use xlink:href="#DejaVuSans-Bold-20" x="139.160156"/>
     <use xlink:href="#DejaVuSans-Bold-6d" x="173.974609"/>
     <use xlink:href="#DejaVuSans-Bold-69" x="278.173828"/>
     <use xlink:href="#DejaVuSans-Bold-6e" x="312.451172"/>
    </g>
   </g>
   <g id="patch_100">
    <path d="M 370.003801 35.28 
Q 237.221735 35.28 104.439669 35.28 
" style="fill: none; stroke: #000000; stroke-linecap: round"/>
    <path d="M 364.003801 30.78 
L 370.003801 35.28 
L 364.003801 39.78 
" style="fill: none; stroke: #000000; stroke-linecap: round"/>
    <path d="M 110.439669 39.78 
L 104.439669 35.28 
L 110.439669 30.78 
" style="fill: none; stroke: #000000; stroke-linecap: round"/>
   </g>
   <g id="text_12">
    <!-- 16 min -->
    <g transform="translate(399.242969 31.040313) scale(0.1 -0.1)">
     <defs>
      <path id="DejaVuSans-Bold-31" d="M 750 831 
L 1813 831 
L 1813 3847 
L 722 3622 
L 722 4441 
L 1806 4666 
L 2950 4666 
L 2950 831 
L 4013 831 
L 4013 0 
L 750 0 
L 750 831 
z
" transform="scale(0.015625)"/>
      <path id="DejaVuSans-Bold-36" d="M 2316 2303 
Q 2000 2303 1842 2098 
Q 1684 1894 1684 1484 
Q 1684 1075 1842 870 
Q 2000 666 2316 666 
Q 2634 666 2792 870 
Q 2950 1075 2950 1484 
Q 2950 1894 2792 2098 
Q 2634 2303 2316 2303 
z
M 3803 4544 
L 3803 3681 
Q 3506 3822 3243 3889 
Q 2981 3956 2731 3956 
Q 2194 3956 1894 3657 
Q 1594 3359 1544 2772 
Q 1750 2925 1990 3001 
Q 2231 3078 2516 3078 
Q 3231 3078 3670 2659 
Q 4109 2241 4109 1563 
Q 4109 813 3618 361 
Q 3128 -91 2303 -91 
Q 1394 -91 895 523 
Q 397 1138 397 2266 
Q 397 3422 980 4083 
Q 1563 4744 2578 4744 
Q 2900 4744 3203 4694 
Q 3506 4644 3803 4544 
z
" transform="scale(0.015625)"/>
     </defs>
     <use xlink:href="#DejaVuSans-Bold-31"/>
     <use xlink:href="#DejaVuSans-Bold-36" x="69.580078"/>
     <use xlink:href="#DejaVuSans-Bold-20" x="139.160156"/>
     <use xlink:href="#DejaVuSans-Bold-6d" x="173.974609"/>
     <use xlink:href="#DejaVuSans-Bold-69" x="278.173828"/>
     <use xlink:href="#DejaVuSans-Bold-6e" x="312.451172"/>
    </g>
   </g>
   <g id="patch_101">
    <path d="M 460.607949 35.28 
Q 418.424578 35.28 376.241207 35.28 
" style="fill: none; stroke: #000000; stroke-linecap: round"/>
    <path d="M 454.607949 30.78 
L 460.607949 35.28 
L 454.607949 39.78 
" style="fill: none; stroke: #000000; stroke-linecap: round"/>
    <path d="M 382.241207 39.78 
L 376.241207 35.28 
L 382.241207 30.78 
" style="fill: none; stroke: #000000; stroke-linecap: round"/>
   </g>
   <g id="text_13">
    <!-- 10 min -->
    <g transform="translate(472.855469 31.040313) scale(0.1 -0.1)">
     <defs>
      <path id="DejaVuSans-Bold-30" d="M 2944 2338 
Q 2944 3213 2780 3570 
Q 2616 3928 2228 3928 
Q 1841 3928 1675 3570 
Q 1509 3213 1509 2338 
Q 1509 1453 1675 1090 
Q 1841 728 2228 728 
Q 2613 728 2778 1090 
Q 2944 1453 2944 2338 
z
M 4147 2328 
Q 4147 1169 3647 539 
Q 3147 -91 2228 -91 
Q 1306 -91 806 539 
Q 306 1169 306 2328 
Q 306 3491 806 4120 
Q 1306 4750 2228 4750 
Q 3147 4750 3647 4120 
Q 4147 3491 4147 2328 
z
" transform="scale(0.015625)"/>
     </defs>
     <use xlink:href="#DejaVuSans-Bold-31"/>
     <use xlink:href="#DejaVuSans-Bold-30" x="69.580078"/>
     <use xlink:href="#DejaVuSans-Bold-20" x="139.160156"/>
     <use xlink:href="#DejaVuSans-Bold-6d" x="173.974609"/>
     <use xlink:href="#DejaVuSans-Bold-69" x="278.173828"/>
     <use xlink:href="#DejaVuSans-Bold-6e" x="312.451172"/>
    </g>
   </g>
   <g id="patch_102">
    <path d="M 517.230875 35.28 
Q 492.035481 35.28 466.840087 35.28 
" style="fill: none; stroke: #000000; stroke-linecap: round"/>
    <path d="M 511.230875 30.78 
L 517.230875 35.28 
L 511.230875 39.78 
" style="fill: none; stroke: #000000; stroke-linecap: round"/>
    <path d="M 472.840087 39.78 
L 466.840087 35.28 
L 472.840087 30.78 
" style="fill: none; stroke: #000000; stroke-linecap: round"/>
   </g>
   <g id="text_14">
    <!-- D -->
    <g transform="translate(14.4 18.8901) scale(0.1728 -0.1728)">
     <defs>
      <path id="DejaVuSans-Bold-44" d="M 1791 3756 
L 1791 909 
L 2222 909 
Q 2959 909 3348 1275 
Q 3738 1641 3738 2338 
Q 3738 3031 3350 3393 
Q 2963 3756 2222 3756 
L 1791 3756 
z
M 588 4666 
L 1856 4666 
Q 2919 4666 3439 4514 
Q 3959 4363 4331 4000 
Q 4659 3684 4818 3271 
Q 4978 2859 4978 2338 
Q 4978 1809 4818 1395 
Q 4659 981 4331 666 
Q 3956 303 3431 151 
Q 2906 0 1856 0 
L 588 0 
L 588 4666 
z
" transform="scale(0.015625)"/>
     </defs>
     <use xlink:href="#DejaVuSans-Bold-44"/>
    </g>
   </g>
  </g>
  <g id="axes_2">
   <g id="patch_103">
    <path d="M 367.4625 244.8 
L 452.4 244.8 
L 452.4 28.8 
L 367.4625 28.8 
z
" clip-path="url(#pae81ce34eb)" style="fill: #a52a2a; opacity: 0.15"/>
   </g>
   <g id="matplotlib.axis_2">
    <g id="xtick_1">
     <g id="line2d_7">
      <defs>
       <path id="m018e70e915" d="M 0 0 
L 0 3.5 
" style="stroke: #000000; stroke-width: 0.8"/>
      </defs>
      <g>
       <use xlink:href="#m018e70e915" x="146.625" y="244.8" style="stroke: #000000; stroke-width: 0.8"/>
      </g>
     </g>
     <g id="text_15">
      <!-- $t_0-40$ min -->
      <g transform="translate(113.205 260.918125) scale(0.12 -0.12)">
       <defs>
        <path id="DejaVuSans-Oblique-74" d="M 2706 3500 
L 2619 3053 
L 1472 3053 
L 1100 1153 
Q 1081 1047 1072 975 
Q 1063 903 1063 863 
Q 1063 663 1183 572 
Q 1303 481 1569 481 
L 2150 481 
L 2053 0 
L 1503 0 
Q 991 0 739 200 
Q 488 400 488 806 
Q 488 878 497 964 
Q 506 1050 525 1153 
L 897 3053 
L 409 3053 
L 500 3500 
L 978 3500 
L 1172 4494 
L 1747 4494 
L 1556 3500 
L 2706 3500 
z
" transform="scale(0.015625)"/>
        <path id="DejaVuSans-2212" d="M 678 2272 
L 4684 2272 
L 4684 1741 
L 678 1741 
L 678 2272 
z
" transform="scale(0.015625)"/>
        <path id="DejaVuSans-34" d="M 2419 4116 
L 825 1625 
L 2419 1625 
L 2419 4116 
z
M 2253 4666 
L 3047 4666 
L 3047 1625 
L 3713 1625 
L 3713 1100 
L 3047 1100 
L 3047 0 
L 2419 0 
L 2419 1100 
L 313 1100 
L 313 1709 
L 2253 4666 
z
" transform="scale(0.015625)"/>
        <path id="DejaVuSans-6d" d="M 3328 2828 
Q 3544 3216 3844 3400 
Q 4144 3584 4550 3584 
Q 5097 3584 5394 3201 
Q 5691 2819 5691 2113 
L 5691 0 
L 5113 0 
L 5113 2094 
Q 5113 2597 4934 2840 
Q 4756 3084 4391 3084 
Q 3944 3084 3684 2787 
Q 3425 2491 3425 1978 
L 3425 0 
L 2847 0 
L 2847 2094 
Q 2847 2600 2669 2842 
Q 2491 3084 2119 3084 
Q 1678 3084 1418 2786 
Q 1159 2488 1159 1978 
L 1159 0 
L 581 0 
L 581 3500 
L 1159 3500 
L 1159 2956 
Q 1356 3278 1631 3431 
Q 1906 3584 2284 3584 
Q 2666 3584 2933 3390 
Q 3200 3197 3328 2828 
z
" transform="scale(0.015625)"/>
       </defs>
       <use xlink:href="#DejaVuSans-Oblique-74" transform="translate(0 0.015625)"/>
       <use xlink:href="#DejaVuSans-30" transform="translate(39.208984 -16.390625) scale(0.7)"/>
       <use xlink:href="#DejaVuSans-2212" transform="translate(105.961914 0.015625)"/>
       <use xlink:href="#DejaVuSans-34" transform="translate(209.233398 0.015625)"/>
       <use xlink:href="#DejaVuSans-30" transform="translate(272.856445 0.015625)"/>
       <use xlink:href="#DejaVuSans-20" transform="translate(336.479492 0.015625)"/>
       <use xlink:href="#DejaVuSans-6d" transform="translate(368.266602 0.015625)"/>
       <use xlink:href="#DejaVuSans-69" transform="translate(465.678711 0.015625)"/>
       <use xlink:href="#DejaVuSans-6e" transform="translate(493.461914 0.015625)"/>
      </g>
     </g>
    </g>
    <g id="xtick_2">
     <g id="line2d_8">
      <g>
       <use xlink:href="#m018e70e915" x="259.875" y="244.8" style="stroke: #000000; stroke-width: 0.8"/>
      </g>
     </g>
     <g id="text_16">
      <!-- $t_0-20$ min -->
      <g transform="translate(226.455 260.918125) scale(0.12 -0.12)">
       <use xlink:href="#DejaVuSans-Oblique-74" transform="translate(0 0.015625)"/>
       <use xlink:href="#DejaVuSans-30" transform="translate(39.208984 -16.390625) scale(0.7)"/>
       <use xlink:href="#DejaVuSans-2212" transform="translate(105.961914 0.015625)"/>
       <use xlink:href="#DejaVuSans-32" transform="translate(209.233398 0.015625)"/>
       <use xlink:href="#DejaVuSans-30" transform="translate(272.856445 0.015625)"/>
       <use xlink:href="#DejaVuSans-20" transform="translate(336.479492 0.015625)"/>
       <use xlink:href="#DejaVuSans-6d" transform="translate(368.266602 0.015625)"/>
       <use xlink:href="#DejaVuSans-69" transform="translate(465.678711 0.015625)"/>
       <use xlink:href="#DejaVuSans-6e" transform="translate(493.461914 0.015625)"/>
      </g>
     </g>
    </g>
    <g id="xtick_3">
     <g id="line2d_9">
      <g>
       <use xlink:href="#m018e70e915" x="373.125" y="244.8" style="stroke: #000000; stroke-width: 0.8"/>
      </g>
     </g>
     <g id="text_17">
      <!-- $t_0$ -->
      <g transform="translate(367.905 260.918125) scale(0.12 -0.12)">
       <use xlink:href="#DejaVuSans-Oblique-74" transform="translate(0 0.78125)"/>
       <use xlink:href="#DejaVuSans-30" transform="translate(39.208984 -15.625) scale(0.7)"/>
      </g>
     </g>
    </g>
    <g id="xtick_4">
     <g id="line2d_10">
      <g>
       <use xlink:href="#m018e70e915" x="486.375" y="244.8" style="stroke: #000000; stroke-width: 0.8"/>
      </g>
     </g>
     <g id="text_18">
      <!-- $t_0+20$ min -->
      <g transform="translate(452.955 260.918125) scale(0.12 -0.12)">
       <defs>
        <path id="DejaVuSans-2b" d="M 2944 4013 
L 2944 2272 
L 4684 2272 
L 4684 1741 
L 2944 1741 
L 2944 0 
L 2419 0 
L 2419 1741 
L 678 1741 
L 678 2272 
L 2419 2272 
L 2419 4013 
L 2944 4013 
z
" transform="scale(0.015625)"/>
       </defs>
       <use xlink:href="#DejaVuSans-Oblique-74" transform="translate(0 0.015625)"/>
       <use xlink:href="#DejaVuSans-30" transform="translate(39.208984 -16.390625) scale(0.7)"/>
       <use xlink:href="#DejaVuSans-2b" transform="translate(105.961914 0.015625)"/>
       <use xlink:href="#DejaVuSans-32" transform="translate(209.233398 0.015625)"/>
       <use xlink:href="#DejaVuSans-30" transform="translate(272.856445 0.015625)"/>
       <use xlink:href="#DejaVuSans-20" transform="translate(336.479492 0.015625)"/>
       <use xlink:href="#DejaVuSans-6d" transform="translate(368.266602 0.015625)"/>
       <use xlink:href="#DejaVuSans-69" transform="translate(465.678711 0.015625)"/>
       <use xlink:href="#DejaVuSans-6e" transform="translate(493.461914 0.015625)"/>
      </g>
     </g>
    </g>
    <g id="xtick_5">
     <g id="line2d_11">
      <g>
       <use xlink:href="#m018e70e915" x="599.625" y="244.8" style="stroke: #000000; stroke-width: 0.8"/>
      </g>
     </g>
     <g id="text_19">
      <!-- $t_0+40$ min -->
      <g transform="translate(566.205 260.918125) scale(0.12 -0.12)">
       <use xlink:href="#DejaVuSans-Oblique-74" transform="translate(0 0.015625)"/>
       <use xlink:href="#DejaVuSans-30" transform="translate(39.208984 -16.390625) scale(0.7)"/>
       <use xlink:href="#DejaVuSans-2b" transform="translate(105.961914 0.015625)"/>
       <use xlink:href="#DejaVuSans-34" transform="translate(209.233398 0.015625)"/>
       <use xlink:href="#DejaVuSans-30" transform="translate(272.856445 0.015625)"/>
       <use xlink:href="#DejaVuSans-20" transform="translate(336.479492 0.015625)"/>
       <use xlink:href="#DejaVuSans-6d" transform="translate(368.266602 0.015625)"/>
       <use xlink:href="#DejaVuSans-69" transform="translate(465.678711 0.015625)"/>
       <use xlink:href="#DejaVuSans-6e" transform="translate(493.461914 0.015625)"/>
      </g>
     </g>
    </g>
    <g id="text_20">
     <!-- Time -->
     <g transform="translate(347.119687 276.531875) scale(0.12 -0.12)">
      <defs>
       <path id="DejaVuSans-54" d="M -19 4666 
L 3928 4666 
L 3928 4134 
L 2272 4134 
L 2272 0 
L 1638 0 
L 1638 4134 
L -19 4134 
L -19 4666 
z
" transform="scale(0.015625)"/>
      </defs>
      <use xlink:href="#DejaVuSans-54"/>
      <use xlink:href="#DejaVuSans-69" x="57.958984"/>
      <use xlink:href="#DejaVuSans-6d" x="85.742188"/>
      <use xlink:href="#DejaVuSans-65" x="183.154297"/>
     </g>
    </g>
   </g>
   <g id="matplotlib.axis_3">
    <g id="ytick_6">
     <g id="line2d_12">
      <defs>
       <path id="m178596bb3a" d="M 0 0 
L -3.5 0 
" style="stroke: #000000; stroke-width: 0.8"/>
      </defs>
      <g>
       <use xlink:href="#m178596bb3a" x="90" y="217.8" style="stroke: #000000; stroke-width: 0.8"/>
      </g>
     </g>
     <g id="text_21">
      <!-- 0.2 -->
      <g transform="translate(53.860625 222.359062) scale(0.12 -0.12)">
       <defs>
        <path id="DejaVuSans-2e" d="M 684 794 
L 1344 794 
L 1344 0 
L 684 0 
L 684 794 
z
" transform="scale(0.015625)"/>
       </defs>
       <use xlink:href="#DejaVuSans-2212"/>
       <use xlink:href="#DejaVuSans-30" x="83.789062"/>
       <use xlink:href="#DejaVuSans-2e" x="147.412109"/>
       <use xlink:href="#DejaVuSans-32" x="179.199219"/>
      </g>
     </g>
    </g>
    <g id="ytick_7">
     <g id="line2d_13">
      <g>
       <use xlink:href="#m178596bb3a" x="90" y="163.8" style="stroke: #000000; stroke-width: 0.8"/>
      </g>
     </g>
     <g id="text_22">
      <!-- 0.0 -->
      <g transform="translate(63.91625 168.359062) scale(0.12 -0.12)">
       <use xlink:href="#DejaVuSans-30"/>
       <use xlink:href="#DejaVuSans-2e" x="63.623047"/>
       <use xlink:href="#DejaVuSans-30" x="95.410156"/>
      </g>
     </g>
    </g>
    <g id="ytick_8">
     <g id="line2d_14">
      <g>
       <use xlink:href="#m178596bb3a" x="90" y="109.8" style="stroke: #000000; stroke-width: 0.8"/>
      </g>
     </g>
     <g id="text_23">
      <!-- 0.2 -->
      <g transform="translate(63.91625 114.359063) scale(0.12 -0.12)">
       <use xlink:href="#DejaVuSans-30"/>
       <use xlink:href="#DejaVuSans-2e" x="63.623047"/>
       <use xlink:href="#DejaVuSans-32" x="95.410156"/>
      </g>
     </g>
    </g>
    <g id="ytick_9">
     <g id="line2d_15">
      <g>
       <use xlink:href="#m178596bb3a" x="90" y="55.8" style="stroke: #000000; stroke-width: 0.8"/>
      </g>
     </g>
     <g id="text_24">
      <!-- 0.4 -->
      <g transform="translate(63.91625 60.359063) scale(0.12 -0.12)">
       <use xlink:href="#DejaVuSans-30"/>
       <use xlink:href="#DejaVuSans-2e" x="63.623047"/>
       <use xlink:href="#DejaVuSans-34" x="95.410156"/>
      </g>
     </g>
    </g>
    <g id="text_25">
     <!-- ERK KTR translocation [a.u.] -->
     <g transform="translate(47.365 220.924688) rotate(-90) scale(0.12 -0.12)">
      <defs>
       <path id="DejaVuSans-45" d="M 628 4666 
L 3578 4666 
L 3578 4134 
L 1259 4134 
L 1259 2753 
L 3481 2753 
L 3481 2222 
L 1259 2222 
L 1259 531 
L 3634 531 
L 3634 0 
L 628 0 
L 628 4666 
z
" transform="scale(0.015625)"/>
       <path id="DejaVuSans-52" d="M 2841 2188 
Q 3044 2119 3236 1894 
Q 3428 1669 3622 1275 
L 4263 0 
L 3584 0 
L 2988 1197 
Q 2756 1666 2539 1819 
Q 2322 1972 1947 1972 
L 1259 1972 
L 1259 0 
L 628 0 
L 628 4666 
L 2053 4666 
Q 2853 4666 3247 4331 
Q 3641 3997 3641 3322 
Q 3641 2881 3436 2590 
Q 3231 2300 2841 2188 
z
M 1259 4147 
L 1259 2491 
L 2053 2491 
Q 2509 2491 2742 2702 
Q 2975 2913 2975 3322 
Q 2975 3731 2742 3939 
Q 2509 4147 2053 4147 
L 1259 4147 
z
" transform="scale(0.015625)"/>
       <path id="DejaVuSans-4b" d="M 628 4666 
L 1259 4666 
L 1259 2694 
L 3353 4666 
L 4166 4666 
L 1850 2491 
L 4331 0 
L 3500 0 
L 1259 2247 
L 1259 0 
L 628 0 
L 628 4666 
z
" transform="scale(0.015625)"/>
       <path id="DejaVuSans-72" d="M 2631 2963 
Q 2534 3019 2420 3045 
Q 2306 3072 2169 3072 
Q 1681 3072 1420 2755 
Q 1159 2438 1159 1844 
L 1159 0 
L 581 0 
L 581 3500 
L 1159 3500 
L 1159 2956 
Q 1341 3275 1631 3429 
Q 1922 3584 2338 3584 
Q 2397 3584 2469 3576 
Q 2541 3569 2628 3553 
L 2631 2963 
z
" transform="scale(0.015625)"/>
       <path id="DejaVuSans-61" d="M 2194 1759 
Q 1497 1759 1228 1600 
Q 959 1441 959 1056 
Q 959 750 1161 570 
Q 1363 391 1709 391 
Q 2188 391 2477 730 
Q 2766 1069 2766 1631 
L 2766 1759 
L 2194 1759 
z
M 3341 1997 
L 3341 0 
L 2766 0 
L 2766 531 
Q 2569 213 2275 61 
Q 1981 -91 1556 -91 
Q 1019 -91 701 211 
Q 384 513 384 1019 
Q 384 1609 779 1909 
Q 1175 2209 1959 2209 
L 2766 2209 
L 2766 2266 
Q 2766 2663 2505 2880 
Q 2244 3097 1772 3097 
Q 1472 3097 1187 3025 
Q 903 2953 641 2809 
L 641 3341 
Q 956 3463 1253 3523 
Q 1550 3584 1831 3584 
Q 2591 3584 2966 3190 
Q 3341 2797 3341 1997 
z
" transform="scale(0.015625)"/>
      </defs>
      <use xlink:href="#DejaVuSans-45"/>
      <use xlink:href="#DejaVuSans-52" x="63.183594"/>
      <use xlink:href="#DejaVuSans-4b" x="132.666016"/>
      <use xlink:href="#DejaVuSans-20" x="198.242188"/>
      <use xlink:href="#DejaVuSans-4b" x="230.029297"/>
      <use xlink:href="#DejaVuSans-54" x="287.855469"/>
      <use xlink:href="#DejaVuSans-52" x="348.939453"/>
      <use xlink:href="#DejaVuSans-20" x="418.421875"/>
      <use xlink:href="#DejaVuSans-74" x="450.208984"/>
      <use xlink:href="#DejaVuSans-72" x="489.417969"/>
      <use xlink:href="#DejaVuSans-61" x="530.53125"/>
      <use xlink:href="#DejaVuSans-6e" x="591.810547"/>
      <use xlink:href="#DejaVuSans-73" x="655.189453"/>
      <use xlink:href="#DejaVuSans-6c" x="707.289062"/>
      <use xlink:href="#DejaVuSans-6f" x="735.072266"/>
      <use xlink:href="#DejaVuSans-63" x="796.253906"/>
      <use xlink:href="#DejaVuSans-61" x="851.234375"/>
      <use xlink:href="#DejaVuSans-74" x="912.513672"/>
      <use xlink:href="#DejaVuSans-69" x="951.722656"/>
      <use xlink:href="#DejaVuSans-6f" x="979.505859"/>
      <use xlink:href="#DejaVuSans-6e" x="1040.6875"/>
      <use xlink:href="#DejaVuSans-20" x="1104.066406"/>
      <use xlink:href="#DejaVuSans-5b" x="1135.853516"/>
      <use xlink:href="#DejaVuSans-61" x="1174.867188"/>
      <use xlink:href="#DejaVuSans-2e" x="1236.146484"/>
      <use xlink:href="#DejaVuSans-75" x="1267.933594"/>
      <use xlink:href="#DejaVuSans-2e" x="1331.3125"/>
      <use xlink:href="#DejaVuSans-5d" x="1363.099609"/>
     </g>
    </g>
   </g>
   <g id="line2d_16">
    <path d="M 90 193.865969 
L 95.6625 195.909759 
L 101.325 193.850858 
L 106.9875 195.828269 
L 112.65 186.254785 
L 118.3125 167.733003 
L 123.975 153.637632 
L 129.6375 144.452907 
L 135.3 139.058247 
L 140.9625 139.282669 
L 146.625 140.080526 
L 152.2875 142.078092 
L 157.95 145.891015 
L 163.6125 152.582256 
L 169.275 160.088317 
L 174.9375 167.971464 
L 180.6 173.548102 
L 186.2625 176.658225 
L 191.925 179.680602 
L 197.5875 182.464713 
L 203.25 186.289744 
L 208.9125 187.151563 
L 214.575 188.824815 
L 220.2375 189.226447 
L 225.9 190.018196 
L 231.5625 189.798616 
L 237.225 189.707498 
L 242.8875 191.723208 
L 248.55 189.488812 
L 254.2125 190.911043 
L 259.875 190.885242 
L 265.5375 194.358692 
L 271.2 195.189404 
L 276.8625 194.550527 
L 282.525 196.497108 
L 288.1875 196.850764 
L 293.85 194.815623 
L 299.5125 195.348467 
L 305.175 195.209751 
L 310.8375 195.378113 
L 316.5 197.204014 
L 322.1625 196.46984 
L 327.825 196.687677 
L 333.4875 196.804438 
L 339.15 196.129631 
L 344.8125 195.676698 
L 350.475 198.507302 
L 356.1375 197.607239 
L 361.8 196.075413 
L 367.4625 196.098413 
L 373.125 196.297884 
L 378.7875 196.434489 
L 384.45 185.484865 
L 390.1125 164.707977 
L 395.775 150.514909 
L 401.4375 141.770895 
L 407.1 135.26905 
L 412.7625 133.310525 
L 418.425 133.860882 
L 424.0875 134.339251 
L 429.75 137.918246 
L 435.4125 141.152494 
L 441.075 147.892988 
L 446.7375 156.143357 
L 452.4 160.401892 
L 458.0625 165.647006 
L 463.725 170.135435 
L 469.3875 173.255099 
L 475.05 172.110931 
L 480.7125 161.546787 
L 486.375 147.55671 
L 492.0375 138.759683 
L 497.7 133.758169 
L 503.3625 132.086998 
L 509.025 132.20843 
L 514.6875 135.330414 
L 520.35 138.894125 
L 526.0125 144.500538 
L 531.675 150.524991 
L 537.3375 150.0921 
L 543 144.069474 
L 548.6625 139.268374 
L 554.325 136.407701 
L 559.9875 136.097705 
L 565.65 138.813921 
L 571.3125 144.700316 
L 576.975 151.643889 
L 582.6375 157.658372 
L 588.3 162.800741 
L 593.9625 167.399412 
L 599.625 170.716317 
L 605.2875 175.004728 
L 610.95 177.61169 
L 616.6125 179.761578 
L 622.275 182.942756 
L 627.9375 184.127548 
L 633.6 184.059906 
" clip-path="url(#pae81ce34eb)" style="fill: none; stroke: #1f77b4; stroke-width: 1.5; stroke-linecap: square"/>
   </g>
   <g id="line2d_17">
    <path d="M 90 191.016488 
L 95.6625 189.157465 
L 101.325 191.848886 
L 106.9875 191.565457 
L 112.65 181.469861 
L 118.3125 160.170996 
L 123.975 149.406958 
L 129.6375 144.132532 
L 135.3 139.992411 
L 140.9625 137.753998 
L 146.625 139.073445 
L 152.2875 142.532218 
L 157.95 148.789431 
L 163.6125 154.849566 
L 169.275 161.054198 
L 174.9375 165.114486 
L 180.6 169.609786 
L 186.2625 172.973118 
L 191.925 175.536226 
L 197.5875 177.610343 
L 203.25 179.681737 
L 208.9125 180.506682 
L 214.575 182.861043 
L 220.2375 181.912953 
L 225.9 183.176192 
L 231.5625 184.968355 
L 237.225 186.577225 
L 242.8875 186.963482 
L 248.55 185.21999 
L 254.2125 186.132092 
L 259.875 187.234844 
L 265.5375 189.660881 
L 271.2 188.521273 
L 276.8625 191.775043 
L 282.525 191.292292 
L 288.1875 190.508574 
L 293.85 189.80357 
L 299.5125 190.831283 
L 305.175 191.999737 
L 310.8375 191.263976 
L 316.5 191.532138 
L 322.1625 193.978933 
L 327.825 192.612594 
L 333.4875 192.792602 
L 339.15 195.34113 
L 344.8125 194.706 
L 350.475 194.07677 
L 356.1375 192.536904 
L 361.8 192.98038 
L 367.4625 191.848552 
L 373.125 193.00333 
L 378.7875 192.676348 
L 384.45 177.623769 
L 390.1125 156.972817 
L 395.775 145.0266 
L 401.4375 137.512677 
L 407.1 134.372439 
L 412.7625 134.78187 
L 418.425 133.97696 
L 424.0875 136.297901 
L 429.75 142.287928 
L 435.4125 146.650137 
L 441.075 152.647122 
L 446.7375 158.323046 
L 452.4 164.488794 
L 458.0625 168.61718 
L 463.725 170.466595 
L 469.3875 175.00133 
L 475.05 169.460718 
L 480.7125 154.025129 
L 486.375 143.512741 
L 492.0375 138.839325 
L 497.7 135.831325 
L 503.3625 134.38705 
L 509.025 133.854246 
L 514.6875 137.701719 
L 520.35 142.958578 
L 526.0125 149.949968 
L 531.675 153.929678 
L 537.3375 144.106764 
L 543 138.369105 
L 548.6625 137.247441 
L 554.325 134.597404 
L 559.9875 136.96761 
L 565.65 143.028245 
L 571.3125 148.043667 
L 576.975 154.252063 
L 582.6375 161.332763 
L 588.3 166.469857 
L 593.9625 168.698758 
L 599.625 171.450126 
L 605.2875 172.219509 
L 610.95 173.245818 
L 616.6125 173.140569 
L 622.275 177.434554 
L 627.9375 179.475155 
L 633.6 181.807489 
" clip-path="url(#pae81ce34eb)" style="fill: none; stroke: #1f77b4; stroke-opacity: 0.3; stroke-width: 1.5; stroke-linecap: square"/>
   </g>
   <g id="line2d_18">
    <path d="M 90 183.437635 
L 95.6625 182.555862 
L 101.325 184.467973 
L 106.9875 187.46017 
L 112.65 180.258214 
L 118.3125 165.809629 
L 123.975 154.389785 
L 129.6375 145.99188 
L 135.3 141.661708 
L 140.9625 141.111754 
L 146.625 138.867368 
L 152.2875 142.825416 
L 157.95 146.91425 
L 163.6125 152.240096 
L 169.275 154.857348 
L 174.9375 158.413763 
L 180.6 163.692157 
L 186.2625 165.046777 
L 191.925 168.840258 
L 197.5875 170.106691 
L 203.25 171.760396 
L 208.9125 172.858762 
L 214.575 172.061257 
L 220.2375 173.889359 
L 225.9 176.190818 
L 231.5625 177.534568 
L 237.225 176.127647 
L 242.8875 175.715904 
L 248.55 176.936165 
L 254.2125 177.735254 
L 259.875 179.699364 
L 265.5375 180.009782 
L 271.2 179.344242 
L 276.8625 181.038065 
L 282.525 179.98258 
L 288.1875 179.181014 
L 293.85 178.323009 
L 299.5125 178.33558 
L 305.175 178.118835 
L 310.8375 180.126824 
L 316.5 179.238531 
L 322.1625 181.150933 
L 327.825 180.484646 
L 333.4875 181.304354 
L 339.15 179.9305 
L 344.8125 179.024463 
L 350.475 178.121208 
L 356.1375 177.225671 
L 361.8 175.571942 
L 367.4625 177.233833 
L 373.125 176.673275 
L 378.7875 179.100882 
L 384.45 168.782328 
L 390.1125 152.112339 
L 395.775 139.682714 
L 401.4375 133.048804 
L 407.1 129.965563 
L 412.7625 127.224521 
L 418.425 126.752131 
L 424.0875 130.244221 
L 429.75 134.114956 
L 435.4125 140.088669 
L 441.075 145.19642 
L 446.7375 150.812419 
L 452.4 154.797968 
L 458.0625 158.585269 
L 463.725 162.964671 
L 469.3875 162.436992 
L 475.05 162.099355 
L 480.7125 149.684688 
L 486.375 139.258827 
L 492.0375 135.544585 
L 497.7 133.861006 
L 503.3625 132.072828 
L 509.025 134.878961 
L 514.6875 139.826592 
L 520.35 146.303092 
L 526.0125 150.593342 
L 531.675 153.976523 
L 537.3375 147.152429 
L 543 139.331348 
L 548.6625 134.020521 
L 554.325 132.858931 
L 559.9875 134.600151 
L 565.65 138.741859 
L 571.3125 142.619721 
L 576.975 147.356911 
L 582.6375 153.203408 
L 588.3 156.771729 
L 593.9625 161.286978 
L 599.625 162.399894 
L 605.2875 163.427296 
L 610.95 165.036116 
L 616.6125 166.083795 
L 622.275 168.949668 
L 627.9375 171.974497 
L 633.6 173.140413 
" clip-path="url(#pae81ce34eb)" style="fill: none; stroke: #ff7f0e; stroke-opacity: 0.3; stroke-width: 1.5; stroke-linecap: square"/>
   </g>
   <g id="line2d_19">
    <path d="M 135.3 163.8 
L 140.9625 159.467883 
L 146.625 162.652831 
L 152.2875 163.864157 
L 157.95 168.877834 
L 163.6125 174.787871 
L 169.275 180.77212 
L 174.9375 186.370423 
L 180.6 191.459111 
L 186.2625 193.843577 
L 191.925 194.861255 
L 197.5875 195.494569 
L 203.25 194.259067 
L 208.9125 194.28187 
L 214.575 192.188281 
L 220.2375 186.994805 
L 225.9 178.732669 
L 231.5625 168.645954 
L 237.225 158.660856 
L 242.8875 152.073256 
L 248.55 144.09792 
L 254.2125 141.651484 
L 259.875 141.661523 
L 265.5375 142.985358 
L 271.2 141.95238 
L 276.8625 142.574719 
L 282.525 145.290939 
L 288.1875 148.442824 
L 293.85 149.04035 
L 299.5125 152.518886 
L 305.175 157.282132 
L 310.8375 158.030635 
L 316.5 159.08893 
L 322.1625 159.95228 
L 327.825 159.010142 
L 333.4875 159.358135 
L 339.15 159.75836 
L 344.8125 158.870876 
L 350.475 156.902602 
L 356.1375 157.738718 
L 361.8 159.078655 
L 367.4625 159.356056 
L 373.125 159.150775 
L 378.7875 167.870476 
L 384.45 162.09618 
L 390.1125 150.828923 
L 395.775 142.846763 
L 401.4375 139.705878 
L 407.1 136.409348 
L 412.7625 136.172658 
L 418.425 138.465171 
L 424.0875 142.099583 
L 429.75 149.187325 
L 435.4125 158.748834 
L 441.075 167.133723 
L 446.7375 173.566939 
L 452.4 180.848024 
L 458.0625 187.379314 
L 463.725 192.079704 
L 469.3875 195.937235 
L 475.05 195.112265 
L 480.7125 183.141867 
L 486.375 168.071884 
L 492.0375 156.704714 
L 497.7 150.32137 
L 503.3625 144.691626 
L 509.025 143.678973 
L 514.6875 147.104298 
L 520.35 154.345827 
L 526.0125 162.837121 
L 531.675 165.117053 
L 537.3375 159.309278 
L 543 148.934309 
L 548.6625 144.684879 
L 554.325 144.160752 
L 559.9875 146.334268 
L 565.65 149.453319 
L 571.3125 156.014021 
L 576.975 164.164947 
L 582.6375 174.468668 
L 588.3 179.205433 
L 593.9625 187.022473 
L 599.625 188.25585 
L 605.2875 193.022702 
L 610.95 195.35074 
L 616.6125 198.420095 
L 622.275 198.799459 
L 627.9375 200.051464 
L 633.6 201.049109 
" clip-path="url(#pae81ce34eb)" style="fill: none; stroke: #2ca02c; stroke-opacity: 0.3; stroke-width: 1.5; stroke-linecap: square"/>
   </g>
   <g id="line2d_20">
    <path d="M 90 185.408426 
L 95.6625 185.646934 
L 101.325 184.953645 
L 106.9875 187.026059 
L 112.65 178.281739 
L 118.3125 156.183722 
L 123.975 143.176802 
L 129.6375 137.394662 
L 135.3 135.107894 
L 140.9625 134.582439 
L 146.625 133.694661 
L 152.2875 135.766688 
L 157.95 141.687766 
L 163.6125 148.324592 
L 169.275 154.232223 
L 174.9375 161.070076 
L 180.6 166.344604 
L 186.2625 169.775632 
L 191.925 172.780625 
L 197.5875 172.782855 
L 203.25 174.401849 
L 208.9125 175.709771 
L 214.575 179.541552 
L 220.2375 179.689063 
L 225.9 181.496682 
L 231.5625 180.937244 
L 237.225 181.558928 
L 242.8875 183.408284 
L 248.55 183.031436 
L 254.2125 184.353469 
L 259.875 185.115394 
L 265.5375 187.342897 
L 271.2 188.742247 
L 276.8625 188.638807 
L 282.525 189.512407 
L 288.1875 189.022851 
L 293.85 189.425 
L 299.5125 189.173682 
L 305.175 190.028116 
L 310.8375 186.925915 
L 316.5 189.69359 
L 322.1625 191.192664 
L 327.825 191.74766 
L 333.4875 192.444566 
L 339.15 193.52127 
L 344.8125 194.16483 
L 350.475 193.389681 
L 356.1375 194.423445 
L 361.8 193.122176 
L 367.4625 195.239741 
L 373.125 193.683726 
L 378.7875 190.496308 
L 384.45 175.43779 
L 390.1125 153.366658 
L 395.775 140.884076 
L 401.4375 133.71448 
L 407.1 129.370021 
L 412.7625 128.799961 
L 418.425 129.029243 
L 424.0875 131.977616 
L 429.75 138.277571 
L 435.4125 144.987024 
L 441.075 151.768317 
L 446.7375 159.250909 
L 452.4 166.166162 
L 458.0625 169.994667 
L 463.725 173.600882 
L 469.3875 173.800229 
L 475.05 173.557134 
L 480.7125 160.930597 
L 486.375 147.633363 
L 492.0375 139.712818 
L 497.7 136.559748 
L 503.3625 135.248849 
L 509.025 135.725645 
L 514.6875 138.084259 
L 520.35 144.248912 
L 526.0125 153.543589 
L 531.675 159.929346 
L 537.3375 156.519057 
L 543 148.176048 
L 548.6625 144.329768 
L 554.325 142.82847 
L 559.9875 143.724807 
L 565.65 146.213316 
L 571.3125 153.724813 
L 576.975 160.426493 
L 582.6375 168.175411 
L 588.3 174.876077 
L 593.9625 177.943292 
L 599.625 178.644069 
L 605.2875 180.54178 
L 610.95 183.050082 
L 616.6125 184.117726 
L 622.275 185.125986 
L 627.9375 187.369475 
L 633.6 188.629924 
" clip-path="url(#pae81ce34eb)" style="fill: none; stroke: #d62728; stroke-opacity: 0.3; stroke-width: 1.5; stroke-linecap: square"/>
   </g>
   <g id="line2d_21">
    <path d="M 90 155.987326 
L 95.6625 157.17425 
L 101.325 154.090426 
L 106.9875 163.012428 
L 112.65 157.70357 
L 118.3125 150.300334 
L 123.975 145.217499 
L 129.6375 141.829356 
L 135.3 143.226822 
L 140.9625 141.5147 
L 146.625 140.640081 
L 152.2875 141.779632 
L 157.95 145.006262 
L 163.6125 151.299719 
L 169.275 156.472867 
L 174.9375 164.88276 
L 180.6 167.7656 
L 186.2625 174.179357 
L 191.925 177.987714 
L 197.5875 181.506423 
L 203.25 183.600203 
L 208.9125 187.116882 
L 214.575 187.296671 
L 220.2375 185.767315 
L 225.9 180.417997 
L 231.5625 178.432176 
L 237.225 174.230959 
L 242.8875 167.106546 
L 248.55 161.840734 
L 254.2125 163.49306 
L 259.875 161.07419 
L 265.5375 159.123619 
L 271.2 160.522543 
L 276.8625 163.110067 
L 282.525 162.094097 
L 288.1875 163.124652 
L 293.85 164.249683 
L 299.5125 167.987301 
L 305.175 166.956698 
L 310.8375 166.066532 
L 316.5 164.42204 
L 322.1625 164.206407 
L 327.825 162.382291 
L 333.4875 162.413566 
L 339.15 164.162084 
L 344.8125 163.397105 
L 350.475 162.517076 
L 356.1375 163.885048 
L 361.8 164.755707 
L 367.4625 167.016344 
L 373.125 164.553876 
L 378.7875 169.0279 
L 384.45 162.828823 
L 390.1125 153.324956 
L 395.775 148.068536 
L 401.4375 144.104389 
L 407.1 143.337964 
L 412.7625 139.813713 
L 418.425 142.4022 
L 424.0875 147.55789 
L 429.75 149.267663 
L 435.4125 152.677119 
L 441.075 156.240526 
L 446.7375 159.96602 
L 452.4 163.436783 
L 458.0625 165.304975 
L 463.725 169.071551 
L 469.3875 173.823933 
L 475.05 174.892411 
L 480.7125 165.719152 
L 486.375 158.910684 
L 492.0375 152.641939 
L 497.7 148.815286 
L 503.3625 146.922302 
L 509.025 149.651937 
L 514.6875 153.679108 
L 520.35 156.717256 
L 526.0125 163.222324 
L 531.675 166.029723 
L 537.3375 163.168266 
L 543 154.960282 
L 548.6625 155.141585 
L 554.325 153.098902 
L 559.9875 155.072099 
L 565.65 158.935631 
L 571.3125 161.606951 
L 576.975 166.057038 
L 582.6375 169.272271 
L 588.3 173.688975 
L 593.9625 177.091634 
L 599.625 178.96233 
L 605.2875 179.412082 
L 610.95 181.733188 
L 616.6125 181.375554 
L 622.275 181.261088 
L 627.9375 181.102746 
L 633.6 179.393977 
" clip-path="url(#pae81ce34eb)" style="fill: none; stroke: #9467bd; stroke-opacity: 0.3; stroke-width: 1.5; stroke-linecap: square"/>
   </g>
   <g id="line2d_22">
    <path d="M 90 181.381869 
L 95.6625 182.489263 
L 101.325 182.73223 
L 106.9875 183.362555 
L 112.65 173.333025 
L 118.3125 154.371646 
L 123.975 142.791705 
L 129.6375 135.961472 
L 135.3 131.344127 
L 140.9625 131.842765 
L 146.625 135.427569 
L 152.2875 143.283709 
L 157.95 153.119566 
L 163.6125 157.491995 
L 169.275 163.977138 
L 174.9375 166.879978 
L 180.6 170.534904 
L 186.2625 173.446521 
L 191.925 177.296956 
L 197.5875 178.713926 
L 203.25 178.213464 
L 208.9125 179.977259 
L 214.575 180.233075 
L 220.2375 181.226194 
L 225.9 179.132621 
L 231.5625 181.918346 
L 237.225 183.255841 
L 242.8875 181.962403 
L 248.55 182.141844 
L 254.2125 182.679482 
L 259.875 182.780434 
L 265.5375 184.045424 
L 271.2 184.136165 
L 276.8625 186.971021 
L 282.525 186.842544 
L 288.1875 188.230551 
L 293.85 189.289228 
L 299.5125 188.171549 
L 305.175 190.355511 
L 310.8375 187.136053 
L 316.5 185.894979 
L 322.1625 188.071756 
L 327.825 188.469764 
L 333.4875 187.513492 
L 339.15 186.904966 
L 344.8125 187.47222 
L 350.475 189.86896 
L 356.1375 189.112291 
L 361.8 186.407528 
L 367.4625 187.569188 
L 373.125 188.895492 
L 378.7875 187.484158 
L 384.45 176.161287 
L 390.1125 155.715377 
L 395.775 142.936179 
L 401.4375 135.562809 
L 407.1 130.302033 
L 412.7625 129.907077 
L 418.425 132.679666 
L 424.0875 134.583949 
L 429.75 138.896629 
L 435.4125 146.39228 
L 441.075 152.492822 
L 446.7375 157.727247 
L 452.4 162.581084 
L 458.0625 164.76534 
L 463.725 167.632124 
L 469.3875 167.834659 
L 475.05 169.05365 
L 480.7125 154.337089 
L 486.375 143.975049 
L 492.0375 138.407294 
L 497.7 134.954866 
L 503.3625 134.380633 
L 509.025 138.020856 
L 514.6875 143.87113 
L 520.35 150.987679 
L 526.0125 156.85076 
L 531.675 161.313956 
L 537.3375 157.852669 
L 543 150.116067 
L 548.6625 145.388174 
L 554.325 143.22305 
L 559.9875 143.06657 
L 565.65 147.363221 
L 571.3125 151.807828 
L 576.975 158.91122 
L 582.6375 163.376703 
L 588.3 168.788763 
L 593.9625 172.45075 
L 599.625 174.342987 
L 605.2875 175.574841 
L 610.95 177.430808 
L 616.6125 178.872151 
L 622.275 179.161191 
L 627.9375 178.711862 
L 633.6 179.150006 
" clip-path="url(#pae81ce34eb)" style="fill: none; stroke: #8c564b; stroke-opacity: 0.3; stroke-width: 1.5; stroke-linecap: square"/>
   </g>
   <g id="line2d_23">
    <path d="M 90 187.31341 
L 95.6625 187.245138 
L 101.325 189.215565 
L 106.9875 189.411958 
L 112.65 178.901056 
L 118.3125 156.881183 
L 123.975 143.092493 
L 129.6375 136.524174 
L 135.3 134.94537 
L 140.9625 134.042211 
L 146.625 136.879602 
L 152.2875 138.993751 
L 157.95 144.286998 
L 163.6125 151.855221 
L 169.275 158.362565 
L 174.9375 163.974593 
L 180.6 167.695912 
L 186.2625 170.606939 
L 191.925 173.856949 
L 197.5875 173.988278 
L 203.25 175.001653 
L 208.9125 177.447664 
L 214.575 178.43969 
L 220.2375 179.632972 
L 225.9 181.571941 
L 231.5625 180.767054 
L 237.225 181.441706 
L 242.8875 181.77364 
L 248.55 182.462548 
L 254.2125 183.305707 
L 259.875 182.875433 
L 265.5375 183.487756 
L 271.2 182.981641 
L 276.8625 184.600948 
L 282.525 185.172369 
L 288.1875 185.978163 
L 293.85 187.133463 
L 299.5125 187.804768 
L 305.175 188.206787 
L 310.8375 189.910524 
L 316.5 190.466205 
L 322.1625 189.429523 
L 327.825 190.079175 
L 333.4875 192.389144 
L 339.15 192.824075 
L 344.8125 190.713884 
L 350.475 190.764383 
L 356.1375 191.358775 
L 361.8 190.420919 
L 367.4625 193.340052 
L 373.125 191.211509 
L 378.7875 189.581754 
L 384.45 175.451823 
L 390.1125 149.535749 
L 395.775 135.278403 
L 401.4375 131.720481 
L 407.1 128.339767 
L 412.7625 126.844381 
L 418.425 129.060704 
L 424.0875 131.96786 
L 429.75 136.573152 
L 435.4125 143.806106 
L 441.075 149.742377 
L 446.7375 155.786919 
L 452.4 160.176631 
L 458.0625 164.980286 
L 463.725 167.2953 
L 469.3875 173.374171 
L 475.05 169.238069 
L 480.7125 150.231125 
L 486.375 135.070784 
L 492.0375 130.696348 
L 497.7 129.191674 
L 503.3625 131.418184 
L 509.025 133.144478 
L 514.6875 136.919997 
L 520.35 143.571074 
L 526.0125 147.786805 
L 531.675 151.010045 
L 537.3375 147.15626 
L 543 141.130426 
L 548.6625 137.567308 
L 554.325 140.608262 
L 559.9875 144.557879 
L 565.65 150.190109 
L 571.3125 157.621231 
L 576.975 163.737773 
L 582.6375 167.034445 
L 588.3 169.569224 
L 593.9625 172.000369 
L 599.625 173.305546 
L 605.2875 173.991464 
L 610.95 176.479175 
L 616.6125 176.246113 
L 622.275 177.977062 
L 627.9375 178.694298 
L 633.6 180.199723 
" clip-path="url(#pae81ce34eb)" style="fill: none; stroke: #e377c2; stroke-opacity: 0.3; stroke-width: 1.5; stroke-linecap: square"/>
   </g>
   <g id="line2d_24">
    <path d="M 90 203.374058 
L 95.6625 203.204209 
L 101.325 204.264268 
L 106.9875 208.413464 
L 112.65 201.119016 
L 118.3125 187.55077 
L 123.975 159.013494 
L 129.6375 138.822649 
L 135.3 129.015737 
L 140.9625 123.408853 
L 146.625 124.322063 
L 152.2875 126.615919 
L 157.95 130.361776 
L 163.6125 138.473884 
L 169.275 141.591678 
L 174.9375 147.189109 
L 180.6 151.308212 
L 186.2625 157.534835 
L 191.925 158.510647 
L 197.5875 165.925045 
L 203.25 171.204543 
L 208.9125 175.64706 
L 214.575 178.390324 
L 220.2375 185.451812 
L 225.9 187.583067 
L 231.5625 189.175525 
L 237.225 191.854886 
L 242.8875 194.543464 
L 248.55 197.550204 
L 254.2125 200.508146 
L 259.875 204.114566 
L 265.5375 208.024883 
L 271.2 210.030524 
L 276.8625 207.709657 
L 282.525 207.697928 
L 288.1875 207.824436 
L 293.85 206.365746 
L 299.5125 205.150595 
L 305.175 208.132314 
L 310.8375 208.814408 
L 316.5 206.55194 
L 322.1625 202.143757 
L 327.825 205.119126 
L 333.4875 210.040113 
L 339.15 214.558592 
L 344.8125 216.617884 
L 350.475 217.340088 
L 356.1375 224.858757 
L 361.8 222.595715 
L 367.4625 220.070043 
L 373.125 219.87676 
L 378.7875 215.91999 
L 384.45 204.824369 
L 390.1125 180.217997 
L 395.775 149.278378 
L 401.4375 130.671395 
L 407.1 121.609365 
L 412.7625 118.144443 
L 418.425 117.386814 
L 424.0875 117.514053 
L 429.75 119.684598 
L 435.4125 123.99807 
L 441.075 127.465674 
L 446.7375 131.566857 
L 452.4 134.565794 
L 458.0625 138.712849 
L 463.725 143.517177 
L 469.3875 147.927343 
L 475.05 148.451393 
L 480.7125 148.31202 
L 486.375 140.121341 
L 492.0375 133.481969 
L 497.7 128.268371 
L 503.3625 126.263646 
L 509.025 126.238528 
L 514.6875 127.710719 
L 520.35 127.860008 
L 526.0125 130.973987 
L 531.675 133.26355 
L 537.3375 138.365383 
L 543 137.171673 
L 548.6625 136.326014 
L 554.325 136.125967 
L 559.9875 132.902948 
L 565.65 134.247141 
L 571.3125 137.199465 
L 576.975 138.179627 
L 582.6375 141.838474 
L 588.3 144.162654 
L 593.9625 147.211316 
L 599.625 150.6471 
L 605.2875 155.031741 
L 610.95 159.164593 
L 616.6125 161.779733 
L 622.275 163.755021 
L 627.9375 166.32624 
L 633.6 171.347204 
" clip-path="url(#pae81ce34eb)" style="fill: none; stroke: #800000; stroke-opacity: 0.3; stroke-width: 1.5; stroke-linecap: square"/>
   </g>
   <g id="line2d_25">
    <path d="M 90 187.655444 
L 95.6625 188.429843 
L 101.325 189.274404 
L 106.9875 189.948296 
L 112.65 180.985048 
L 118.3125 159.064472 
L 123.975 142.576144 
L 129.6375 133.160909 
L 135.3 129.546773 
L 140.9625 127.305371 
L 146.625 128.011653 
L 152.2875 132.706984 
L 157.95 139.671895 
L 163.6125 147.602449 
L 169.275 155.625592 
L 174.9375 160.745167 
L 180.6 165.27894 
L 186.2625 168.429595 
L 191.925 171.472185 
L 197.5875 174.058625 
L 203.25 176.023296 
L 208.9125 176.205268 
L 214.575 178.31511 
L 220.2375 178.998983 
L 225.9 179.801029 
L 231.5625 180.854284 
L 237.225 181.417794 
L 242.8875 182.161966 
L 248.55 182.585756 
L 254.2125 182.527622 
L 259.875 183.407246 
L 265.5375 185.412459 
L 271.2 185.250158 
L 276.8625 186.254303 
L 282.525 187.098359 
L 288.1875 187.049983 
L 293.85 186.659195 
L 299.5125 186.531835 
L 305.175 186.540111 
L 310.8375 187.625909 
L 316.5 188.390839 
L 322.1625 188.339745 
L 327.825 188.330899 
L 333.4875 188.368947 
L 339.15 189.131562 
L 344.8125 190.297537 
L 350.475 188.252165 
L 356.1375 187.317139 
L 361.8 186.661057 
L 367.4625 184.866101 
L 373.125 183.125832 
L 378.7875 181.640577 
L 384.45 171.338361 
L 390.1125 147.832508 
L 395.775 131.492546 
L 401.4375 123.547416 
L 407.1 118.765523 
L 412.7625 117.927397 
L 418.425 119.190159 
L 424.0875 122.119313 
L 429.75 128.173364 
L 435.4125 135.828868 
L 441.075 143.619059 
L 446.7375 150.440687 
L 452.4 156.7658 
L 458.0625 161.275917 
L 463.725 165.998917 
L 469.3875 166.966578 
L 475.05 166.78966 
L 480.7125 158.884031 
L 486.375 142.853946 
L 492.0375 133.135572 
L 497.7 127.008038 
L 503.3625 125.535871 
L 509.025 127.825154 
L 514.6875 132.495228 
L 520.35 139.300763 
L 526.0125 144.502638 
L 531.675 150.695048 
L 537.3375 148.844641 
L 543 141.077959 
L 548.6625 133.67355 
L 554.325 130.316125 
L 559.9875 131.56416 
L 565.65 134.970658 
L 571.3125 140.293275 
L 576.975 146.178278 
L 582.6375 152.26966 
L 588.3 158.320131 
L 593.9625 162.552409 
L 599.625 166.119819 
L 605.2875 169.229068 
L 610.95 171.137539 
L 616.6125 172.265133 
L 622.275 174.180974 
L 627.9375 174.901857 
L 633.6 177.294551 
" clip-path="url(#pae81ce34eb)" style="fill: none; stroke: #bcbd22; stroke-opacity: 0.3; stroke-width: 1.5; stroke-linecap: square"/>
   </g>
   <g id="line2d_26">
    <path d="M 90 184.498853 
L 95.6625 180.539151 
L 101.325 180.945282 
L 106.9875 183.964972 
L 112.65 175.262697 
L 118.3125 155.489388 
L 123.975 143.815357 
L 129.6375 138.756615 
L 135.3 136.149877 
L 140.9625 136.227556 
L 146.625 137.407053 
L 152.2875 141.749967 
L 157.95 146.489174 
L 163.6125 154.966893 
L 169.275 160.592136 
L 174.9375 167.371807 
L 180.6 172.754532 
L 186.2625 176.000698 
L 191.925 178.729431 
L 197.5875 180.509747 
L 203.25 184.203038 
L 208.9125 186.140406 
L 214.575 185.741019 
L 220.2375 186.71463 
L 225.9 189.265266 
L 231.5625 189.06478 
L 237.225 190.477625 
L 242.8875 189.562962 
L 248.55 190.118521 
L 254.2125 190.824636 
L 259.875 189.256127 
L 265.5375 185.510187 
L 271.2 182.720561 
L 276.8625 180.687689 
L 282.525 181.401641 
L 288.1875 183.140684 
L 293.85 187.84684 
L 299.5125 191.925534 
L 305.175 195.4044 
L 310.8375 198.694394 
L 316.5 201.400021 
L 322.1625 201.175823 
L 327.825 202.545262 
L 333.4875 205.59469 
L 339.15 205.11626 
L 344.8125 203.297789 
L 350.475 203.978877 
L 356.1375 200.290338 
L 361.8 201.832105 
L 367.4625 197.96751 
L 373.125 196.841607 
L 378.7875 196.043849 
L 384.45 188.210365 
L 390.1125 172.704749 
L 395.775 160.574465 
L 401.4375 153.776175 
L 407.1 152.615312 
L 412.7625 152.054825 
L 418.425 152.108058 
L 424.0875 156.156762 
L 429.75 160.627147 
L 435.4125 167.055592 
L 441.075 176.3536 
L 446.7375 181.255748 
L 452.4 186.072519 
L 458.0625 187.700916 
L 463.725 191.087003 
L 469.3875 191.711535 
L 475.05 190.876481 
L 480.7125 181.362453 
L 486.375 165.604515 
L 492.0375 154.923731 
L 497.7 150.841244 
L 503.3625 148.228752 
L 509.025 146.984358 
L 514.6875 149.947066 
L 520.35 154.422462 
L 526.0125 162.764002 
L 531.675 169.230181 
L 537.3375 162.465264 
L 543 155.617776 
L 548.6625 152.106931 
L 554.325 148.591474 
L 559.9875 149.80391 
L 565.65 154.813543 
L 571.3125 157.55739 
L 576.975 163.263891 
L 582.6375 169.384732 
L 588.3 174.996954 
L 593.9625 180.697687 
L 599.625 181.957536 
L 605.2875 183.525406 
L 610.95 185.301227 
L 616.6125 186.196206 
L 622.275 185.09016 
L 627.9375 186.173489 
L 633.6 189.049572 
" clip-path="url(#pae81ce34eb)" style="fill: none; stroke: #17becf; stroke-opacity: 0.3; stroke-width: 1.5; stroke-linecap: square"/>
   </g>
   <g id="line2d_27">
    <path d="M 90 196.722442 
L 95.6625 194.797562 
L 101.325 197.045685 
L 106.9875 196.432095 
L 112.65 180.160477 
L 118.3125 161.282102 
L 123.975 147.937363 
L 129.6375 139.827344 
L 135.3 135.598576 
L 140.9625 132.196488 
L 146.625 130.845432 
L 152.2875 133.848377 
L 157.95 140.184338 
L 163.6125 149.385911 
L 169.275 158.185383 
L 174.9375 164.658091 
L 180.6 168.235685 
L 186.2625 171.587367 
L 191.925 173.007845 
L 197.5875 174.582621 
L 203.25 176.633818 
L 208.9125 179.224339 
L 214.575 180.684072 
L 220.2375 181.908143 
L 225.9 182.736943 
L 231.5625 184.689335 
L 237.225 185.103729 
L 242.8875 185.207897 
L 248.55 185.347238 
L 254.2125 184.342214 
L 259.875 184.2938 
L 265.5375 184.080567 
L 271.2 180.784898 
L 276.8625 177.230742 
L 282.525 173.27709 
L 288.1875 169.377697 
L 293.85 168.61292 
L 299.5125 169.341348 
L 305.175 168.015293 
L 310.8375 166.368782 
L 316.5 166.079237 
L 322.1625 166.599846 
L 327.825 166.683223 
L 333.4875 168.128125 
L 339.15 170.857474 
L 344.8125 173.695969 
L 350.475 174.469759 
L 356.1375 175.31714 
L 361.8 174.682789 
L 367.4625 173.10849 
L 373.125 173.118588 
L 378.7875 169.933478 
L 384.45 156.609123 
L 390.1125 140.602126 
L 395.775 130.855665 
L 401.4375 127.11019 
L 407.1 123.751493 
L 412.7625 121.825628 
L 418.425 122.819002 
L 424.0875 124.511961 
L 429.75 127.802564 
L 435.4125 134.600947 
L 441.075 141.537729 
L 446.7375 149.827556 
L 452.4 157.151961 
L 458.0625 162.343961 
L 463.725 164.824765 
L 469.3875 167.912901 
L 475.05 162.675645 
L 480.7125 143.738287 
L 486.375 129.345167 
L 492.0375 123.637551 
L 497.7 119.962122 
L 503.3625 119.425602 
L 509.025 120.227028 
L 514.6875 121.773133 
L 520.35 124.800422 
L 526.0125 129.506961 
L 531.675 133.485963 
L 537.3375 127.835668 
L 543 122.183434 
L 548.6625 119.066142 
L 554.325 118.907777 
L 559.9875 119.388733 
L 565.65 123.146336 
L 571.3125 127.968368 
L 576.975 135.293971 
L 582.6375 145.428833 
L 588.3 153.629884 
L 593.9625 159.909008 
L 599.625 163.877768 
L 605.2875 167.689863 
L 610.95 171.204956 
L 616.6125 172.475733 
L 622.275 173.816633 
L 627.9375 174.296718 
L 633.6 175.408094 
" clip-path="url(#pae81ce34eb)" style="fill: none; stroke: #00ff00; stroke-opacity: 0.3; stroke-width: 1.5; stroke-linecap: square"/>
   </g>
   <g id="line2d_28">
    <path d="M 90 190.190299 
L 95.6625 191.520945 
L 101.325 193.274178 
L 106.9875 195.499011 
L 112.65 189.692337 
L 118.3125 173.274761 
L 123.975 157.258629 
L 129.6375 149.071678 
L 135.3 142.20491 
L 140.9625 137.907282 
L 146.625 138.172814 
L 152.2875 139.740008 
L 157.95 142.68257 
L 163.6125 148.172693 
L 169.275 156.716178 
L 174.9375 162.811507 
L 180.6 167.478164 
L 186.2625 172.862995 
L 191.925 175.176573 
L 197.5875 179.927653 
L 203.25 182.833115 
L 208.9125 182.941838 
L 214.575 185.281779 
L 220.2375 183.943242 
L 225.9 183.977351 
L 231.5625 182.229812 
L 237.225 182.038243 
L 242.8875 184.860181 
L 248.55 185.440309 
L 254.2125 185.911246 
L 259.875 185.144427 
L 265.5375 185.846807 
L 271.2 186.274674 
L 276.8625 188.39857 
L 282.525 188.960816 
L 288.1875 186.933671 
L 293.85 189.712848 
L 299.5125 190.195958 
L 305.175 191.285384 
L 310.8375 189.096697 
L 316.5 191.799532 
L 322.1625 192.185964 
L 327.825 189.743707 
L 333.4875 189.856114 
L 339.15 188.313072 
L 344.8125 187.445775 
L 350.475 189.306792 
L 356.1375 187.752344 
L 361.8 188.135026 
L 367.4625 190.037638 
L 373.125 192.216272 
L 378.7875 191.227638 
L 384.45 190.237144 
L 390.1125 173.567401 
L 395.775 160.036784 
L 401.4375 151.223076 
L 407.1 145.502966 
L 412.7625 141.932487 
L 418.425 140.12321 
L 424.0875 140.640157 
L 429.75 144.535135 
L 435.4125 149.081083 
L 441.075 154.878813 
L 446.7375 159.522606 
L 452.4 162.76303 
L 458.0625 165.374538 
L 463.725 168.813519 
L 469.3875 168.545545 
L 475.05 171.074835 
L 480.7125 165.857155 
L 486.375 156.511672 
L 492.0375 150.977824 
L 497.7 146.25344 
L 503.3625 143.766499 
L 509.025 143.389118 
L 514.6875 145.174951 
L 520.35 148.383147 
L 526.0125 151.951449 
L 531.675 155.811358 
L 537.3375 154.411691 
L 543 149.542689 
L 548.6625 146.619139 
L 554.325 144.437024 
L 559.9875 144.096272 
L 565.65 144.577074 
L 571.3125 148.600661 
L 576.975 151.818838 
L 582.6375 156.884791 
L 588.3 161.377841 
L 593.9625 163.839043 
L 599.625 166.590037 
L 605.2875 169.341006 
L 610.95 171.713146 
L 616.6125 172.704348 
L 622.275 174.635425 
L 627.9375 175.448937 
L 633.6 173.731916 
" clip-path="url(#pae81ce34eb)" style="fill: none; stroke: #ff00ff; stroke-opacity: 0.3; stroke-width: 1.5; stroke-linecap: square"/>
   </g>
   <g id="patch_104">
    <path d="M 90 244.8 
L 90 28.8 
" style="fill: none; stroke: #000000; stroke-width: 0.8; stroke-linejoin: miter; stroke-linecap: square"/>
   </g>
   <g id="patch_105">
    <path d="M 633.6 244.8 
L 633.6 28.8 
" style="fill: none; stroke: #000000; stroke-width: 0.8; stroke-linejoin: miter; stroke-linecap: square"/>
   </g>
  </g>
 </g>
 <defs>
  <clipPath id="pae81ce34eb">
   <rect x="90" y="28.8" width="543.6" height="216"/>
  </clipPath>
 </defs>
</svg>
