<?xml version="1.0" encoding="utf-8" standalone="no"?>
<!DOCTYPE svg PUBLIC "-//W3C//DTD SVG 1.1//EN"
  "http://www.w3.org/Graphics/SVG/1.1/DTD/svg11.dtd">
<svg xmlns:xlink="http://www.w3.org/1999/xlink" width="216pt" height="273.6pt" viewBox="0 0 216 273.6" xmlns="http://www.w3.org/2000/svg" version="1.1">
 <metadata>
  <rdf:RDF xmlns:dc="http://purl.org/dc/elements/1.1/" xmlns:cc="http://creativecommons.org/ns#" xmlns:rdf="http://www.w3.org/1999/02/22-rdf-syntax-ns#">
   <cc:Work>
    <dc:type rdf:resource="http://purl.org/dc/dcmitype/StillImage"/>
    <dc:date>2023-05-08T18:04:17.706779</dc:date>
    <dc:format>image/svg+xml</dc:format>
    <dc:creator>
     <cc:Agent>
      <dc:title>Matplotlib v3.6.3, https://matplotlib.org/</dc:title>
     </cc:Agent>
    </dc:creator>
   </cc:Work>
  </rdf:RDF>
 </metadata>
 <defs>
  <style type="text/css">*{stroke-linejoin: round; stroke-linecap: butt}</style>
 </defs>
 <g id="figure_1">
  <g id="patch_1">
   <path d="M 0 273.6 
L 216 273.6 
L 216 0 
L 0 0 
z
" style="fill: #ffffff"/>
  </g>
  <g id="axes_1">
   <g id="patch_2">
    <path d="M 75.6 83.664787 
L 179.28 83.664787 
L 179.28 32.832 
L 75.6 32.832 
z
" style="fill: #ffffff"/>
   </g>
   <g id="patch_3">
    <path d="M 80.307241 83.664787 
L 82.721211 83.664787 
L 82.721211 83.664787 
L 80.307241 83.664787 
z
" clip-path="url(#p1eb8734cc9)" style="fill: #0000ff; opacity: 0.6"/>
   </g>
   <g id="patch_4">
    <path d="M 82.721211 83.664787 
L 85.13518 83.664787 
L 85.13518 80.947579 
L 82.721211 80.947579 
z
" clip-path="url(#p1eb8734cc9)" style="fill: #0000ff; opacity: 0.6"/>
   </g>
   <g id="patch_5">
    <path d="M 85.13518 83.664787 
L 87.54915 83.664787 
L 87.54915 76.208196 
L 85.13518 76.208196 
z
" clip-path="url(#p1eb8734cc9)" style="fill: #0000ff; opacity: 0.6"/>
   </g>
   <g id="patch_6">
    <path d="M 87.54915 83.664787 
L 89.96312 83.664787 
L 89.96312 35.252609 
L 87.54915 35.252609 
z
" clip-path="url(#p1eb8734cc9)" style="fill: #0000ff; opacity: 0.6"/>
   </g>
   <g id="patch_7">
    <path d="M 89.96312 83.664787 
L 92.37709 83.664787 
L 92.37709 69.543439 
L 89.96312 69.543439 
z
" clip-path="url(#p1eb8734cc9)" style="fill: #0000ff; opacity: 0.6"/>
   </g>
   <g id="patch_8">
    <path d="M 92.37709 83.664787 
L 94.791059 83.664787 
L 94.791059 79.557515 
L 92.37709 79.557515 
z
" clip-path="url(#p1eb8734cc9)" style="fill: #0000ff; opacity: 0.6"/>
   </g>
   <g id="patch_9">
    <path d="M 94.791059 83.664787 
L 97.205029 83.664787 
L 97.205029 82.068536 
L 94.791059 82.068536 
z
" clip-path="url(#p1eb8734cc9)" style="fill: #0000ff; opacity: 0.6"/>
   </g>
   <g id="patch_10">
    <path d="M 97.205029 83.664787 
L 99.618999 83.664787 
L 99.618999 82.736464 
L 97.205029 82.736464 
z
" clip-path="url(#p1eb8734cc9)" style="fill: #0000ff; opacity: 0.6"/>
   </g>
   <g id="patch_11">
    <path d="M 99.618999 83.664787 
L 102.032969 83.664787 
L 102.032969 83.127541 
L 99.618999 83.127541 
z
" clip-path="url(#p1eb8734cc9)" style="fill: #0000ff; opacity: 0.6"/>
   </g>
   <g id="patch_12">
    <path d="M 102.032969 83.664787 
L 104.446938 83.664787 
L 104.446938 83.281454 
L 102.032969 83.281454 
z
" clip-path="url(#p1eb8734cc9)" style="fill: #0000ff; opacity: 0.6"/>
   </g>
   <g id="patch_13">
    <path d="M 104.446938 83.664787 
L 106.860908 83.664787 
L 106.860908 83.437304 
L 104.446938 83.437304 
z
" clip-path="url(#p1eb8734cc9)" style="fill: #0000ff; opacity: 0.6"/>
   </g>
   <g id="patch_14">
    <path d="M 106.860908 83.664787 
L 109.274878 83.664787 
L 109.274878 83.516681 
L 106.860908 83.516681 
z
" clip-path="url(#p1eb8734cc9)" style="fill: #0000ff; opacity: 0.6"/>
   </g>
   <g id="patch_15">
    <path d="M 109.274878 83.664787 
L 111.688847 83.664787 
L 111.688847 83.498289 
L 109.274878 83.498289 
z
" clip-path="url(#p1eb8734cc9)" style="fill: #0000ff; opacity: 0.6"/>
   </g>
   <g id="patch_16">
    <path d="M 111.688847 83.664787 
L 114.102817 83.664787 
L 114.102817 83.527329 
L 111.688847 83.527329 
z
" clip-path="url(#p1eb8734cc9)" style="fill: #0000ff; opacity: 0.6"/>
   </g>
   <g id="patch_17">
    <path d="M 114.102817 83.664787 
L 116.516787 83.664787 
L 116.516787 83.527329 
L 114.102817 83.527329 
z
" clip-path="url(#p1eb8734cc9)" style="fill: #0000ff; opacity: 0.6"/>
   </g>
   <g id="patch_18">
    <path d="M 116.516787 83.664787 
L 118.930757 83.664787 
L 118.930757 83.533137 
L 116.516787 83.533137 
z
" clip-path="url(#p1eb8734cc9)" style="fill: #0000ff; opacity: 0.6"/>
   </g>
   <g id="patch_19">
    <path d="M 118.930757 83.664787 
L 121.344726 83.664787 
L 121.344726 83.508937 
L 118.930757 83.508937 
z
" clip-path="url(#p1eb8734cc9)" style="fill: #0000ff; opacity: 0.6"/>
   </g>
   <g id="patch_20">
    <path d="M 121.344726 83.664787 
L 123.758696 83.664787 
L 123.758696 83.536041 
L 121.344726 83.536041 
z
" clip-path="url(#p1eb8734cc9)" style="fill: #0000ff; opacity: 0.6"/>
   </g>
   <g id="patch_21">
    <path d="M 123.758696 83.664787 
L 126.172666 83.664787 
L 126.172666 83.512809 
L 123.758696 83.512809 
z
" clip-path="url(#p1eb8734cc9)" style="fill: #0000ff; opacity: 0.6"/>
   </g>
   <g id="patch_22">
    <path d="M 126.172666 83.664787 
L 128.586636 83.664787 
L 128.586636 83.469249 
L 126.172666 83.469249 
z
" clip-path="url(#p1eb8734cc9)" style="fill: #0000ff; opacity: 0.6"/>
   </g>
   <g id="patch_23">
    <path d="M 128.586636 83.664787 
L 131.000605 83.664787 
L 131.000605 83.528297 
L 128.586636 83.528297 
z
" clip-path="url(#p1eb8734cc9)" style="fill: #0000ff; opacity: 0.6"/>
   </g>
   <g id="patch_24">
    <path d="M 131.000605 83.664787 
L 133.414575 83.664787 
L 133.414575 83.467313 
L 131.000605 83.467313 
z
" clip-path="url(#p1eb8734cc9)" style="fill: #0000ff; opacity: 0.6"/>
   </g>
   <g id="patch_25">
    <path d="M 133.414575 83.664787 
L 135.828545 83.664787 
L 135.828545 83.432464 
L 133.414575 83.432464 
z
" clip-path="url(#p1eb8734cc9)" style="fill: #0000ff; opacity: 0.6"/>
   </g>
   <g id="patch_26">
    <path d="M 135.828545 83.664787 
L 138.242515 83.664787 
L 138.242515 83.43924 
L 135.828545 83.43924 
z
" clip-path="url(#p1eb8734cc9)" style="fill: #0000ff; opacity: 0.6"/>
   </g>
   <g id="patch_27">
    <path d="M 138.242515 83.664787 
L 140.656484 83.664787 
L 140.656484 83.388904 
L 138.242515 83.388904 
z
" clip-path="url(#p1eb8734cc9)" style="fill: #0000ff; opacity: 0.6"/>
   </g>
   <g id="patch_28">
    <path d="M 140.656484 83.664787 
L 143.070454 83.664787 
L 143.070454 83.369543 
L 140.656484 83.369543 
z
" clip-path="url(#p1eb8734cc9)" style="fill: #0000ff; opacity: 0.6"/>
   </g>
   <g id="patch_29">
    <path d="M 143.070454 83.664787 
L 145.484424 83.664787 
L 145.484424 83.305655 
L 143.070454 83.305655 
z
" clip-path="url(#p1eb8734cc9)" style="fill: #0000ff; opacity: 0.6"/>
   </g>
   <g id="patch_30">
    <path d="M 145.484424 83.664787 
L 147.898393 83.664787 
L 147.898393 83.272742 
L 145.484424 83.272742 
z
" clip-path="url(#p1eb8734cc9)" style="fill: #0000ff; opacity: 0.6"/>
   </g>
   <g id="patch_31">
    <path d="M 147.898393 83.664787 
L 150.312363 83.664787 
L 150.312363 83.258222 
L 147.898393 83.258222 
z
" clip-path="url(#p1eb8734cc9)" style="fill: #0000ff; opacity: 0.6"/>
   </g>
   <g id="patch_32">
    <path d="M 150.312363 83.664787 
L 152.726333 83.664787 
L 152.726333 83.302751 
L 150.312363 83.302751 
z
" clip-path="url(#p1eb8734cc9)" style="fill: #0000ff; opacity: 0.6"/>
   </g>
   <g id="patch_33">
    <path d="M 152.726333 83.664787 
L 155.140303 83.664787 
L 155.140303 83.260158 
L 152.726333 83.260158 
z
" clip-path="url(#p1eb8734cc9)" style="fill: #0000ff; opacity: 0.6"/>
   </g>
   <g id="patch_34">
    <path d="M 155.140303 83.664787 
L 157.554272 83.664787 
L 157.554272 83.305655 
L 155.140303 83.305655 
z
" clip-path="url(#p1eb8734cc9)" style="fill: #0000ff; opacity: 0.6"/>
   </g>
   <g id="patch_35">
    <path d="M 157.554272 83.664787 
L 159.968242 83.664787 
L 159.968242 83.303719 
L 157.554272 83.303719 
z
" clip-path="url(#p1eb8734cc9)" style="fill: #0000ff; opacity: 0.6"/>
   </g>
   <g id="patch_36">
    <path d="M 159.968242 83.664787 
L 162.382212 83.664787 
L 162.382212 83.446984 
L 159.968242 83.446984 
z
" clip-path="url(#p1eb8734cc9)" style="fill: #0000ff; opacity: 0.6"/>
   </g>
   <g id="patch_37">
    <path d="M 162.382212 83.664787 
L 164.796182 83.664787 
L 164.796182 83.41504 
L 162.382212 83.41504 
z
" clip-path="url(#p1eb8734cc9)" style="fill: #0000ff; opacity: 0.6"/>
   </g>
   <g id="patch_38">
    <path d="M 164.796182 83.664787 
L 167.210151 83.664787 
L 167.210151 83.426656 
L 164.796182 83.426656 
z
" clip-path="url(#p1eb8734cc9)" style="fill: #0000ff; opacity: 0.6"/>
   </g>
   <g id="patch_39">
    <path d="M 167.210151 83.664787 
L 169.624121 83.664787 
L 169.624121 83.470217 
L 167.210151 83.470217 
z
" clip-path="url(#p1eb8734cc9)" style="fill: #0000ff; opacity: 0.6"/>
   </g>
   <g id="patch_40">
    <path d="M 169.624121 83.664787 
L 172.038091 83.664787 
L 172.038091 83.479897 
L 169.624121 83.479897 
z
" clip-path="url(#p1eb8734cc9)" style="fill: #0000ff; opacity: 0.6"/>
   </g>
   <g id="patch_41">
    <path d="M 172.038091 83.664787 
L 174.452061 83.664787 
L 174.452061 83.516681 
L 172.038091 83.516681 
z
" clip-path="url(#p1eb8734cc9)" style="fill: #0000ff; opacity: 0.6"/>
   </g>
   <g id="matplotlib.axis_1">
    <g id="xtick_1">
     <g id="line2d_1">
      <defs>
       <path id="mc192fa53b2" d="M 0 0 
L 0 3.5 
" style="stroke: #000000; stroke-width: 0.8"/>
      </defs>
      <g>
       <use xlink:href="#mc192fa53b2" x="82.721211" y="83.664787" style="stroke: #000000; stroke-width: 0.8"/>
      </g>
     </g>
     <g id="text_1">
      <text style="font: 12px 'Tahoma', 'DejaVu Sans', 'Lucida Grande', 'Verdana', sans-serif; text-anchor: middle" x="82.721211" y="99.782912" transform="rotate(-0 82.721211 99.782912)">0</text>
     </g>
    </g>
    <g id="xtick_2">
     <g id="line2d_2">
      <g>
       <use xlink:href="#mc192fa53b2" x="89.96312" y="83.664787" style="stroke: #000000; stroke-width: 0.8"/>
      </g>
     </g>
     <g id="text_2">
      <text style="font: 12px 'Tahoma', 'DejaVu Sans', 'Lucida Grande', 'Verdana', sans-serif; text-anchor: middle" x="89.96312" y="99.782912" transform="rotate(-0 89.96312 99.782912)">3</text>
     </g>
    </g>
    <g id="xtick_3">
     <g id="line2d_3">
      <g>
       <use xlink:href="#mc192fa53b2" x="179.28" y="83.664787" style="stroke: #000000; stroke-width: 0.8"/>
      </g>
     </g>
     <g id="text_3">
      <text style="font: 12px 'Tahoma', 'DejaVu Sans', 'Lucida Grande', 'Verdana', sans-serif; text-anchor: middle" x="179.28" y="99.782912" transform="rotate(-0 179.28 99.782912)">40</text>
     </g>
    </g>
    <g id="xtick_4">
     <g id="line2d_4">
      <defs>
       <path id="md7da3c9a29" d="M 0 0 
L 0 2 
" style="stroke: #000000; stroke-width: 0.6"/>
      </defs>
      <g>
       <use xlink:href="#md7da3c9a29" x="106.860908" y="83.664787" style="stroke: #000000; stroke-width: 0.6"/>
      </g>
     </g>
    </g>
    <g id="xtick_5">
     <g id="line2d_5">
      <g>
       <use xlink:href="#md7da3c9a29" x="131.000605" y="83.664787" style="stroke: #000000; stroke-width: 0.6"/>
      </g>
     </g>
    </g>
    <g id="xtick_6">
     <g id="line2d_6">
      <g>
       <use xlink:href="#md7da3c9a29" x="155.140303" y="83.664787" style="stroke: #000000; stroke-width: 0.6"/>
      </g>
     </g>
    </g>
   </g>
   <g id="matplotlib.axis_2">
    <g id="ytick_1">
     <g id="line2d_7">
      <defs>
       <path id="m3730f0ce24" d="M 0 0 
L -3.5 0 
" style="stroke: #000000; stroke-width: 0.8"/>
      </defs>
      <g>
       <use xlink:href="#m3730f0ce24" x="75.6" y="83.664787" style="stroke: #000000; stroke-width: 0.8"/>
      </g>
     </g>
     <g id="text_4">
      <text style="font: 12px 'Tahoma', 'DejaVu Sans', 'Lucida Grande', 'Verdana', sans-serif; text-anchor: end" x="68.6" y="88.223849" transform="rotate(-0 68.6 88.223849)">0%</text>
     </g>
    </g>
    <g id="ytick_2">
     <g id="line2d_8">
      <g>
       <use xlink:href="#m3730f0ce24" x="75.6" y="40.124125" style="stroke: #000000; stroke-width: 0.8"/>
      </g>
     </g>
     <g id="text_5">
      <text style="font: 12px 'Tahoma', 'DejaVu Sans', 'Lucida Grande', 'Verdana', sans-serif; text-anchor: end" x="68.6" y="44.683188" transform="rotate(-0 68.6 44.683188)">50%</text>
     </g>
    </g>
    <g id="text_6">
     <text style="font: 12px 'Tahoma', 'DejaVu Sans', 'Lucida Grande', 'Verdana', sans-serif; text-anchor: middle" x="37.36375" y="58.248393" transform="rotate(-90 37.36375 58.248393)">% of pulses</text>
    </g>
   </g>
   <g id="patch_42">
    <path d="M 75.6 83.664787 
L 75.6 32.832 
" style="fill: none; stroke: #000000; stroke-width: 0.8; stroke-linejoin: miter; stroke-linecap: square"/>
   </g>
   <g id="patch_43">
    <path d="M 75.6 83.664787 
L 179.28 83.664787 
" style="fill: none; stroke: #000000; stroke-width: 0.8; stroke-linejoin: miter; stroke-linecap: square"/>
   </g>
   <g id="text_7">
    <text style="font: 12px 'Tahoma', 'DejaVu Sans', 'Lucida Grande', 'Verdana', sans-serif; text-anchor: start" x="118.930757" y="48.081836" transform="rotate(-0 118.930757 48.081836)">Max increment</text>
   </g>
  </g>
  <g id="axes_2">
   <g id="patch_44">
    <path d="M 75.6 151.272393 
L 179.28 151.272393 
L 179.28 100.439607 
L 75.6 100.439607 
z
" style="fill: #ffffff"/>
   </g>
   <g id="patch_45">
    <path d="M 80.312727 151.272393 
L 82.72951 151.272393 
L 82.72951 151.272393 
L 80.312727 151.272393 
z
" clip-path="url(#pdc856e0c96)" style="fill: #ffa500; opacity: 0.6"/>
   </g>
   <g id="patch_46">
    <path d="M 82.72951 151.272393 
L 85.146294 151.272393 
L 85.146294 151.272393 
L 82.72951 151.272393 
z
" clip-path="url(#pdc856e0c96)" style="fill: #ffa500; opacity: 0.6"/>
   </g>
   <g id="patch_47">
    <path d="M 85.146294 151.272393 
L 87.563077 151.272393 
L 87.563077 147.246693 
L 85.146294 147.246693 
z
" clip-path="url(#pdc856e0c96)" style="fill: #ffa500; opacity: 0.6"/>
   </g>
   <g id="patch_48">
    <path d="M 87.563077 151.272393 
L 89.97986 151.272393 
L 89.97986 143.841237 
L 87.563077 143.841237 
z
" clip-path="url(#pdc856e0c96)" style="fill: #ffa500; opacity: 0.6"/>
   </g>
   <g id="patch_49">
    <path d="M 89.97986 151.272393 
L 92.396643 151.272393 
L 92.396643 136.289805 
L 89.97986 136.289805 
z
" clip-path="url(#pdc856e0c96)" style="fill: #ffa500; opacity: 0.6"/>
   </g>
   <g id="patch_50">
    <path d="M 92.396643 151.272393 
L 94.813427 151.272393 
L 94.813427 120.17521 
L 92.396643 120.17521 
z
" clip-path="url(#pdc856e0c96)" style="fill: #ffa500; opacity: 0.6"/>
   </g>
   <g id="patch_51">
    <path d="M 94.813427 151.272393 
L 97.23021 151.272393 
L 97.23021 102.860215 
L 94.813427 102.860215 
z
" clip-path="url(#pdc856e0c96)" style="fill: #ffa500; opacity: 0.6"/>
   </g>
   <g id="patch_52">
    <path d="M 97.23021 151.272393 
L 99.646993 151.272393 
L 99.646993 108.017924 
L 97.23021 108.017924 
z
" clip-path="url(#pdc856e0c96)" style="fill: #ffa500; opacity: 0.6"/>
   </g>
   <g id="patch_53">
    <path d="M 99.646993 151.272393 
L 102.063776 151.272393 
L 102.063776 126.703119 
L 99.646993 126.703119 
z
" clip-path="url(#pdc856e0c96)" style="fill: #ffa500; opacity: 0.6"/>
   </g>
   <g id="patch_54">
    <path d="M 102.063776 151.272393 
L 104.480559 151.272393 
L 104.480559 139.546685 
L 102.063776 139.546685 
z
" clip-path="url(#pdc856e0c96)" style="fill: #ffa500; opacity: 0.6"/>
   </g>
   <g id="patch_55">
    <path d="M 104.480559 151.272393 
L 106.897343 151.272393 
L 106.897343 146.124119 
L 104.480559 146.124119 
z
" clip-path="url(#pdc856e0c96)" style="fill: #ffa500; opacity: 0.6"/>
   </g>
   <g id="patch_56">
    <path d="M 106.897343 151.272393 
L 109.314126 151.272393 
L 109.314126 148.871595 
L 106.897343 148.871595 
z
" clip-path="url(#pdc856e0c96)" style="fill: #ffa500; opacity: 0.6"/>
   </g>
   <g id="patch_57">
    <path d="M 109.314126 151.272393 
L 111.730909 151.272393 
L 111.730909 149.968227 
L 109.314126 149.968227 
z
" clip-path="url(#pdc856e0c96)" style="fill: #ffa500; opacity: 0.6"/>
   </g>
   <g id="patch_58">
    <path d="M 111.730909 151.272393 
L 114.147692 151.272393 
L 114.147692 150.472913 
L 111.730909 150.472913 
z
" clip-path="url(#pdc856e0c96)" style="fill: #ffa500; opacity: 0.6"/>
   </g>
   <g id="patch_59">
    <path d="M 114.147692 151.272393 
L 116.564476 151.272393 
L 116.564476 150.76299 
L 114.147692 150.76299 
z
" clip-path="url(#pdc856e0c96)" style="fill: #ffa500; opacity: 0.6"/>
   </g>
   <g id="patch_60">
    <path d="M 116.564476 151.272393 
L 118.981259 151.272393 
L 118.981259 150.895058 
L 116.564476 150.895058 
z
" clip-path="url(#pdc856e0c96)" style="fill: #ffa500; opacity: 0.6"/>
   </g>
   <g id="patch_61">
    <path d="M 118.981259 151.272393 
L 121.398042 151.272393 
L 121.398042 150.972883 
L 118.981259 150.972883 
z
" clip-path="url(#pdc856e0c96)" style="fill: #ffa500; opacity: 0.6"/>
   </g>
   <g id="patch_62">
    <path d="M 121.398042 151.272393 
L 123.814825 151.272393 
L 123.814825 150.998825 
L 121.398042 150.998825 
z
" clip-path="url(#pdc856e0c96)" style="fill: #ffa500; opacity: 0.6"/>
   </g>
   <g id="patch_63">
    <path d="M 123.814825 151.272393 
L 126.231608 151.272393 
L 126.231608 151.071934 
L 123.814825 151.071934 
z
" clip-path="url(#pdc856e0c96)" style="fill: #ffa500; opacity: 0.6"/>
   </g>
   <g id="patch_64">
    <path d="M 126.231608 151.272393 
L 128.648392 151.272393 
L 128.648392 151.083726 
L 126.231608 151.083726 
z
" clip-path="url(#pdc856e0c96)" style="fill: #ffa500; opacity: 0.6"/>
   </g>
   <g id="patch_65">
    <path d="M 128.648392 151.272393 
L 131.065175 151.272393 
L 131.065175 151.086084 
L 128.648392 151.086084 
z
" clip-path="url(#pdc856e0c96)" style="fill: #ffa500; opacity: 0.6"/>
   </g>
   <g id="patch_66">
    <path d="M 131.065175 151.272393 
L 133.481958 151.272393 
L 133.481958 151.142684 
L 131.065175 151.142684 
z
" clip-path="url(#pdc856e0c96)" style="fill: #ffa500; opacity: 0.6"/>
   </g>
   <g id="patch_67">
    <path d="M 133.481958 151.272393 
L 135.898741 151.272393 
L 135.898741 151.163909 
L 133.481958 151.163909 
z
" clip-path="url(#pdc856e0c96)" style="fill: #ffa500; opacity: 0.6"/>
   </g>
   <g id="patch_68">
    <path d="M 135.898741 151.272393 
L 138.315524 151.272393 
L 138.315524 151.187493 
L 135.898741 151.187493 
z
" clip-path="url(#pdc856e0c96)" style="fill: #ffa500; opacity: 0.6"/>
   </g>
   <g id="patch_69">
    <path d="M 138.315524 151.272393 
L 140.732308 151.272393 
L 140.732308 151.159193 
L 138.315524 151.159193 
z
" clip-path="url(#pdc856e0c96)" style="fill: #ffa500; opacity: 0.6"/>
   </g>
   <g id="patch_70">
    <path d="M 140.732308 151.272393 
L 143.149091 151.272393 
L 143.149091 151.142684 
L 140.732308 151.142684 
z
" clip-path="url(#pdc856e0c96)" style="fill: #ffa500; opacity: 0.6"/>
   </g>
   <g id="patch_71">
    <path d="M 143.149091 151.272393 
L 145.565874 151.272393 
L 145.565874 151.168626 
L 143.149091 151.168626 
z
" clip-path="url(#pdc856e0c96)" style="fill: #ffa500; opacity: 0.6"/>
   </g>
   <g id="patch_72">
    <path d="M 145.565874 151.272393 
L 147.982657 151.272393 
L 147.982657 151.137968 
L 145.565874 151.137968 
z
" clip-path="url(#pdc856e0c96)" style="fill: #ffa500; opacity: 0.6"/>
   </g>
   <g id="patch_73">
    <path d="M 147.982657 151.272393 
L 150.399441 151.272393 
L 150.399441 151.083726 
L 147.982657 151.083726 
z
" clip-path="url(#pdc856e0c96)" style="fill: #ffa500; opacity: 0.6"/>
   </g>
   <g id="patch_74">
    <path d="M 150.399441 151.272393 
L 152.816224 151.272393 
L 152.816224 151.102592 
L 150.399441 151.102592 
z
" clip-path="url(#pdc856e0c96)" style="fill: #ffa500; opacity: 0.6"/>
   </g>
   <g id="patch_75">
    <path d="M 152.816224 151.272393 
L 155.233007 151.272393 
L 155.233007 151.038917 
L 152.816224 151.038917 
z
" clip-path="url(#pdc856e0c96)" style="fill: #ffa500; opacity: 0.6"/>
   </g>
   <g id="patch_76">
    <path d="M 155.233007 151.272393 
L 157.64979 151.272393 
L 157.64979 151.074292 
L 155.233007 151.074292 
z
" clip-path="url(#pdc856e0c96)" style="fill: #ffa500; opacity: 0.6"/>
   </g>
   <g id="patch_77">
    <path d="M 157.64979 151.272393 
L 160.066573 151.272393 
L 160.066573 151.017692 
L 157.64979 151.017692 
z
" clip-path="url(#pdc856e0c96)" style="fill: #ffa500; opacity: 0.6"/>
   </g>
   <g id="patch_78">
    <path d="M 160.066573 151.272393 
L 162.483357 151.272393 
L 162.483357 151.086084 
L 160.066573 151.086084 
z
" clip-path="url(#pdc856e0c96)" style="fill: #ffa500; opacity: 0.6"/>
   </g>
   <g id="patch_79">
    <path d="M 162.483357 151.272393 
L 164.90014 151.272393 
L 164.90014 151.069575 
L 162.483357 151.069575 
z
" clip-path="url(#pdc856e0c96)" style="fill: #ffa500; opacity: 0.6"/>
   </g>
   <g id="patch_80">
    <path d="M 164.90014 151.272393 
L 167.316923 151.272393 
L 167.316923 151.012975 
L 164.90014 151.012975 
z
" clip-path="url(#pdc856e0c96)" style="fill: #ffa500; opacity: 0.6"/>
   </g>
   <g id="patch_81">
    <path d="M 167.316923 151.272393 
L 169.733706 151.272393 
L 169.733706 151.043634 
L 167.316923 151.043634 
z
" clip-path="url(#pdc856e0c96)" style="fill: #ffa500; opacity: 0.6"/>
   </g>
   <g id="patch_82">
    <path d="M 169.733706 151.272393 
L 172.15049 151.272393 
L 172.15049 151.112026 
L 169.733706 151.112026 
z
" clip-path="url(#pdc856e0c96)" style="fill: #ffa500; opacity: 0.6"/>
   </g>
   <g id="patch_83">
    <path d="M 172.15049 151.272393 
L 174.567273 151.272393 
L 174.567273 151.119101 
L 172.15049 151.119101 
z
" clip-path="url(#pdc856e0c96)" style="fill: #ffa500; opacity: 0.6"/>
   </g>
   <g id="matplotlib.axis_3">
    <g id="xtick_7">
     <g id="line2d_9">
      <g>
       <use xlink:href="#mc192fa53b2" x="81.521119" y="151.272393" style="stroke: #000000; stroke-width: 0.8"/>
      </g>
     </g>
     <g id="text_8">
      <text style="font: 12px 'Tahoma', 'DejaVu Sans', 'Lucida Grande', 'Verdana', sans-serif; text-anchor: middle" x="81.521119" y="167.390518" transform="rotate(-0 81.521119 167.390518)">0</text>
     </g>
    </g>
    <g id="xtick_8">
     <g id="line2d_10">
      <g>
       <use xlink:href="#mc192fa53b2" x="96.021818" y="151.272393" style="stroke: #000000; stroke-width: 0.8"/>
      </g>
     </g>
     <g id="text_9">
      <text style="font: 12px 'Tahoma', 'DejaVu Sans', 'Lucida Grande', 'Verdana', sans-serif; text-anchor: middle" x="96.021818" y="167.390518" transform="rotate(-0 96.021818 167.390518)">6</text>
     </g>
    </g>
    <g id="xtick_9">
     <g id="line2d_11">
      <g>
       <use xlink:href="#mc192fa53b2" x="178.192448" y="151.272393" style="stroke: #000000; stroke-width: 0.8"/>
      </g>
     </g>
     <g id="text_10">
      <text style="font: 12px 'Tahoma', 'DejaVu Sans', 'Lucida Grande', 'Verdana', sans-serif; text-anchor: middle" x="178.192448" y="167.390518" transform="rotate(-0 178.192448 167.390518)">40</text>
     </g>
    </g>
    <g id="xtick_10">
     <g id="line2d_12">
      <g>
       <use xlink:href="#md7da3c9a29" x="105.688951" y="151.272393" style="stroke: #000000; stroke-width: 0.6"/>
      </g>
     </g>
    </g>
    <g id="xtick_11">
     <g id="line2d_13">
      <g>
       <use xlink:href="#md7da3c9a29" x="129.856783" y="151.272393" style="stroke: #000000; stroke-width: 0.6"/>
      </g>
     </g>
    </g>
    <g id="xtick_12">
     <g id="line2d_14">
      <g>
       <use xlink:href="#md7da3c9a29" x="154.024615" y="151.272393" style="stroke: #000000; stroke-width: 0.6"/>
      </g>
     </g>
    </g>
   </g>
   <g id="matplotlib.axis_4">
    <g id="ytick_3">
     <g id="line2d_15">
      <g>
       <use xlink:href="#m3730f0ce24" x="75.6" y="151.272393" style="stroke: #000000; stroke-width: 0.8"/>
      </g>
     </g>
     <g id="text_11">
      <text style="font: 12px 'Tahoma', 'DejaVu Sans', 'Lucida Grande', 'Verdana', sans-serif; text-anchor: end" x="68.6" y="155.831456" transform="rotate(-0 68.6 155.831456)">0%</text>
     </g>
    </g>
    <g id="ytick_4">
     <g id="line2d_16">
      <g>
       <use xlink:href="#m3730f0ce24" x="75.6" y="111.227164" style="stroke: #000000; stroke-width: 0.8"/>
      </g>
     </g>
     <g id="text_12">
      <text style="font: 12px 'Tahoma', 'DejaVu Sans', 'Lucida Grande', 'Verdana', sans-serif; text-anchor: end" x="68.6" y="115.786227" transform="rotate(-0 68.6 115.786227)">20%</text>
     </g>
    </g>
    <g id="text_13">
     <text style="font: 12px 'Tahoma', 'DejaVu Sans', 'Lucida Grande', 'Verdana', sans-serif; text-anchor: middle" x="37.36375" y="125.856" transform="rotate(-90 37.36375 125.856)">% of pulses</text>
    </g>
   </g>
   <g id="patch_84">
    <path d="M 75.6 151.272393 
L 75.6 100.439607 
" style="fill: none; stroke: #000000; stroke-width: 0.8; stroke-linejoin: miter; stroke-linecap: square"/>
   </g>
   <g id="patch_85">
    <path d="M 75.6 151.272393 
L 179.28 151.272393 
" style="fill: none; stroke: #000000; stroke-width: 0.8; stroke-linejoin: miter; stroke-linecap: square"/>
   </g>
   <g id="text_14">
    <text style="font: 12px 'Tahoma', 'DejaVu Sans', 'Lucida Grande', 'Verdana', sans-serif; text-anchor: start" x="117.772867" y="115.689443" transform="rotate(-0 117.772867 115.689443)">Max translocation</text>
   </g>
  </g>
  <g id="axes_3">
   <g id="patch_86">
    <path d="M 75.6 218.88 
L 179.28 218.88 
L 179.28 168.047213 
L 75.6 168.047213 
z
" style="fill: #ffffff"/>
   </g>
   <g id="patch_87">
    <path d="M 80.307241 218.88 
L 82.721211 218.88 
L 82.721211 218.88 
L 80.307241 218.88 
z
" clip-path="url(#pf7017766b1)" style="fill: #008000; opacity: 0.6"/>
   </g>
   <g id="patch_88">
    <path d="M 82.721211 218.88 
L 85.13518 218.88 
L 85.13518 218.88 
L 82.721211 218.88 
z
" clip-path="url(#pf7017766b1)" style="fill: #008000; opacity: 0.6"/>
   </g>
   <g id="patch_89">
    <path d="M 85.13518 218.88 
L 87.54915 218.88 
L 87.54915 218.88 
L 85.13518 218.88 
z
" clip-path="url(#pf7017766b1)" style="fill: #008000; opacity: 0.6"/>
   </g>
   <g id="patch_90">
    <path d="M 87.54915 218.88 
L 89.96312 218.88 
L 89.96312 215.256802 
L 87.54915 215.256802 
z
" clip-path="url(#pf7017766b1)" style="fill: #008000; opacity: 0.6"/>
   </g>
   <g id="patch_91">
    <path d="M 89.96312 218.88 
L 92.37709 218.88 
L 92.37709 214.039205 
L 89.96312 214.039205 
z
" clip-path="url(#pf7017766b1)" style="fill: #008000; opacity: 0.6"/>
   </g>
   <g id="patch_92">
    <path d="M 92.37709 218.88 
L 94.791059 218.88 
L 94.791059 210.077786 
L 92.37709 210.077786 
z
" clip-path="url(#pf7017766b1)" style="fill: #008000; opacity: 0.6"/>
   </g>
   <g id="patch_93">
    <path d="M 94.791059 218.88 
L 97.205029 218.88 
L 97.205029 208.703761 
L 94.791059 208.703761 
z
" clip-path="url(#pf7017766b1)" style="fill: #008000; opacity: 0.6"/>
   </g>
   <g id="patch_94">
    <path d="M 97.205029 218.88 
L 99.618999 218.88 
L 99.618999 205.989534 
L 97.205029 205.989534 
z
" clip-path="url(#pf7017766b1)" style="fill: #008000; opacity: 0.6"/>
   </g>
   <g id="patch_95">
    <path d="M 99.618999 218.88 
L 102.032969 218.88 
L 102.032969 200.307413 
L 99.618999 200.307413 
z
" clip-path="url(#pf7017766b1)" style="fill: #008000; opacity: 0.6"/>
   </g>
   <g id="patch_96">
    <path d="M 102.032969 218.88 
L 104.446938 218.88 
L 104.446938 189.387086 
L 102.032969 189.387086 
z
" clip-path="url(#pf7017766b1)" style="fill: #008000; opacity: 0.6"/>
   </g>
   <g id="patch_97">
    <path d="M 104.446938 218.88 
L 106.860908 218.88 
L 106.860908 176.695325 
L 104.446938 176.695325 
z
" clip-path="url(#pf7017766b1)" style="fill: #008000; opacity: 0.6"/>
   </g>
   <g id="patch_98">
    <path d="M 106.860908 218.88 
L 109.274878 218.88 
L 109.274878 170.467822 
L 106.860908 170.467822 
z
" clip-path="url(#pf7017766b1)" style="fill: #008000; opacity: 0.6"/>
   </g>
   <g id="patch_99">
    <path d="M 109.274878 218.88 
L 111.688847 218.88 
L 111.688847 173.575232 
L 109.274878 173.575232 
z
" clip-path="url(#pf7017766b1)" style="fill: #008000; opacity: 0.6"/>
   </g>
   <g id="patch_100">
    <path d="M 111.688847 218.88 
L 114.102817 218.88 
L 114.102817 183.227228 
L 111.688847 183.227228 
z
" clip-path="url(#pf7017766b1)" style="fill: #008000; opacity: 0.6"/>
   </g>
   <g id="patch_101">
    <path d="M 114.102817 218.88 
L 116.516787 218.88 
L 116.516787 194.464636 
L 114.102817 194.464636 
z
" clip-path="url(#pf7017766b1)" style="fill: #008000; opacity: 0.6"/>
   </g>
   <g id="patch_102">
    <path d="M 116.516787 218.88 
L 118.930757 218.88 
L 118.930757 203.372545 
L 116.516787 203.372545 
z
" clip-path="url(#pf7017766b1)" style="fill: #008000; opacity: 0.6"/>
   </g>
   <g id="patch_103">
    <path d="M 118.930757 218.88 
L 121.344726 218.88 
L 121.344726 208.200657 
L 118.930757 208.200657 
z
" clip-path="url(#pf7017766b1)" style="fill: #008000; opacity: 0.6"/>
   </g>
   <g id="patch_104">
    <path d="M 121.344726 218.88 
L 123.758696 218.88 
L 123.758696 211.447583 
L 121.344726 211.447583 
z
" clip-path="url(#pf7017766b1)" style="fill: #008000; opacity: 0.6"/>
   </g>
   <g id="patch_105">
    <path d="M 123.758696 218.88 
L 126.172666 218.88 
L 126.172666 213.743261 
L 123.758696 213.743261 
z
" clip-path="url(#pf7017766b1)" style="fill: #008000; opacity: 0.6"/>
   </g>
   <g id="patch_106">
    <path d="M 126.172666 218.88 
L 128.586636 218.88 
L 128.586636 214.872075 
L 126.172666 214.872075 
z
" clip-path="url(#pf7017766b1)" style="fill: #008000; opacity: 0.6"/>
   </g>
   <g id="patch_107">
    <path d="M 128.586636 218.88 
L 131.000605 218.88 
L 131.000605 215.556974 
L 128.586636 215.556974 
z
" clip-path="url(#pf7017766b1)" style="fill: #008000; opacity: 0.6"/>
   </g>
   <g id="patch_108">
    <path d="M 131.000605 218.88 
L 133.414575 218.88 
L 133.414575 216.90986 
L 131.000605 216.90986 
z
" clip-path="url(#pf7017766b1)" style="fill: #008000; opacity: 0.6"/>
   </g>
   <g id="patch_109">
    <path d="M 133.414575 218.88 
L 135.828545 218.88 
L 135.828545 216.973276 
L 133.414575 216.973276 
z
" clip-path="url(#pf7017766b1)" style="fill: #008000; opacity: 0.6"/>
   </g>
   <g id="patch_110">
    <path d="M 135.828545 218.88 
L 138.242515 218.88 
L 138.242515 217.108565 
L 135.828545 217.108565 
z
" clip-path="url(#pf7017766b1)" style="fill: #008000; opacity: 0.6"/>
   </g>
   <g id="patch_111">
    <path d="M 138.242515 218.88 
L 140.656484 218.88 
L 140.656484 217.920297 
L 138.242515 217.920297 
z
" clip-path="url(#pf7017766b1)" style="fill: #008000; opacity: 0.6"/>
   </g>
   <g id="patch_112">
    <path d="M 140.656484 218.88 
L 143.070454 218.88 
L 143.070454 217.911841 
L 140.656484 217.911841 
z
" clip-path="url(#pf7017766b1)" style="fill: #008000; opacity: 0.6"/>
   </g>
   <g id="patch_113">
    <path d="M 143.070454 218.88 
L 145.484424 218.88 
L 145.484424 217.691997 
L 143.070454 217.691997 
z
" clip-path="url(#pf7017766b1)" style="fill: #008000; opacity: 0.6"/>
   </g>
   <g id="patch_114">
    <path d="M 145.484424 218.88 
L 147.898393 218.88 
L 147.898393 218.144368 
L 145.484424 218.144368 
z
" clip-path="url(#pf7017766b1)" style="fill: #008000; opacity: 0.6"/>
   </g>
   <g id="patch_115">
    <path d="M 147.898393 218.88 
L 150.312363 218.88 
L 150.312363 218.051357 
L 147.898393 218.051357 
z
" clip-path="url(#pf7017766b1)" style="fill: #008000; opacity: 0.6"/>
   </g>
   <g id="patch_116">
    <path d="M 150.312363 218.88 
L 152.726333 218.88 
L 152.726333 218.224696 
L 150.312363 218.224696 
z
" clip-path="url(#pf7017766b1)" style="fill: #008000; opacity: 0.6"/>
   </g>
   <g id="patch_117">
    <path d="M 152.726333 218.88 
L 155.140303 218.88 
L 155.140303 218.207785 
L 152.726333 218.207785 
z
" clip-path="url(#pf7017766b1)" style="fill: #008000; opacity: 0.6"/>
   </g>
   <g id="patch_118">
    <path d="M 155.140303 218.88 
L 157.554272 218.88 
L 157.554272 217.886474 
L 155.140303 217.886474 
z
" clip-path="url(#pf7017766b1)" style="fill: #008000; opacity: 0.6"/>
   </g>
   <g id="patch_119">
    <path d="M 157.554272 218.88 
L 159.968242 218.88 
L 159.968242 217.438331 
L 157.554272 217.438331 
z
" clip-path="url(#pf7017766b1)" style="fill: #008000; opacity: 0.6"/>
   </g>
   <g id="patch_120">
    <path d="M 159.968242 218.88 
L 162.382212 218.88 
L 162.382212 218.102091 
L 159.968242 218.102091 
z
" clip-path="url(#pf7017766b1)" style="fill: #008000; opacity: 0.6"/>
   </g>
   <g id="patch_121">
    <path d="M 162.382212 218.88 
L 164.796182 218.88 
L 164.796182 218.427629 
L 162.382212 218.427629 
z
" clip-path="url(#pf7017766b1)" style="fill: #008000; opacity: 0.6"/>
   </g>
   <g id="patch_122">
    <path d="M 164.796182 218.88 
L 167.210151 218.88 
L 167.210151 218.275429 
L 164.796182 218.275429 
z
" clip-path="url(#pf7017766b1)" style="fill: #008000; opacity: 0.6"/>
   </g>
   <g id="patch_123">
    <path d="M 167.210151 218.88 
L 169.624121 218.88 
L 169.624121 217.425648 
L 167.210151 217.425648 
z
" clip-path="url(#pf7017766b1)" style="fill: #008000; opacity: 0.6"/>
   </g>
   <g id="patch_124">
    <path d="M 169.624121 218.88 
L 172.038091 218.88 
L 172.038091 217.201576 
L 169.624121 217.201576 
z
" clip-path="url(#pf7017766b1)" style="fill: #008000; opacity: 0.6"/>
   </g>
   <g id="patch_125">
    <path d="M 172.038091 218.88 
L 174.452061 218.88 
L 174.452061 218.173963 
L 172.038091 218.173963 
z
" clip-path="url(#pf7017766b1)" style="fill: #008000; opacity: 0.6"/>
   </g>
   <g id="matplotlib.axis_5">
    <g id="xtick_13">
     <g id="line2d_17">
      <g>
       <use xlink:href="#mc192fa53b2" x="82.721211" y="218.88" style="stroke: #000000; stroke-width: 0.8"/>
      </g>
     </g>
     <g id="text_15">
      <text style="font: 12px 'Tahoma', 'DejaVu Sans', 'Lucida Grande', 'Verdana', sans-serif; text-anchor: middle" x="82.721211" y="234.998125" transform="rotate(-0 82.721211 234.998125)">0</text>
     </g>
    </g>
    <g id="xtick_14">
     <g id="line2d_18">
      <g>
       <use xlink:href="#mc192fa53b2" x="109.274878" y="218.88" style="stroke: #000000; stroke-width: 0.8"/>
      </g>
     </g>
     <g id="text_16">
      <text style="font: 12px 'Tahoma', 'DejaVu Sans', 'Lucida Grande', 'Verdana', sans-serif; text-anchor: middle" x="109.274878" y="234.998125" transform="rotate(-0 109.274878 234.998125)">11</text>
     </g>
    </g>
    <g id="xtick_15">
     <g id="line2d_19">
      <g>
       <use xlink:href="#mc192fa53b2" x="179.28" y="218.88" style="stroke: #000000; stroke-width: 0.8"/>
      </g>
     </g>
     <g id="text_17">
      <text style="font: 12px 'Tahoma', 'DejaVu Sans', 'Lucida Grande', 'Verdana', sans-serif; text-anchor: middle" x="179.28" y="234.998125" transform="rotate(-0 179.28 234.998125)">40</text>
     </g>
    </g>
    <g id="xtick_16">
     <g id="line2d_20">
      <g>
       <use xlink:href="#md7da3c9a29" x="106.860908" y="218.88" style="stroke: #000000; stroke-width: 0.6"/>
      </g>
     </g>
    </g>
    <g id="xtick_17">
     <g id="line2d_21">
      <g>
       <use xlink:href="#md7da3c9a29" x="131.000605" y="218.88" style="stroke: #000000; stroke-width: 0.6"/>
      </g>
     </g>
    </g>
    <g id="xtick_18">
     <g id="line2d_22">
      <g>
       <use xlink:href="#md7da3c9a29" x="155.140303" y="218.88" style="stroke: #000000; stroke-width: 0.6"/>
      </g>
     </g>
    </g>
    <g id="text_18">
     <text style="font: 12px 'Tahoma', 'DejaVu Sans', 'Lucida Grande', 'Verdana', sans-serif; text-anchor: middle" x="127.44" y="250.589375" transform="rotate(-0 127.44 250.589375)">Time after pulse [min]</text>
    </g>
   </g>
   <g id="matplotlib.axis_6">
    <g id="ytick_5">
     <g id="line2d_23">
      <g>
       <use xlink:href="#m3730f0ce24" x="75.6" y="218.88" style="stroke: #000000; stroke-width: 0.8"/>
      </g>
     </g>
     <g id="text_19">
      <text style="font: 12px 'Tahoma', 'DejaVu Sans', 'Lucida Grande', 'Verdana', sans-serif; text-anchor: end" x="68.6" y="223.439062" transform="rotate(-0 68.6 223.439062)">0%</text>
     </g>
    </g>
    <g id="ytick_6">
     <g id="line2d_24">
      <g>
       <use xlink:href="#m3730f0ce24" x="75.6" y="183.858011" style="stroke: #000000; stroke-width: 0.8"/>
      </g>
     </g>
     <g id="text_20">
      <text style="font: 12px 'Tahoma', 'DejaVu Sans', 'Lucida Grande', 'Verdana', sans-serif; text-anchor: end" x="68.6" y="188.417073" transform="rotate(-0 68.6 188.417073)">10%</text>
     </g>
    </g>
    <g id="text_21">
     <text style="font: 12px 'Tahoma', 'DejaVu Sans', 'Lucida Grande', 'Verdana', sans-serif; text-anchor: middle" x="37.36375" y="193.463607" transform="rotate(-90 37.36375 193.463607)">% of pulses</text>
    </g>
   </g>
   <g id="patch_126">
    <path d="M 75.6 218.88 
L 75.6 168.047213 
" style="fill: none; stroke: #000000; stroke-width: 0.8; stroke-linejoin: miter; stroke-linecap: square"/>
   </g>
   <g id="patch_127">
    <path d="M 75.6 218.88 
L 179.28 218.88 
" style="fill: none; stroke: #000000; stroke-width: 0.8; stroke-linejoin: miter; stroke-linecap: square"/>
   </g>
   <g id="text_22">
    <text style="font: 12px 'Tahoma', 'DejaVu Sans', 'Lucida Grande', 'Verdana', sans-serif; text-anchor: start" x="118.930757" y="183.297049" transform="rotate(-0 118.930757 183.297049)">Max decrement</text>
   </g>
   <g id="text_23">
    <text style="font: 700 17.28px 'Tahoma', 'DejaVu Sans', 'Lucida Grande', 'Verdana', sans-serif; text-anchor: start" x="10.8" y="18.6021" transform="rotate(-0 10.8 18.6021)">E</text>
   </g>
  </g>
 </g>
 <defs>
  <clipPath id="p1eb8734cc9">
   <rect x="75.6" y="32.832" width="103.68" height="50.832787"/>
  </clipPath>
  <clipPath id="pdc856e0c96">
   <rect x="75.6" y="100.439607" width="103.68" height="50.832787"/>
  </clipPath>
  <clipPath id="pf7017766b1">
   <rect x="75.6" y="168.047213" width="103.68" height="50.832787"/>
  </clipPath>
 </defs>
</svg>
