<?xml version="1.0" encoding="utf-8" standalone="no"?>
<!DOCTYPE svg PUBLIC "-//W3C//DTD SVG 1.1//EN"
  "http://www.w3.org/Graphics/SVG/1.1/DTD/svg11.dtd">
<svg height="100.8pt" version="1.1" viewBox="0 0 216 100.8" width="216pt" xmlns="http://www.w3.org/2000/svg" xmlns:xlink="http://www.w3.org/1999/xlink">
 <metadata>
  <rdf:RDF xmlns:cc="http://creativecommons.org/ns#" xmlns:dc="http://purl.org/dc/elements/1.1/" xmlns:rdf="http://www.w3.org/1999/02/22-rdf-syntax-ns#">
   <cc:Work>
    <dc:type rdf:resource="http://purl.org/dc/dcmitype/StillImage"/>
    <dc:date>2023-03-30T10:49:44.745587</dc:date>
    <dc:format>image/svg+xml</dc:format>
    <dc:creator>
     <cc:Agent>
      <dc:title>Matplotlib v3.4.2, https://matplotlib.org/</dc:title>
     </cc:Agent>
    </dc:creator>
   </cc:Work>
  </rdf:RDF>
 </metadata>
 <defs>
  <style type="text/css">*{stroke-linecap:butt;stroke-linejoin:round;}</style>
 </defs>
 <g id="figure_1">
  <g id="patch_1">
   <path d="M 0 100.8 
L 216 100.8 
L 216 0 
L 0 0 
z
" style="fill:#ffffff;"/>
  </g>
  <g id="axes_1">
   <g id="patch_2">
    <path d="M 75.6 65.52 
L 194.4 65.52 
L 194.4 5.04 
L 75.6 5.04 
z
" style="fill:#ffffff;"/>
   </g>
   <g id="patch_3">
    <path clip-path="url(#p44f2cbc7af)" d="M 81 65.52 
L 83.769231 65.52 
L 83.769231 65.52 
L 81 65.52 
z
" style="fill:#1f77b4;opacity:0.6;"/>
   </g>
   <g id="patch_4">
    <path clip-path="url(#p44f2cbc7af)" d="M 83.769231 65.52 
L 86.538462 65.52 
L 86.538462 65.52 
L 83.769231 65.52 
z
" style="fill:#1f77b4;opacity:0.6;"/>
   </g>
   <g id="patch_5">
    <path clip-path="url(#p44f2cbc7af)" d="M 86.538462 65.52 
L 89.307692 65.52 
L 89.307692 65.52 
L 86.538462 65.52 
z
" style="fill:#1f77b4;opacity:0.6;"/>
   </g>
   <g id="patch_6">
    <path clip-path="url(#p44f2cbc7af)" d="M 89.307692 65.52 
L 92.076923 65.52 
L 92.076923 65.52 
L 89.307692 65.52 
z
" style="fill:#1f77b4;opacity:0.6;"/>
   </g>
   <g id="patch_7">
    <path clip-path="url(#p44f2cbc7af)" d="M 92.076923 65.52 
L 94.846154 65.52 
L 94.846154 65.52 
L 92.076923 65.52 
z
" style="fill:#1f77b4;opacity:0.6;"/>
   </g>
   <g id="patch_8">
    <path clip-path="url(#p44f2cbc7af)" d="M 94.846154 65.52 
L 97.615385 65.52 
L 97.615385 65.52 
L 94.846154 65.52 
z
" style="fill:#1f77b4;opacity:0.6;"/>
   </g>
   <g id="patch_9">
    <path clip-path="url(#p44f2cbc7af)" d="M 97.615385 65.52 
L 100.384615 65.52 
L 100.384615 65.52 
L 97.615385 65.52 
z
" style="fill:#1f77b4;opacity:0.6;"/>
   </g>
   <g id="patch_10">
    <path clip-path="url(#p44f2cbc7af)" d="M 100.384615 65.52 
L 103.153846 65.52 
L 103.153846 65.52 
L 100.384615 65.52 
z
" style="fill:#1f77b4;opacity:0.6;"/>
   </g>
   <g id="patch_11">
    <path clip-path="url(#p44f2cbc7af)" d="M 103.153846 65.52 
L 105.923077 65.52 
L 105.923077 65.52 
L 103.153846 65.52 
z
" style="fill:#1f77b4;opacity:0.6;"/>
   </g>
   <g id="patch_12">
    <path clip-path="url(#p44f2cbc7af)" d="M 105.923077 65.52 
L 108.692308 65.52 
L 108.692308 65.52 
L 105.923077 65.52 
z
" style="fill:#1f77b4;opacity:0.6;"/>
   </g>
   <g id="patch_13">
    <path clip-path="url(#p44f2cbc7af)" d="M 108.692308 65.52 
L 111.461538 65.52 
L 111.461538 65.52 
L 108.692308 65.52 
z
" style="fill:#1f77b4;opacity:0.6;"/>
   </g>
   <g id="patch_14">
    <path clip-path="url(#p44f2cbc7af)" d="M 111.461538 65.52 
L 114.230769 65.52 
L 114.230769 65.52 
L 111.461538 65.52 
z
" style="fill:#1f77b4;opacity:0.6;"/>
   </g>
   <g id="patch_15">
    <path clip-path="url(#p44f2cbc7af)" d="M 114.230769 65.52 
L 117 65.52 
L 117 65.52 
L 114.230769 65.52 
z
" style="fill:#1f77b4;opacity:0.6;"/>
   </g>
   <g id="patch_16">
    <path clip-path="url(#p44f2cbc7af)" d="M 117 65.52 
L 119.769231 65.52 
L 119.769231 65.52 
L 117 65.52 
z
" style="fill:#1f77b4;opacity:0.6;"/>
   </g>
   <g id="patch_17">
    <path clip-path="url(#p44f2cbc7af)" d="M 119.769231 65.52 
L 122.538462 65.52 
L 122.538462 65.52 
L 119.769231 65.52 
z
" style="fill:#1f77b4;opacity:0.6;"/>
   </g>
   <g id="patch_18">
    <path clip-path="url(#p44f2cbc7af)" d="M 122.538462 65.52 
L 125.307692 65.52 
L 125.307692 65.52 
L 122.538462 65.52 
z
" style="fill:#1f77b4;opacity:0.6;"/>
   </g>
   <g id="patch_19">
    <path clip-path="url(#p44f2cbc7af)" d="M 125.307692 65.52 
L 128.076923 65.52 
L 128.076923 65.52 
L 125.307692 65.52 
z
" style="fill:#1f77b4;opacity:0.6;"/>
   </g>
   <g id="patch_20">
    <path clip-path="url(#p44f2cbc7af)" d="M 128.076923 65.52 
L 130.846154 65.52 
L 130.846154 65.52 
L 128.076923 65.52 
z
" style="fill:#1f77b4;opacity:0.6;"/>
   </g>
   <g id="patch_21">
    <path clip-path="url(#p44f2cbc7af)" d="M 130.846154 65.52 
L 133.615385 65.52 
L 133.615385 64.04421 
L 130.846154 64.04421 
z
" style="fill:#1f77b4;opacity:0.6;"/>
   </g>
   <g id="patch_22">
    <path clip-path="url(#p44f2cbc7af)" d="M 133.615385 65.52 
L 136.384615 65.52 
L 136.384615 61.730721 
L 133.615385 61.730721 
z
" style="fill:#1f77b4;opacity:0.6;"/>
   </g>
   <g id="patch_23">
    <path clip-path="url(#p44f2cbc7af)" d="M 136.384615 65.52 
L 139.153846 65.52 
L 139.153846 18.640659 
L 136.384615 18.640659 
z
" style="fill:#1f77b4;opacity:0.6;"/>
   </g>
   <g id="patch_24">
    <path clip-path="url(#p44f2cbc7af)" d="M 139.153846 65.52 
L 141.923077 65.52 
L 141.923077 60.944491 
L 139.153846 60.944491 
z
" style="fill:#1f77b4;opacity:0.6;"/>
   </g>
   <g id="patch_25">
    <path clip-path="url(#p44f2cbc7af)" d="M 141.923077 65.52 
L 144.692308 65.52 
L 144.692308 64.951361 
L 141.923077 64.951361 
z
" style="fill:#1f77b4;opacity:0.6;"/>
   </g>
   <g id="patch_26">
    <path clip-path="url(#p44f2cbc7af)" d="M 144.692308 65.52 
L 147.461538 65.52 
L 147.461538 65.212008 
L 144.692308 65.212008 
z
" style="fill:#1f77b4;opacity:0.6;"/>
   </g>
   <g id="patch_27">
    <path clip-path="url(#p44f2cbc7af)" d="M 147.461538 65.52 
L 150.230769 65.52 
L 150.230769 65.265952 
L 147.461538 65.265952 
z
" style="fill:#1f77b4;opacity:0.6;"/>
   </g>
   <g id="patch_28">
    <path clip-path="url(#p44f2cbc7af)" d="M 150.230769 65.52 
L 153 65.52 
L 153 65.280964 
L 150.230769 65.280964 
z
" style="fill:#1f77b4;opacity:0.6;"/>
   </g>
   <g id="patch_29">
    <path clip-path="url(#p44f2cbc7af)" d="M 153 65.52 
L 155.769231 65.52 
L 155.769231 65.293666 
L 153 65.293666 
z
" style="fill:#1f77b4;opacity:0.6;"/>
   </g>
   <g id="patch_30">
    <path clip-path="url(#p44f2cbc7af)" d="M 155.769231 65.52 
L 158.538462 65.52 
L 158.538462 65.352889 
L 155.769231 65.352889 
z
" style="fill:#1f77b4;opacity:0.6;"/>
   </g>
   <g id="patch_31">
    <path clip-path="url(#p44f2cbc7af)" d="M 158.538462 65.52 
L 161.307692 65.52 
L 161.307692 65.387037 
L 158.538462 65.387037 
z
" style="fill:#1f77b4;opacity:0.6;"/>
   </g>
   <g id="patch_32">
    <path clip-path="url(#p44f2cbc7af)" d="M 161.307692 65.52 
L 164.076923 65.52 
L 164.076923 65.374665 
L 161.307692 65.374665 
z
" style="fill:#1f77b4;opacity:0.6;"/>
   </g>
   <g id="patch_33">
    <path clip-path="url(#p44f2cbc7af)" d="M 164.076923 65.52 
L 166.846154 65.52 
L 166.846154 65.394131 
L 164.076923 65.394131 
z
" style="fill:#1f77b4;opacity:0.6;"/>
   </g>
   <g id="patch_34">
    <path clip-path="url(#p44f2cbc7af)" d="M 166.846154 65.52 
L 169.615385 65.52 
L 169.615385 65.355034 
L 166.846154 65.355034 
z
" style="fill:#1f77b4;opacity:0.6;"/>
   </g>
   <g id="patch_35">
    <path clip-path="url(#p44f2cbc7af)" d="M 169.615385 65.52 
L 172.384615 65.52 
L 172.384615 65.375324 
L 169.615385 65.375324 
z
" style="fill:#1f77b4;opacity:0.6;"/>
   </g>
   <g id="patch_36">
    <path clip-path="url(#p44f2cbc7af)" d="M 172.384615 65.52 
L 175.153846 65.52 
L 175.153846 65.351074 
L 172.384615 65.351074 
z
" style="fill:#1f77b4;opacity:0.6;"/>
   </g>
   <g id="patch_37">
    <path clip-path="url(#p44f2cbc7af)" d="M 175.153846 65.52 
L 177.923077 65.52 
L 177.923077 65.350744 
L 175.153846 65.350744 
z
" style="fill:#1f77b4;opacity:0.6;"/>
   </g>
   <g id="patch_38">
    <path clip-path="url(#p44f2cbc7af)" d="M 177.923077 65.52 
L 180.692308 65.52 
L 180.692308 65.331278 
L 177.923077 65.331278 
z
" style="fill:#1f77b4;opacity:0.6;"/>
   </g>
   <g id="patch_39">
    <path clip-path="url(#p44f2cbc7af)" d="M 180.692308 65.52 
L 183.461538 65.52 
L 183.461538 65.30109 
L 180.692308 65.30109 
z
" style="fill:#1f77b4;opacity:0.6;"/>
   </g>
   <g id="patch_40">
    <path clip-path="url(#p44f2cbc7af)" d="M 183.461538 65.52 
L 186.230769 65.52 
L 186.230769 65.241042 
L 183.461538 65.241042 
z
" style="fill:#1f77b4;opacity:0.6;"/>
   </g>
   <g id="patch_41">
    <path clip-path="url(#p44f2cbc7af)" d="M 186.230769 65.52 
L 189 65.52 
L 189 65.261663 
L 186.230769 65.261663 
z
" style="fill:#1f77b4;opacity:0.6;"/>
   </g>
   <g id="matplotlib.axis_1">
    <g id="xtick_1">
     <g id="line2d_1">
      <defs>
       <path d="M 0 0 
L 0 3.5 
" id="mdbbc26b9eb" style="stroke:#000000;stroke-width:0.8;"/>
      </defs>
      <g>
       <use style="stroke:#000000;stroke-width:0.8;" x="82.384615" xlink:href="#mdbbc26b9eb" y="65.52"/>
      </g>
     </g>
     <g id="text_1">
      <text style="font-family:Tahoma;font-size:12px;font-stretch:normal;font-style:normal;font-weight:normal;text-anchor:middle;" transform="rotate(-0, 82.384615, 81.638125)" x="82.384615" y="81.638125">−20</text>
     </g>
    </g>
    <g id="xtick_2">
     <g id="line2d_2">
      <g>
       <use style="stroke:#000000;stroke-width:0.8;" x="137.769231" xlink:href="#mdbbc26b9eb" y="65.52"/>
      </g>
     </g>
     <g id="text_2">
      <text style="font-family:Tahoma;font-size:12px;font-stretch:normal;font-style:normal;font-weight:normal;text-anchor:middle;" transform="rotate(-0, 137.769231, 81.638125)" x="137.769231" y="81.638125">0</text>
     </g>
    </g>
    <g id="xtick_3">
     <g id="line2d_3">
      <g>
       <use style="stroke:#000000;stroke-width:0.8;" x="193.153846" xlink:href="#mdbbc26b9eb" y="65.52"/>
      </g>
     </g>
     <g id="text_3">
      <text style="font-family:Tahoma;font-size:12px;font-stretch:normal;font-style:normal;font-weight:normal;text-anchor:middle;" transform="rotate(-0, 193.153846, 81.638125)" x="193.153846" y="81.638125">20</text>
     </g>
    </g>
    <g id="text_4">
     <!-- $t_{predicted} - t_{true}$ [min] -->
     <g transform="translate(77.7 97.173125)">
      <text>
       <tspan style="font-family:DejaVu Sans;font-size:12px;font-style:oblique;font-weight:oblique;" x="0 59.794922" y="-0.875">tt</tspan>
       <tspan style="font-family:DejaVu Sans;font-size:8.4px;font-style:oblique;font-weight:oblique;" x="4.705078 10.037109 13.490625 18.658594 23.990625 26.324414 30.942773 34.236328 39.404297 64.5 67.793555 71.24707 76.570898" y="1.09375">predictedtrue</tspan>
       <tspan style="font-family:DejaVu Sans;font-size:12px;font-style:book;font-weight:book;" x="47.402344" y="-0.875">−</tspan>
       <tspan style="font-family:Tahoma;font-size:12px;font-style:regular;font-weight:regular;" x="82.066992 85.816992 90.410742 100.488867 103.231055 109.922461" y="-0.875"> [min]</tspan>
      </text>
     </g>
    </g>
   </g>
   <g id="matplotlib.axis_2">
    <g id="ytick_1">
     <g id="line2d_4">
      <defs>
       <path d="M 0 0 
L -3.5 0 
" id="mc1d9e99fc4" style="stroke:#000000;stroke-width:0.8;"/>
      </defs>
      <g>
       <use style="stroke:#000000;stroke-width:0.8;" x="75.6" xlink:href="#mc1d9e99fc4" y="65.52"/>
      </g>
     </g>
     <g id="text_5">
      <text style="font-family:Tahoma;font-size:12px;font-stretch:normal;font-style:normal;font-weight:normal;text-anchor:end;" transform="rotate(-0, 68.6, 70.079063)" x="68.6" y="70.079063">0%</text>
     </g>
    </g>
    <g id="ytick_2">
     <g id="line2d_5">
      <g>
       <use style="stroke:#000000;stroke-width:0.8;" x="75.6" xlink:href="#mc1d9e99fc4" y="35.28"/>
      </g>
     </g>
     <g id="text_6">
      <text style="font-family:Tahoma;font-size:12px;font-stretch:normal;font-style:normal;font-weight:normal;text-anchor:end;" transform="rotate(-0, 68.6, 39.839062)" x="68.6" y="39.839062">50%</text>
     </g>
    </g>
    <g id="ytick_3">
     <g id="line2d_6">
      <g>
       <use style="stroke:#000000;stroke-width:0.8;" x="75.6" xlink:href="#mc1d9e99fc4" y="5.04"/>
      </g>
     </g>
     <g id="text_7">
      <text style="font-family:Tahoma;font-size:12px;font-stretch:normal;font-style:normal;font-weight:normal;text-anchor:end;" transform="rotate(-0, 68.6, 9.599063)" x="68.6" y="9.599063">100%</text>
     </g>
    </g>
    <g id="text_8">
     <text style="font-family:Tahoma;font-size:12px;font-stretch:normal;font-style:normal;font-weight:normal;text-anchor:middle;" transform="rotate(-90, 30.8125, 35.28)" x="30.8125" y="35.28">% of pulses</text>
    </g>
   </g>
   <g id="patch_42">
    <path d="M 75.6 65.52 
L 75.6 5.04 
" style="fill:none;stroke:#000000;stroke-linecap:square;stroke-linejoin:miter;stroke-width:0.8;"/>
   </g>
   <g id="patch_43">
    <path d="M 75.6 65.52 
L 194.4 65.52 
" style="fill:none;stroke:#000000;stroke-linecap:square;stroke-linejoin:miter;stroke-width:0.8;"/>
   </g>
   <g id="text_9">
    <text style="font-family:Tahoma;font-size:12px;font-stretch:normal;font-style:normal;font-weight:normal;text-anchor:start;" transform="rotate(-0, 82.384615, 13.835527)" x="82.384615" y="13.835527">Pulse detection precision</text>
   </g>
   <g id="text_10">
    <text style="font-family:Tahoma;font-size:17.28px;font-stretch:normal;font-style:normal;font-weight:bold;text-anchor:start;" transform="rotate(-0, 10.8, -10.0539)" x="10.8" y="-10.0539">F</text>
   </g>
  </g>
 </g>
 <defs>
  <clipPath id="p44f2cbc7af">
   <rect height="60.48" width="118.8" x="75.6" y="5.04"/>
  </clipPath>
 </defs>
</svg>
