<?xml version="1.0" encoding="utf-8" standalone="no"?>
<!DOCTYPE svg PUBLIC "-//W3C//DTD SVG 1.1//EN"
  "http://www.w3.org/Graphics/SVG/1.1/DTD/svg11.dtd">
<svg xmlns:xlink="http://www.w3.org/1999/xlink" width="216pt" height="100.8pt" viewBox="0 0 216 100.8" xmlns="http://www.w3.org/2000/svg" version="1.1">
 <metadata>
  <rdf:RDF xmlns:dc="http://purl.org/dc/elements/1.1/" xmlns:cc="http://creativecommons.org/ns#" xmlns:rdf="http://www.w3.org/1999/02/22-rdf-syntax-ns#">
   <cc:Work>
    <dc:type rdf:resource="http://purl.org/dc/dcmitype/StillImage"/>
    <dc:date>2023-04-07T15:48:31.572128</dc:date>
    <dc:format>image/svg+xml</dc:format>
    <dc:creator>
     <cc:Agent>
      <dc:title>Matplotlib v3.6.3, https://matplotlib.org/</dc:title>
     </cc:Agent>
    </dc:creator>
   </cc:Work>
  </rdf:RDF>
 </metadata>
 <defs>
  <style type="text/css">*{stroke-linejoin: round; stroke-linecap: butt}</style>
 </defs>
 <g id="figure_1">
  <g id="patch_1">
   <path d="M 0 100.8 
L 216 100.8 
L 216 0 
L 0 0 
z
" style="fill: #ffffff"/>
  </g>
  <g id="axes_1">
   <g id="patch_2">
    <path d="M 75.6 65.52 
L 194.4 65.52 
L 194.4 5.04 
L 75.6 5.04 
z
" style="fill: #ffffff"/>
   </g>
   <g id="patch_3">
    <path d="M 81 65.52 
L 83.769231 65.52 
L 83.769231 65.52 
L 81 65.52 
z
" clip-path="url(#p5a733f729a)" style="fill: #1f77b4; opacity: 0.6"/>
   </g>
   <g id="patch_4">
    <path d="M 83.769231 65.52 
L 86.538462 65.52 
L 86.538462 65.52 
L 83.769231 65.52 
z
" clip-path="url(#p5a733f729a)" style="fill: #1f77b4; opacity: 0.6"/>
   </g>
   <g id="patch_5">
    <path d="M 86.538462 65.52 
L 89.307692 65.52 
L 89.307692 65.52 
L 86.538462 65.52 
z
" clip-path="url(#p5a733f729a)" style="fill: #1f77b4; opacity: 0.6"/>
   </g>
   <g id="patch_6">
    <path d="M 89.307692 65.52 
L 92.076923 65.52 
L 92.076923 65.52 
L 89.307692 65.52 
z
" clip-path="url(#p5a733f729a)" style="fill: #1f77b4; opacity: 0.6"/>
   </g>
   <g id="patch_7">
    <path d="M 92.076923 65.52 
L 94.846154 65.52 
L 94.846154 65.52 
L 92.076923 65.52 
z
" clip-path="url(#p5a733f729a)" style="fill: #1f77b4; opacity: 0.6"/>
   </g>
   <g id="patch_8">
    <path d="M 94.846154 65.52 
L 97.615385 65.52 
L 97.615385 65.52 
L 94.846154 65.52 
z
" clip-path="url(#p5a733f729a)" style="fill: #1f77b4; opacity: 0.6"/>
   </g>
   <g id="patch_9">
    <path d="M 97.615385 65.52 
L 100.384615 65.52 
L 100.384615 65.52 
L 97.615385 65.52 
z
" clip-path="url(#p5a733f729a)" style="fill: #1f77b4; opacity: 0.6"/>
   </g>
   <g id="patch_10">
    <path d="M 100.384615 65.52 
L 103.153846 65.52 
L 103.153846 65.52 
L 100.384615 65.52 
z
" clip-path="url(#p5a733f729a)" style="fill: #1f77b4; opacity: 0.6"/>
   </g>
   <g id="patch_11">
    <path d="M 103.153846 65.52 
L 105.923077 65.52 
L 105.923077 65.52 
L 103.153846 65.52 
z
" clip-path="url(#p5a733f729a)" style="fill: #1f77b4; opacity: 0.6"/>
   </g>
   <g id="patch_12">
    <path d="M 105.923077 65.52 
L 108.692308 65.52 
L 108.692308 65.52 
L 105.923077 65.52 
z
" clip-path="url(#p5a733f729a)" style="fill: #1f77b4; opacity: 0.6"/>
   </g>
   <g id="patch_13">
    <path d="M 108.692308 65.52 
L 111.461538 65.52 
L 111.461538 65.52 
L 108.692308 65.52 
z
" clip-path="url(#p5a733f729a)" style="fill: #1f77b4; opacity: 0.6"/>
   </g>
   <g id="patch_14">
    <path d="M 111.461538 65.52 
L 114.230769 65.52 
L 114.230769 65.52 
L 111.461538 65.52 
z
" clip-path="url(#p5a733f729a)" style="fill: #1f77b4; opacity: 0.6"/>
   </g>
   <g id="patch_15">
    <path d="M 114.230769 65.52 
L 117 65.52 
L 117 65.52 
L 114.230769 65.52 
z
" clip-path="url(#p5a733f729a)" style="fill: #1f77b4; opacity: 0.6"/>
   </g>
   <g id="patch_16">
    <path d="M 117 65.52 
L 119.769231 65.52 
L 119.769231 65.52 
L 117 65.52 
z
" clip-path="url(#p5a733f729a)" style="fill: #1f77b4; opacity: 0.6"/>
   </g>
   <g id="patch_17">
    <path d="M 119.769231 65.52 
L 122.538462 65.52 
L 122.538462 65.52 
L 119.769231 65.52 
z
" clip-path="url(#p5a733f729a)" style="fill: #1f77b4; opacity: 0.6"/>
   </g>
   <g id="patch_18">
    <path d="M 122.538462 65.52 
L 125.307692 65.52 
L 125.307692 65.52 
L 122.538462 65.52 
z
" clip-path="url(#p5a733f729a)" style="fill: #1f77b4; opacity: 0.6"/>
   </g>
   <g id="patch_19">
    <path d="M 125.307692 65.52 
L 128.076923 65.52 
L 128.076923 65.52 
L 125.307692 65.52 
z
" clip-path="url(#p5a733f729a)" style="fill: #1f77b4; opacity: 0.6"/>
   </g>
   <g id="patch_20">
    <path d="M 128.076923 65.52 
L 130.846154 65.52 
L 130.846154 65.52 
L 128.076923 65.52 
z
" clip-path="url(#p5a733f729a)" style="fill: #1f77b4; opacity: 0.6"/>
   </g>
   <g id="patch_21">
    <path d="M 130.846154 65.52 
L 133.615385 65.52 
L 133.615385 64.04421 
L 130.846154 64.04421 
z
" clip-path="url(#p5a733f729a)" style="fill: #1f77b4; opacity: 0.6"/>
   </g>
   <g id="patch_22">
    <path d="M 133.615385 65.52 
L 136.384615 65.52 
L 136.384615 61.730721 
L 133.615385 61.730721 
z
" clip-path="url(#p5a733f729a)" style="fill: #1f77b4; opacity: 0.6"/>
   </g>
   <g id="patch_23">
    <path d="M 136.384615 65.52 
L 139.153846 65.52 
L 139.153846 18.640659 
L 136.384615 18.640659 
z
" clip-path="url(#p5a733f729a)" style="fill: #1f77b4; opacity: 0.6"/>
   </g>
   <g id="patch_24">
    <path d="M 139.153846 65.52 
L 141.923077 65.52 
L 141.923077 60.944491 
L 139.153846 60.944491 
z
" clip-path="url(#p5a733f729a)" style="fill: #1f77b4; opacity: 0.6"/>
   </g>
   <g id="patch_25">
    <path d="M 141.923077 65.52 
L 144.692308 65.52 
L 144.692308 64.951361 
L 141.923077 64.951361 
z
" clip-path="url(#p5a733f729a)" style="fill: #1f77b4; opacity: 0.6"/>
   </g>
   <g id="patch_26">
    <path d="M 144.692308 65.52 
L 147.461538 65.52 
L 147.461538 65.212008 
L 144.692308 65.212008 
z
" clip-path="url(#p5a733f729a)" style="fill: #1f77b4; opacity: 0.6"/>
   </g>
   <g id="patch_27">
    <path d="M 147.461538 65.52 
L 150.230769 65.52 
L 150.230769 65.265952 
L 147.461538 65.265952 
z
" clip-path="url(#p5a733f729a)" style="fill: #1f77b4; opacity: 0.6"/>
   </g>
   <g id="patch_28">
    <path d="M 150.230769 65.52 
L 153 65.52 
L 153 65.280964 
L 150.230769 65.280964 
z
" clip-path="url(#p5a733f729a)" style="fill: #1f77b4; opacity: 0.6"/>
   </g>
   <g id="patch_29">
    <path d="M 153 65.52 
L 155.769231 65.52 
L 155.769231 65.293666 
L 153 65.293666 
z
" clip-path="url(#p5a733f729a)" style="fill: #1f77b4; opacity: 0.6"/>
   </g>
   <g id="patch_30">
    <path d="M 155.769231 65.52 
L 158.538462 65.52 
L 158.538462 65.352889 
L 155.769231 65.352889 
z
" clip-path="url(#p5a733f729a)" style="fill: #1f77b4; opacity: 0.6"/>
   </g>
   <g id="patch_31">
    <path d="M 158.538462 65.52 
L 161.307692 65.52 
L 161.307692 65.387037 
L 158.538462 65.387037 
z
" clip-path="url(#p5a733f729a)" style="fill: #1f77b4; opacity: 0.6"/>
   </g>
   <g id="patch_32">
    <path d="M 161.307692 65.52 
L 164.076923 65.52 
L 164.076923 65.374665 
L 161.307692 65.374665 
z
" clip-path="url(#p5a733f729a)" style="fill: #1f77b4; opacity: 0.6"/>
   </g>
   <g id="patch_33">
    <path d="M 164.076923 65.52 
L 166.846154 65.52 
L 166.846154 65.394131 
L 164.076923 65.394131 
z
" clip-path="url(#p5a733f729a)" style="fill: #1f77b4; opacity: 0.6"/>
   </g>
   <g id="patch_34">
    <path d="M 166.846154 65.52 
L 169.615385 65.52 
L 169.615385 65.355034 
L 166.846154 65.355034 
z
" clip-path="url(#p5a733f729a)" style="fill: #1f77b4; opacity: 0.6"/>
   </g>
   <g id="patch_35">
    <path d="M 169.615385 65.52 
L 172.384615 65.52 
L 172.384615 65.375324 
L 169.615385 65.375324 
z
" clip-path="url(#p5a733f729a)" style="fill: #1f77b4; opacity: 0.6"/>
   </g>
   <g id="patch_36">
    <path d="M 172.384615 65.52 
L 175.153846 65.52 
L 175.153846 65.351074 
L 172.384615 65.351074 
z
" clip-path="url(#p5a733f729a)" style="fill: #1f77b4; opacity: 0.6"/>
   </g>
   <g id="patch_37">
    <path d="M 175.153846 65.52 
L 177.923077 65.52 
L 177.923077 65.350744 
L 175.153846 65.350744 
z
" clip-path="url(#p5a733f729a)" style="fill: #1f77b4; opacity: 0.6"/>
   </g>
   <g id="patch_38">
    <path d="M 177.923077 65.52 
L 180.692308 65.52 
L 180.692308 65.331278 
L 177.923077 65.331278 
z
" clip-path="url(#p5a733f729a)" style="fill: #1f77b4; opacity: 0.6"/>
   </g>
   <g id="patch_39">
    <path d="M 180.692308 65.52 
L 183.461538 65.52 
L 183.461538 65.30109 
L 180.692308 65.30109 
z
" clip-path="url(#p5a733f729a)" style="fill: #1f77b4; opacity: 0.6"/>
   </g>
   <g id="patch_40">
    <path d="M 183.461538 65.52 
L 186.230769 65.52 
L 186.230769 65.241042 
L 183.461538 65.241042 
z
" clip-path="url(#p5a733f729a)" style="fill: #1f77b4; opacity: 0.6"/>
   </g>
   <g id="patch_41">
    <path d="M 186.230769 65.52 
L 189 65.52 
L 189 65.261663 
L 186.230769 65.261663 
z
" clip-path="url(#p5a733f729a)" style="fill: #1f77b4; opacity: 0.6"/>
   </g>
   <g id="matplotlib.axis_1">
    <g id="xtick_1">
     <g id="line2d_1">
      <defs>
       <path id="m4ef3f0554a" d="M 0 0 
L 0 3.5 
" style="stroke: #000000; stroke-width: 0.8"/>
      </defs>
      <g>
       <use xlink:href="#m4ef3f0554a" x="82.384615" y="65.52" style="stroke: #000000; stroke-width: 0.8"/>
      </g>
     </g>
     <g id="text_1">
      <text style="font: 12px 'Tahoma', 'DejaVu Sans', 'Lucida Grande', 'Verdana', sans-serif; text-anchor: middle" x="82.384615" y="81.638125" transform="rotate(-0 82.384615 81.638125)">−20</text>
     </g>
    </g>
    <g id="xtick_2">
     <g id="line2d_2">
      <g>
       <use xlink:href="#m4ef3f0554a" x="137.769231" y="65.52" style="stroke: #000000; stroke-width: 0.8"/>
      </g>
     </g>
     <g id="text_2">
      <text style="font: 12px 'Tahoma', 'DejaVu Sans', 'Lucida Grande', 'Verdana', sans-serif; text-anchor: middle" x="137.769231" y="81.638125" transform="rotate(-0 137.769231 81.638125)">0</text>
     </g>
    </g>
    <g id="xtick_3">
     <g id="line2d_3">
      <g>
       <use xlink:href="#m4ef3f0554a" x="193.153846" y="65.52" style="stroke: #000000; stroke-width: 0.8"/>
      </g>
     </g>
     <g id="text_3">
      <text style="font: 12px 'Tahoma', 'DejaVu Sans', 'Lucida Grande', 'Verdana', sans-serif; text-anchor: middle" x="193.153846" y="81.638125" transform="rotate(-0 193.153846 81.638125)">20</text>
     </g>
    </g>
    <g id="text_4">
     <!-- $t_{predicted} - t_{true}$ [min] -->
     <g transform="translate(77.7 97.173125)">
      <text>
       <tspan style="font: oblique 12px 'DejaVu Sans'" x="0 59.794922" y="-0.875">tt</tspan>
       <tspan style="font: oblique 8.4px 'DejaVu Sans'" x="4.705078 10.037109 13.490625 18.658594 23.990625 26.324414 30.942773 34.236328 39.404297 64.5 67.793555 71.24707 76.570898" y="1.09375">predictedtrue</tspan>
       <tspan style="font: 12px 'DejaVu Sans'" x="47.402344" y="-0.875">−</tspan>
       <tspan style="font: 12px 'Tahoma'" x="82.066992 85.816992 90.410742 100.488867 103.231055 109.922461" y="-0.875"> [min]</tspan>
      </text>
     </g>
    </g>
   </g>
   <g id="matplotlib.axis_2">
    <g id="ytick_1">
     <g id="line2d_4">
      <defs>
       <path id="m0010351ef8" d="M 0 0 
L -3.5 0 
" style="stroke: #000000; stroke-width: 0.8"/>
      </defs>
      <g>
       <use xlink:href="#m0010351ef8" x="75.6" y="65.52" style="stroke: #000000; stroke-width: 0.8"/>
      </g>
     </g>
     <g id="text_5">
      <text style="font: 12px 'Tahoma', 'DejaVu Sans', 'Lucida Grande', 'Verdana', sans-serif; text-anchor: end" x="68.6" y="70.079063" transform="rotate(-0 68.6 70.079063)">0%</text>
     </g>
    </g>
    <g id="ytick_2">
     <g id="line2d_5">
      <g>
       <use xlink:href="#m0010351ef8" x="75.6" y="35.28" style="stroke: #000000; stroke-width: 0.8"/>
      </g>
     </g>
     <g id="text_6">
      <text style="font: 12px 'Tahoma', 'DejaVu Sans', 'Lucida Grande', 'Verdana', sans-serif; text-anchor: end" x="68.6" y="39.839062" transform="rotate(-0 68.6 39.839062)">50%</text>
     </g>
    </g>
    <g id="ytick_3">
     <g id="line2d_6">
      <g>
       <use xlink:href="#m0010351ef8" x="75.6" y="5.04" style="stroke: #000000; stroke-width: 0.8"/>
      </g>
     </g>
     <g id="text_7">
      <text style="font: 12px 'Tahoma', 'DejaVu Sans', 'Lucida Grande', 'Verdana', sans-serif; text-anchor: end" x="68.6" y="9.599063" transform="rotate(-0 68.6 9.599063)">100%</text>
     </g>
    </g>
    <g id="text_8">
     <text style="font: 12px 'Tahoma', 'DejaVu Sans', 'Lucida Grande', 'Verdana', sans-serif; text-anchor: middle" x="30.8125" y="35.28" transform="rotate(-90 30.8125 35.28)">% of pulses</text>
    </g>
   </g>
   <g id="patch_42">
    <path d="M 75.6 65.52 
L 75.6 5.04 
" style="fill: none; stroke: #000000; stroke-width: 0.8; stroke-linejoin: miter; stroke-linecap: square"/>
   </g>
   <g id="patch_43">
    <path d="M 75.6 65.52 
L 194.4 65.52 
" style="fill: none; stroke: #000000; stroke-width: 0.8; stroke-linejoin: miter; stroke-linecap: square"/>
   </g>
   <g id="text_9">
    <text style="font: 12px 'Tahoma', 'DejaVu Sans', 'Lucida Grande', 'Verdana', sans-serif; text-anchor: start" x="82.384615" y="13.835527" transform="rotate(-0 82.384615 13.835527)">Pulse detection precision</text>
   </g>
   <g id="text_10">
    <text style="font: 700 17.28px 'Tahoma', 'DejaVu Sans', 'Lucida Grande', 'Verdana', sans-serif; text-anchor: start" x="10.8" y="-10.0539" transform="rotate(-0 10.8 -10.0539)">F</text>
   </g>
  </g>
 </g>
 <defs>
  <clipPath id="p5a733f729a">
   <rect x="75.6" y="5.04" width="118.8" height="60.48"/>
  </clipPath>
 </defs>
</svg>
