<?xml version="1.0" encoding="utf-8" standalone="no"?>
<!DOCTYPE svg PUBLIC "-//W3C//DTD SVG 1.1//EN"
  "http://www.w3.org/Graphics/SVG/1.1/DTD/svg11.dtd">
<svg height="252pt" version="1.1" viewBox="0 0 324 252" width="324pt" xmlns="http://www.w3.org/2000/svg" xmlns:xlink="http://www.w3.org/1999/xlink">
 <metadata>
  <rdf:RDF xmlns:cc="http://creativecommons.org/ns#" xmlns:dc="http://purl.org/dc/elements/1.1/" xmlns:rdf="http://www.w3.org/1999/02/22-rdf-syntax-ns#">
   <cc:Work>
    <dc:type rdf:resource="http://purl.org/dc/dcmitype/StillImage"/>
    <dc:date>2023-04-19T12:31:20.158241</dc:date>
    <dc:format>image/svg+xml</dc:format>
    <dc:creator>
     <cc:Agent>
      <dc:title>Matplotlib v3.4.2, https://matplotlib.org/</dc:title>
     </cc:Agent>
    </dc:creator>
   </cc:Work>
  </rdf:RDF>
 </metadata>
 <defs>
  <style type="text/css">*{stroke-linecap:butt;stroke-linejoin:round;}</style>
 </defs>
 <g id="figure_1">
  <g id="patch_1">
   <path d="M 0 252 
L 324 252 
L 324 0 
L 0 0 
z
" style="fill:#ffffff;"/>
  </g>
  <g id="axes_1">
   <g id="patch_2">
    <path d="M 48.6 189 
L 291.6 189 
L 291.6 30.24 
L 48.6 30.24 
z
" style="fill:#ffffff;"/>
   </g>
   <g id="patch_3">
    <path clip-path="url(#p597e36bf24)" d="M 57.278571 189 
L 74.635714 189 
L 74.635714 159.178844 
L 57.278571 159.178844 
z
"/>
   </g>
   <g id="patch_4">
    <path clip-path="url(#p597e36bf24)" d="M 91.992857 189 
L 109.35 189 
L 109.35 160.782449 
L 91.992857 160.782449 
z
"/>
   </g>
   <g id="patch_5">
    <path clip-path="url(#p597e36bf24)" d="M 126.707143 189 
L 144.064286 189 
L 144.064286 163.563581 
L 126.707143 163.563581 
z
"/>
   </g>
   <g id="patch_6">
    <path clip-path="url(#p597e36bf24)" d="M 161.421429 189 
L 178.778571 189 
L 178.778571 167.142911 
L 161.421429 167.142911 
z
"/>
   </g>
   <g id="patch_7">
    <path clip-path="url(#p597e36bf24)" d="M 196.135714 189 
L 213.492857 189 
L 213.492857 172.606596 
L 196.135714 172.606596 
z
"/>
   </g>
   <g id="patch_8">
    <path clip-path="url(#p597e36bf24)" d="M 230.85 189 
L 248.207143 189 
L 248.207143 175.517029 
L 230.85 175.517029 
z
"/>
   </g>
   <g id="patch_9">
    <path clip-path="url(#p597e36bf24)" d="M 265.564286 189 
L 282.921429 189 
L 282.921429 179.543345 
L 265.564286 179.543345 
z
"/>
   </g>
   <g id="patch_10">
    <path clip-path="url(#p597e36bf24)" d="M 57.278571 189 
L 74.635714 189 
L 74.635714 189 
L 57.278571 189 
z
" style="fill:#00b1b1;"/>
   </g>
   <g id="patch_11">
    <path clip-path="url(#p597e36bf24)" d="M 91.992857 189 
L 109.35 189 
L 109.35 189 
L 91.992857 189 
z
" style="fill:#00b1b1;"/>
   </g>
   <g id="patch_12">
    <path clip-path="url(#p597e36bf24)" d="M 126.707143 189 
L 144.064286 189 
L 144.064286 189 
L 126.707143 189 
z
" style="fill:#00b1b1;"/>
   </g>
   <g id="patch_13">
    <path clip-path="url(#p597e36bf24)" d="M 161.421429 189 
L 178.778571 189 
L 178.778571 189 
L 161.421429 189 
z
" style="fill:#00b1b1;"/>
   </g>
   <g id="patch_14">
    <path clip-path="url(#p597e36bf24)" d="M 196.135714 189 
L 213.492857 189 
L 213.492857 189 
L 196.135714 189 
z
" style="fill:#00b1b1;"/>
   </g>
   <g id="patch_15">
    <path clip-path="url(#p597e36bf24)" d="M 230.85 189 
L 248.207143 189 
L 248.207143 189 
L 230.85 189 
z
" style="fill:#00b1b1;"/>
   </g>
   <g id="patch_16">
    <path clip-path="url(#p597e36bf24)" d="M 265.564286 189 
L 282.921429 189 
L 282.921429 189 
L 265.564286 189 
z
" style="fill:#00b1b1;"/>
   </g>
   <g id="patch_17">
    <path clip-path="url(#p597e36bf24)" d="M 57.278571 159.178844 
L 74.635714 159.178844 
L 74.635714 105.153752 
L 57.278571 105.153752 
z
" style="fill:#577bfe;"/>
   </g>
   <g id="patch_18">
    <path clip-path="url(#p597e36bf24)" d="M 91.992857 160.782449 
L 109.35 160.782449 
L 109.35 127.676421 
L 91.992857 127.676421 
z
" style="fill:#577bfe;"/>
   </g>
   <g id="patch_19">
    <path clip-path="url(#p597e36bf24)" d="M 126.707143 163.563581 
L 144.064286 163.563581 
L 144.064286 143.528897 
L 126.707143 143.528897 
z
" style="fill:#577bfe;"/>
   </g>
   <g id="patch_20">
    <path clip-path="url(#p597e36bf24)" d="M 161.421429 167.142911 
L 178.778571 167.142911 
L 178.778571 155.841451 
L 161.421429 155.841451 
z
" style="fill:#577bfe;"/>
   </g>
   <g id="patch_21">
    <path clip-path="url(#p597e36bf24)" d="M 196.135714 172.606596 
L 213.492857 172.606596 
L 213.492857 166.136801 
L 196.135714 166.136801 
z
" style="fill:#577bfe;"/>
   </g>
   <g id="patch_22">
    <path clip-path="url(#p597e36bf24)" d="M 230.85 175.517029 
L 248.207143 175.517029 
L 248.207143 172.132516 
L 230.85 172.132516 
z
" style="fill:#577bfe;"/>
   </g>
   <g id="patch_23">
    <path clip-path="url(#p597e36bf24)" d="M 265.564286 179.543345 
L 282.921429 179.543345 
L 282.921429 177.583936 
L 265.564286 177.583936 
z
" style="fill:#577bfe;"/>
   </g>
   <g id="patch_24">
    <path clip-path="url(#p597e36bf24)" d="M 57.278571 105.153752 
L 74.635714 105.153752 
L 74.635714 67.121061 
L 57.278571 67.121061 
z
" style="fill:#bc00bc;"/>
   </g>
   <g id="patch_25">
    <path clip-path="url(#p597e36bf24)" d="M 91.992857 127.676421 
L 109.35 127.676421 
L 109.35 115.872637 
L 91.992857 115.872637 
z
" style="fill:#bc00bc;"/>
   </g>
   <g id="patch_26">
    <path clip-path="url(#p597e36bf24)" d="M 126.707143 143.528897 
L 144.064286 143.528897 
L 144.064286 136.766169 
L 126.707143 136.766169 
z
" style="fill:#bc00bc;"/>
   </g>
   <g id="patch_27">
    <path clip-path="url(#p597e36bf24)" d="M 161.421429 155.841451 
L 178.778571 155.841451 
L 178.778571 152.434485 
L 161.421429 152.434485 
z
" style="fill:#bc00bc;"/>
   </g>
   <g id="patch_28">
    <path clip-path="url(#p597e36bf24)" d="M 196.135714 166.136801 
L 213.492857 166.136801 
L 213.492857 164.622968 
L 196.135714 164.622968 
z
" style="fill:#bc00bc;"/>
   </g>
   <g id="patch_29">
    <path clip-path="url(#p597e36bf24)" d="M 230.85 172.132516 
L 248.207143 172.132516 
L 248.207143 170.714634 
L 230.85 170.714634 
z
" style="fill:#bc00bc;"/>
   </g>
   <g id="patch_30">
    <path clip-path="url(#p597e36bf24)" d="M 265.564286 177.583936 
L 282.921429 177.583936 
L 282.921429 176.813319 
L 265.564286 176.813319 
z
" style="fill:#bc00bc;"/>
   </g>
   <g id="matplotlib.axis_1">
    <g id="xtick_1">
     <g id="line2d_1">
      <defs>
       <path d="M 0 0 
L 0 3.5 
" id="mf5724eece9" style="stroke:#000000;stroke-width:0.8;"/>
      </defs>
      <g>
       <use style="stroke:#000000;stroke-width:0.8;" x="65.957143" xlink:href="#mf5724eece9" y="189"/>
      </g>
     </g>
     <g id="text_1">
      <text style="font-family:Tahoma;font-size:10px;font-stretch:normal;font-style:normal;font-weight:normal;text-anchor:middle;" transform="rotate(-0, 65.957143, 203.598437)" x="65.957143" y="203.598437">3</text>
     </g>
    </g>
    <g id="xtick_2">
     <g id="line2d_2">
      <g>
       <use style="stroke:#000000;stroke-width:0.8;" x="100.671429" xlink:href="#mf5724eece9" y="189"/>
      </g>
     </g>
     <g id="text_2">
      <text style="font-family:Tahoma;font-size:10px;font-stretch:normal;font-style:normal;font-weight:normal;text-anchor:middle;" transform="rotate(-0, 100.671429, 203.598437)" x="100.671429" y="203.598437">5</text>
     </g>
    </g>
    <g id="xtick_3">
     <g id="line2d_3">
      <g>
       <use style="stroke:#000000;stroke-width:0.8;" x="135.385714" xlink:href="#mf5724eece9" y="189"/>
      </g>
     </g>
     <g id="text_3">
      <text style="font-family:Tahoma;font-size:10px;font-stretch:normal;font-style:normal;font-weight:normal;text-anchor:middle;" transform="rotate(-0, 135.385714, 203.598437)" x="135.385714" y="203.598437">7</text>
     </g>
    </g>
    <g id="xtick_4">
     <g id="line2d_4">
      <g>
       <use style="stroke:#000000;stroke-width:0.8;" x="170.1" xlink:href="#mf5724eece9" y="189"/>
      </g>
     </g>
     <g id="text_4">
      <text style="font-family:Tahoma;font-size:10px;font-stretch:normal;font-style:normal;font-weight:normal;text-anchor:middle;" transform="rotate(-0, 170.1, 203.598437)" x="170.1" y="203.598437">10</text>
     </g>
    </g>
    <g id="xtick_5">
     <g id="line2d_5">
      <g>
       <use style="stroke:#000000;stroke-width:0.8;" x="204.814286" xlink:href="#mf5724eece9" y="189"/>
      </g>
     </g>
     <g id="text_5">
      <text style="font-family:Tahoma;font-size:10px;font-stretch:normal;font-style:normal;font-weight:normal;text-anchor:middle;" transform="rotate(-0, 204.814286, 203.598437)" x="204.814286" y="203.598437">15</text>
     </g>
    </g>
    <g id="xtick_6">
     <g id="line2d_6">
      <g>
       <use style="stroke:#000000;stroke-width:0.8;" x="239.528571" xlink:href="#mf5724eece9" y="189"/>
      </g>
     </g>
     <g id="text_6">
      <text style="font-family:Tahoma;font-size:10px;font-stretch:normal;font-style:normal;font-weight:normal;text-anchor:middle;" transform="rotate(-0, 239.528571, 203.598437)" x="239.528571" y="203.598437">20</text>
     </g>
    </g>
    <g id="xtick_7">
     <g id="line2d_7">
      <g>
       <use style="stroke:#000000;stroke-width:0.8;" x="274.242857" xlink:href="#mf5724eece9" y="189"/>
      </g>
     </g>
     <g id="text_7">
      <text style="font-family:Tahoma;font-size:10px;font-stretch:normal;font-style:normal;font-weight:normal;text-anchor:middle;" transform="rotate(-0, 274.242857, 203.598437)" x="274.242857" y="203.598437">30</text>
     </g>
    </g>
    <g id="text_8">
     <text style="font-family:Tahoma;font-size:10px;font-stretch:normal;font-style:normal;font-weight:normal;text-anchor:middle;" transform="rotate(-0, 170.1, 217.209375)" x="170.1" y="217.209375">Clock period [min]</text>
    </g>
   </g>
   <g id="matplotlib.axis_2">
    <g id="ytick_1">
     <g id="line2d_8">
      <defs>
       <path d="M 0 0 
L -3.5 0 
" id="m9bacc24c39" style="stroke:#000000;stroke-width:0.8;"/>
      </defs>
      <g>
       <use style="stroke:#000000;stroke-width:0.8;" x="48.6" xlink:href="#m9bacc24c39" y="189"/>
      </g>
     </g>
     <g id="text_9">
      <text style="font-family:Tahoma;font-size:10px;font-stretch:normal;font-style:normal;font-weight:normal;text-anchor:end;" transform="rotate(-0, 41.6, 192.799219)" x="41.6" y="192.799219">0</text>
     </g>
    </g>
    <g id="ytick_2">
     <g id="line2d_9">
      <g>
       <use style="stroke:#000000;stroke-width:0.8;" x="48.6" xlink:href="#m9bacc24c39" y="158.469231"/>
      </g>
     </g>
     <g id="text_10">
      <text style="font-family:Tahoma;font-size:10px;font-stretch:normal;font-style:normal;font-weight:normal;text-anchor:end;" transform="rotate(-0, 41.6, 162.26845)" x="41.6" y="162.26845">5</text>
     </g>
    </g>
    <g id="ytick_3">
     <g id="line2d_10">
      <g>
       <use style="stroke:#000000;stroke-width:0.8;" x="48.6" xlink:href="#m9bacc24c39" y="127.938462"/>
      </g>
     </g>
     <g id="text_11">
      <text style="font-family:Tahoma;font-size:10px;font-stretch:normal;font-style:normal;font-weight:normal;text-anchor:end;" transform="rotate(-0, 41.6, 131.73768)" x="41.6" y="131.73768">10</text>
     </g>
    </g>
    <g id="ytick_4">
     <g id="line2d_11">
      <g>
       <use style="stroke:#000000;stroke-width:0.8;" x="48.6" xlink:href="#m9bacc24c39" y="97.407692"/>
      </g>
     </g>
     <g id="text_12">
      <text style="font-family:Tahoma;font-size:10px;font-stretch:normal;font-style:normal;font-weight:normal;text-anchor:end;" transform="rotate(-0, 41.6, 101.206911)" x="41.6" y="101.206911">15</text>
     </g>
    </g>
    <g id="ytick_5">
     <g id="line2d_12">
      <g>
       <use style="stroke:#000000;stroke-width:0.8;" x="48.6" xlink:href="#m9bacc24c39" y="66.876923"/>
      </g>
     </g>
     <g id="text_13">
      <text style="font-family:Tahoma;font-size:10px;font-stretch:normal;font-style:normal;font-weight:normal;text-anchor:end;" transform="rotate(-0, 41.6, 70.676142)" x="41.6" y="70.676142">20</text>
     </g>
    </g>
    <g id="ytick_6">
     <g id="line2d_13">
      <g>
       <use style="stroke:#000000;stroke-width:0.8;" x="48.6" xlink:href="#m9bacc24c39" y="36.346154"/>
      </g>
     </g>
     <g id="text_14">
      <text style="font-family:Tahoma;font-size:10px;font-stretch:normal;font-style:normal;font-weight:normal;text-anchor:end;" transform="rotate(-0, 41.6, 40.145373)" x="41.6" y="40.145373">25</text>
     </g>
    </g>
    <g id="text_15">
     <text style="font-family:Tahoma;font-size:10px;font-stretch:normal;font-style:normal;font-weight:normal;text-anchor:middle;" transform="rotate(-90, 24.66875, 109.62)" x="24.66875" y="109.62">Lost an transmitted information rate [bit/h]</text>
    </g>
   </g>
   <g id="patch_31">
    <path d="M 48.6 189 
L 48.6 30.24 
" style="fill:none;stroke:#000000;stroke-linecap:square;stroke-linejoin:miter;stroke-width:0.8;"/>
   </g>
   <g id="patch_32">
    <path d="M 291.6 189 
L 291.6 30.24 
" style="fill:none;stroke:#000000;stroke-linecap:square;stroke-linejoin:miter;stroke-width:0.8;"/>
   </g>
   <g id="patch_33">
    <path d="M 48.6 189 
L 291.6 189 
" style="fill:none;stroke:#000000;stroke-linecap:square;stroke-linejoin:miter;stroke-width:0.8;"/>
   </g>
   <g id="patch_34">
    <path d="M 48.6 30.24 
L 291.6 30.24 
" style="fill:none;stroke:#000000;stroke-linecap:square;stroke-linejoin:miter;stroke-width:0.8;"/>
   </g>
   <g id="text_16">
    <text style="font-family:Tahoma;font-size:17.28px;font-stretch:normal;font-style:normal;font-weight:bold;text-anchor:start;" transform="rotate(-0, 6.48, 18.1701)" x="6.48" y="18.1701">B</text>
   </g>
   <g id="legend_1">
    <g id="patch_35">
     <path d="M 133.996875 82.072812 
L 284.6 82.072812 
Q 286.6 82.072812 286.6 80.072812 
L 286.6 37.24 
Q 286.6 35.24 284.6 35.24 
L 133.996875 35.24 
Q 131.996875 35.24 131.996875 37.24 
L 131.996875 80.072812 
Q 131.996875 82.072812 133.996875 82.072812 
z
" style="fill:#ffffff;opacity:0.8;stroke:#cccccc;stroke-linejoin:miter;"/>
    </g>
    <g id="patch_36">
     <path d="M 135.996875 46.838437 
L 155.996875 46.838437 
L 155.996875 39.838437 
L 135.996875 39.838437 
z
" style="fill:#bc00bc;"/>
    </g>
    <g id="text_17">
     <text style="font-family:Tahoma;font-size:10px;font-stretch:normal;font-style:normal;font-weight:normal;text-anchor:start;" transform="rotate(-0, 163.996875, 46.838437)" x="163.996875" y="46.838437">lost due to false detections</text>
    </g>
    <g id="patch_37">
     <path d="M 135.996875 61.449375 
L 155.996875 61.449375 
L 155.996875 54.449375 
L 135.996875 54.449375 
z
" style="fill:#577bfe;"/>
    </g>
    <g id="text_18">
     <text style="font-family:Tahoma;font-size:10px;font-stretch:normal;font-style:normal;font-weight:normal;text-anchor:start;" transform="rotate(-0, 163.996875, 61.449375)" x="163.996875" y="61.449375">lost due to missed pulses</text>
    </g>
    <g id="patch_38">
     <path d="M 135.996875 76.060313 
L 155.996875 76.060313 
L 155.996875 69.060313 
L 135.996875 69.060313 
z
"/>
    </g>
    <g id="text_19">
     <text style="font-family:Tahoma;font-size:10px;font-stretch:normal;font-style:normal;font-weight:normal;text-anchor:start;" transform="rotate(-0, 163.996875, 76.060313)" x="163.996875" y="76.060313">transmitted</text>
    </g>
   </g>
  </g>
 </g>
 <defs>
  <clipPath id="p597e36bf24">
   <rect height="158.76" width="243" x="48.6" y="30.24"/>
  </clipPath>
 </defs>
</svg>
