<?xml version="1.0" encoding="utf-8" standalone="no"?>
<!DOCTYPE svg PUBLIC "-//W3C//DTD SVG 1.1//EN"
  "http://www.w3.org/Graphics/SVG/1.1/DTD/svg11.dtd">
<svg height="252pt" version="1.1" viewBox="0 0 324 252" width="324pt" xmlns="http://www.w3.org/2000/svg" xmlns:xlink="http://www.w3.org/1999/xlink">
 <metadata>
  <rdf:RDF xmlns:cc="http://creativecommons.org/ns#" xmlns:dc="http://purl.org/dc/elements/1.1/" xmlns:rdf="http://www.w3.org/1999/02/22-rdf-syntax-ns#">
   <cc:Work>
    <dc:type rdf:resource="http://purl.org/dc/dcmitype/StillImage"/>
    <dc:date>2023-03-30T14:00:01.688111</dc:date>
    <dc:format>image/svg+xml</dc:format>
    <dc:creator>
     <cc:Agent>
      <dc:title>Matplotlib v3.4.2, https://matplotlib.org/</dc:title>
     </cc:Agent>
    </dc:creator>
   </cc:Work>
  </rdf:RDF>
 </metadata>
 <defs>
  <style type="text/css">*{stroke-linecap:butt;stroke-linejoin:round;}</style>
 </defs>
 <g id="figure_1">
  <g id="patch_1">
   <path d="M 0 252 
L 324 252 
L 324 0 
L 0 0 
z
" style="fill:#ffffff;"/>
  </g>
  <g id="axes_1">
   <g id="patch_2">
    <path d="M 48.6 189 
L 291.6 189 
L 291.6 30.24 
L 48.6 30.24 
z
" style="fill:#ffffff;"/>
   </g>
   <g id="patch_3">
    <path clip-path="url(#p174fcdb3e8)" d="M 58.725 189 
L 78.975 189 
L 78.975 165.024169 
L 58.725 165.024169 
z
"/>
   </g>
   <g id="patch_4">
    <path clip-path="url(#p174fcdb3e8)" d="M 99.225 189 
L 119.475 189 
L 119.475 161.529706 
L 99.225 161.529706 
z
"/>
   </g>
   <g id="patch_5">
    <path clip-path="url(#p174fcdb3e8)" d="M 139.725 189 
L 159.975 189 
L 159.975 156.768684 
L 139.725 156.768684 
z
"/>
   </g>
   <g id="patch_6">
    <path clip-path="url(#p174fcdb3e8)" d="M 180.225 189 
L 200.475 189 
L 200.475 150.318656 
L 180.225 150.318656 
z
"/>
   </g>
   <g id="patch_7">
    <path clip-path="url(#p174fcdb3e8)" d="M 220.725 189 
L 240.975 189 
L 240.975 156.999908 
L 220.725 156.999908 
z
"/>
   </g>
   <g id="patch_8">
    <path clip-path="url(#p174fcdb3e8)" d="M 261.225 189 
L 281.475 189 
L 281.475 159.298676 
L 261.225 159.298676 
z
"/>
   </g>
   <g id="patch_9">
    <path clip-path="url(#p174fcdb3e8)" d="M 58.725 165.024169 
L 78.975 165.024169 
L 78.975 147.520516 
L 58.725 147.520516 
z
" style="fill:#00b1b1;"/>
   </g>
   <g id="patch_10">
    <path clip-path="url(#p174fcdb3e8)" d="M 99.225 161.529706 
L 119.475 161.529706 
L 119.475 146.96456 
L 99.225 146.96456 
z
" style="fill:#00b1b1;"/>
   </g>
   <g id="patch_11">
    <path clip-path="url(#p174fcdb3e8)" d="M 139.725 156.768684 
L 159.975 156.768684 
L 159.975 145.660538 
L 139.725 145.660538 
z
" style="fill:#00b1b1;"/>
   </g>
   <g id="patch_12">
    <path clip-path="url(#p174fcdb3e8)" d="M 180.225 150.318656 
L 200.475 150.318656 
L 200.475 139.837179 
L 180.225 139.837179 
z
" style="fill:#00b1b1;"/>
   </g>
   <g id="patch_13">
    <path clip-path="url(#p174fcdb3e8)" d="M 220.725 156.999908 
L 240.975 156.999908 
L 240.975 148.682556 
L 220.725 148.682556 
z
" style="fill:#00b1b1;"/>
   </g>
   <g id="patch_14">
    <path clip-path="url(#p174fcdb3e8)" d="M 261.225 159.298676 
L 281.475 159.298676 
L 281.475 154.752427 
L 261.225 154.752427 
z
" style="fill:#00b1b1;"/>
   </g>
   <g id="patch_15">
    <path clip-path="url(#p174fcdb3e8)" d="M 58.725 147.520516 
L 78.975 147.520516 
L 78.975 105.206813 
L 58.725 105.206813 
z
" style="fill:#577bfe;"/>
   </g>
   <g id="patch_16">
    <path clip-path="url(#p174fcdb3e8)" d="M 99.225 146.96456 
L 119.475 146.96456 
L 119.475 106.7716 
L 99.225 106.7716 
z
" style="fill:#577bfe;"/>
   </g>
   <g id="patch_17">
    <path clip-path="url(#p174fcdb3e8)" d="M 139.725 145.660538 
L 159.975 145.660538 
L 159.975 121.852399 
L 139.725 121.852399 
z
" style="fill:#577bfe;"/>
   </g>
   <g id="patch_18">
    <path clip-path="url(#p174fcdb3e8)" d="M 180.225 139.837179 
L 200.475 139.837179 
L 200.475 125.569594 
L 180.225 125.569594 
z
" style="fill:#577bfe;"/>
   </g>
   <g id="patch_19">
    <path clip-path="url(#p174fcdb3e8)" d="M 220.725 148.682556 
L 240.975 148.682556 
L 240.975 135.501711 
L 220.725 135.501711 
z
" style="fill:#577bfe;"/>
   </g>
   <g id="patch_20">
    <path clip-path="url(#p174fcdb3e8)" d="M 261.225 154.752427 
L 281.475 154.752427 
L 281.475 145.768135 
L 261.225 145.768135 
z
" style="fill:#577bfe;"/>
   </g>
   <g id="patch_21">
    <path clip-path="url(#p174fcdb3e8)" d="M 58.725 105.206813 
L 78.975 105.206813 
L 78.975 93.599651 
L 58.725 93.599651 
z
" style="fill:#bc00bc;"/>
   </g>
   <g id="patch_22">
    <path clip-path="url(#p174fcdb3e8)" d="M 99.225 106.7716 
L 119.475 106.7716 
L 119.475 96.392401 
L 99.225 96.392401 
z
" style="fill:#bc00bc;"/>
   </g>
   <g id="patch_23">
    <path clip-path="url(#p174fcdb3e8)" d="M 139.725 121.852399 
L 159.975 121.852399 
L 159.975 115.640998 
L 139.725 115.640998 
z
" style="fill:#bc00bc;"/>
   </g>
   <g id="patch_24">
    <path clip-path="url(#p174fcdb3e8)" d="M 180.225 125.569594 
L 200.475 125.569594 
L 200.475 122.036731 
L 180.225 122.036731 
z
" style="fill:#bc00bc;"/>
   </g>
   <g id="patch_25">
    <path clip-path="url(#p174fcdb3e8)" d="M 220.725 135.501711 
L 240.975 135.501711 
L 240.975 130.493785 
L 220.725 130.493785 
z
" style="fill:#bc00bc;"/>
   </g>
   <g id="patch_26">
    <path clip-path="url(#p174fcdb3e8)" d="M 261.225 145.768135 
L 281.475 145.768135 
L 281.475 141.594634 
L 261.225 141.594634 
z
" style="fill:#bc00bc;"/>
   </g>
   <g id="matplotlib.axis_1">
    <g id="xtick_1">
     <g id="line2d_1">
      <defs>
       <path d="M 0 0 
L 0 3.5 
" id="md79ebd2b5d" style="stroke:#000000;stroke-width:0.8;"/>
      </defs>
      <g>
       <use style="stroke:#000000;stroke-width:0.8;" x="68.85" xlink:href="#md79ebd2b5d" y="189"/>
      </g>
     </g>
     <g id="text_1">
      <text style="font-family:Tahoma;font-size:10px;font-stretch:normal;font-style:normal;font-weight:normal;text-anchor:middle;" transform="rotate(-0, 68.85, 203.598437)" x="68.85" y="203.598437">22</text>
     </g>
    </g>
    <g id="xtick_2">
     <g id="line2d_2">
      <g>
       <use style="stroke:#000000;stroke-width:0.8;" x="109.35" xlink:href="#md79ebd2b5d" y="189"/>
      </g>
     </g>
     <g id="text_2">
      <text style="font-family:Tahoma;font-size:10px;font-stretch:normal;font-style:normal;font-weight:normal;text-anchor:middle;" transform="rotate(-0, 109.35, 203.598437)" x="109.35" y="203.598437">23</text>
     </g>
    </g>
    <g id="xtick_3">
     <g id="line2d_3">
      <g>
       <use style="stroke:#000000;stroke-width:0.8;" x="149.85" xlink:href="#md79ebd2b5d" y="189"/>
      </g>
     </g>
     <g id="text_3">
      <text style="font-family:Tahoma;font-size:10px;font-stretch:normal;font-style:normal;font-weight:normal;text-anchor:middle;" transform="rotate(-0, 149.85, 203.598437)" x="149.85" y="203.598437">31</text>
     </g>
    </g>
    <g id="xtick_4">
     <g id="line2d_4">
      <g>
       <use style="stroke:#000000;stroke-width:0.8;" x="190.35" xlink:href="#md79ebd2b5d" y="189"/>
      </g>
     </g>
     <g id="text_4">
      <text style="font-family:Tahoma;font-size:10px;font-stretch:normal;font-style:normal;font-weight:normal;text-anchor:middle;" transform="rotate(-0, 190.35, 203.598437)" x="190.35" y="203.598437">35</text>
     </g>
    </g>
    <g id="xtick_5">
     <g id="line2d_5">
      <g>
       <use style="stroke:#000000;stroke-width:0.8;" x="230.85" xlink:href="#md79ebd2b5d" y="189"/>
      </g>
     </g>
     <g id="text_5">
      <text style="font-family:Tahoma;font-size:10px;font-stretch:normal;font-style:normal;font-weight:normal;text-anchor:middle;" transform="rotate(-0, 230.85, 203.598437)" x="230.85" y="203.598437">42</text>
     </g>
    </g>
    <g id="xtick_6">
     <g id="line2d_6">
      <g>
       <use style="stroke:#000000;stroke-width:0.8;" x="271.35" xlink:href="#md79ebd2b5d" y="189"/>
      </g>
     </g>
     <g id="text_6">
      <text style="font-family:Tahoma;font-size:10px;font-stretch:normal;font-style:normal;font-weight:normal;text-anchor:middle;" transform="rotate(-0, 271.35, 203.598437)" x="271.35" y="203.598437">55</text>
     </g>
    </g>
    <g id="text_7">
     <text style="font-family:Tahoma;font-size:10px;font-stretch:normal;font-style:normal;font-weight:normal;text-anchor:middle;" transform="rotate(-0, 170.1, 217.209375)" x="170.1" y="217.209375">Mean interval betwean pulses [min]</text>
    </g>
   </g>
   <g id="matplotlib.axis_2">
    <g id="ytick_1">
     <g id="line2d_7">
      <defs>
       <path d="M 0 0 
L -3.5 0 
" id="m271a9e1d63" style="stroke:#000000;stroke-width:0.8;"/>
      </defs>
      <g>
       <use style="stroke:#000000;stroke-width:0.8;" x="48.6" xlink:href="#m271a9e1d63" y="189"/>
      </g>
     </g>
     <g id="text_8">
      <text style="font-family:Tahoma;font-size:10px;font-stretch:normal;font-style:normal;font-weight:normal;text-anchor:end;" transform="rotate(-0, 41.6, 192.799219)" x="41.6" y="192.799219">0</text>
     </g>
    </g>
    <g id="ytick_2">
     <g id="line2d_8">
      <g>
       <use style="stroke:#000000;stroke-width:0.8;" x="48.6" xlink:href="#m271a9e1d63" y="158.469231"/>
      </g>
     </g>
     <g id="text_9">
      <text style="font-family:Tahoma;font-size:10px;font-stretch:normal;font-style:normal;font-weight:normal;text-anchor:end;" transform="rotate(-0, 41.6, 162.26845)" x="41.6" y="162.26845">5</text>
     </g>
    </g>
    <g id="ytick_3">
     <g id="line2d_9">
      <g>
       <use style="stroke:#000000;stroke-width:0.8;" x="48.6" xlink:href="#m271a9e1d63" y="127.938462"/>
      </g>
     </g>
     <g id="text_10">
      <text style="font-family:Tahoma;font-size:10px;font-stretch:normal;font-style:normal;font-weight:normal;text-anchor:end;" transform="rotate(-0, 41.6, 131.73768)" x="41.6" y="131.73768">10</text>
     </g>
    </g>
    <g id="ytick_4">
     <g id="line2d_10">
      <g>
       <use style="stroke:#000000;stroke-width:0.8;" x="48.6" xlink:href="#m271a9e1d63" y="97.407692"/>
      </g>
     </g>
     <g id="text_11">
      <text style="font-family:Tahoma;font-size:10px;font-stretch:normal;font-style:normal;font-weight:normal;text-anchor:end;" transform="rotate(-0, 41.6, 101.206911)" x="41.6" y="101.206911">15</text>
     </g>
    </g>
    <g id="ytick_5">
     <g id="line2d_11">
      <g>
       <use style="stroke:#000000;stroke-width:0.8;" x="48.6" xlink:href="#m271a9e1d63" y="66.876923"/>
      </g>
     </g>
     <g id="text_12">
      <text style="font-family:Tahoma;font-size:10px;font-stretch:normal;font-style:normal;font-weight:normal;text-anchor:end;" transform="rotate(-0, 41.6, 70.676142)" x="41.6" y="70.676142">20</text>
     </g>
    </g>
    <g id="ytick_6">
     <g id="line2d_12">
      <g>
       <use style="stroke:#000000;stroke-width:0.8;" x="48.6" xlink:href="#m271a9e1d63" y="36.346154"/>
      </g>
     </g>
     <g id="text_13">
      <text style="font-family:Tahoma;font-size:10px;font-stretch:normal;font-style:normal;font-weight:normal;text-anchor:end;" transform="rotate(-0, 41.6, 40.145373)" x="41.6" y="40.145373">25</text>
     </g>
    </g>
    <g id="text_14">
     <text style="font-family:Tahoma;font-size:10px;font-stretch:normal;font-style:normal;font-weight:normal;text-anchor:middle;" transform="rotate(-90, 24.66875, 109.62)" x="24.66875" y="109.62">Lost an transmitted information rate [bit/h]</text>
    </g>
   </g>
   <g id="patch_27">
    <path d="M 48.6 189 
L 48.6 30.24 
" style="fill:none;stroke:#000000;stroke-linecap:square;stroke-linejoin:miter;stroke-width:0.8;"/>
   </g>
   <g id="patch_28">
    <path d="M 291.6 189 
L 291.6 30.24 
" style="fill:none;stroke:#000000;stroke-linecap:square;stroke-linejoin:miter;stroke-width:0.8;"/>
   </g>
   <g id="patch_29">
    <path d="M 48.6 189 
L 291.6 189 
" style="fill:none;stroke:#000000;stroke-linecap:square;stroke-linejoin:miter;stroke-width:0.8;"/>
   </g>
   <g id="patch_30">
    <path d="M 48.6 30.24 
L 291.6 30.24 
" style="fill:none;stroke:#000000;stroke-linecap:square;stroke-linejoin:miter;stroke-width:0.8;"/>
   </g>
   <g id="text_15">
    <text style="font-family:Tahoma;font-size:17.28px;font-stretch:normal;font-style:normal;font-weight:bold;text-anchor:start;" transform="rotate(-0, 6.48, 18.1701)" x="6.48" y="18.1701">D</text>
   </g>
   <g id="legend_1">
    <g id="patch_31">
     <path d="M 118.192188 96.68375 
L 284.6 96.68375 
Q 286.6 96.68375 286.6 94.68375 
L 286.6 37.24 
Q 286.6 35.24 284.6 35.24 
L 118.192188 35.24 
Q 116.192188 35.24 116.192188 37.24 
L 116.192188 94.68375 
Q 116.192188 96.68375 118.192188 96.68375 
z
" style="fill:#ffffff;opacity:0.8;stroke:#cccccc;stroke-linejoin:miter;"/>
    </g>
    <g id="patch_32">
     <path d="M 120.192188 46.838437 
L 140.192188 46.838437 
L 140.192188 39.838437 
L 120.192188 39.838437 
z
" style="fill:#bc00bc;"/>
    </g>
    <g id="text_16">
     <text style="font-family:Tahoma;font-size:10px;font-stretch:normal;font-style:normal;font-weight:normal;text-anchor:start;" transform="rotate(-0, 148.192188, 46.838437)" x="148.192188" y="46.838437">lost due to false detections</text>
    </g>
    <g id="patch_33">
     <path d="M 120.192188 61.449375 
L 140.192188 61.449375 
L 140.192188 54.449375 
L 120.192188 54.449375 
z
" style="fill:#577bfe;"/>
    </g>
    <g id="text_17">
     <text style="font-family:Tahoma;font-size:10px;font-stretch:normal;font-style:normal;font-weight:normal;text-anchor:start;" transform="rotate(-0, 148.192188, 61.449375)" x="148.192188" y="61.449375">lost due to missed pulses</text>
    </g>
    <g id="patch_34">
     <path d="M 120.192188 76.060313 
L 140.192188 76.060313 
L 140.192188 69.060313 
L 120.192188 69.060313 
z
" style="fill:#00b1b1;"/>
    </g>
    <g id="text_18">
     <text style="font-family:Tahoma;font-size:10px;font-stretch:normal;font-style:normal;font-weight:normal;text-anchor:start;" transform="rotate(-0, 148.192188, 76.060313)" x="148.192188" y="76.060313">lost due to inacurate detection</text>
    </g>
    <g id="patch_35">
     <path d="M 120.192188 90.67125 
L 140.192188 90.67125 
L 140.192188 83.67125 
L 120.192188 83.67125 
z
"/>
    </g>
    <g id="text_19">
     <text style="font-family:Tahoma;font-size:10px;font-stretch:normal;font-style:normal;font-weight:normal;text-anchor:start;" transform="rotate(-0, 148.192188, 90.67125)" x="148.192188" y="90.67125">transmitted</text>
    </g>
   </g>
  </g>
 </g>
 <defs>
  <clipPath id="p174fcdb3e8">
   <rect height="158.76" width="243" x="48.6" y="30.24"/>
  </clipPath>
 </defs>
</svg>
