<?xml version="1.0" encoding="utf-8" standalone="no"?>
<!DOCTYPE svg PUBLIC "-//W3C//DTD SVG 1.1//EN"
  "http://www.w3.org/Graphics/SVG/1.1/DTD/svg11.dtd">
<svg height="252pt" version="1.1" viewBox="0 0 324 252" width="324pt" xmlns="http://www.w3.org/2000/svg" xmlns:xlink="http://www.w3.org/1999/xlink">
 <metadata>
  <rdf:RDF xmlns:cc="http://creativecommons.org/ns#" xmlns:dc="http://purl.org/dc/elements/1.1/" xmlns:rdf="http://www.w3.org/1999/02/22-rdf-syntax-ns#">
   <cc:Work>
    <dc:type rdf:resource="http://purl.org/dc/dcmitype/StillImage"/>
    <dc:date>2023-03-30T14:00:07.471508</dc:date>
    <dc:format>image/svg+xml</dc:format>
    <dc:creator>
     <cc:Agent>
      <dc:title>Matplotlib v3.4.2, https://matplotlib.org/</dc:title>
     </cc:Agent>
    </dc:creator>
   </cc:Work>
  </rdf:RDF>
 </metadata>
 <defs>
  <style type="text/css">*{stroke-linecap:butt;stroke-linejoin:round;}</style>
 </defs>
 <g id="figure_1">
  <g id="patch_1">
   <path d="M 0 252 
L 324 252 
L 324 0 
L 0 0 
z
" style="fill:#ffffff;"/>
  </g>
  <g id="axes_1">
   <g id="patch_2">
    <path d="M 48.6 189 
L 291.6 189 
L 291.6 30.24 
L 48.6 30.24 
z
" style="fill:#ffffff;"/>
   </g>
   <g id="patch_3">
    <path clip-path="url(#p9934290b68)" d="M 55.35 189 
L 68.85 189 
L 68.85 157.908893 
L 55.35 157.908893 
z
"/>
   </g>
   <g id="patch_4">
    <path clip-path="url(#p9934290b68)" d="M 82.35 189 
L 95.85 189 
L 95.85 163.846214 
L 82.35 163.846214 
z
"/>
   </g>
   <g id="patch_5">
    <path clip-path="url(#p9934290b68)" d="M 109.35 189 
L 122.85 189 
L 122.85 151.668817 
L 109.35 151.668817 
z
"/>
   </g>
   <g id="patch_6">
    <path clip-path="url(#p9934290b68)" d="M 136.35 189 
L 149.85 189 
L 149.85 151.486373 
L 136.35 151.486373 
z
"/>
   </g>
   <g id="patch_7">
    <path clip-path="url(#p9934290b68)" d="M 163.35 189 
L 176.85 189 
L 176.85 147.957519 
L 163.35 147.957519 
z
"/>
   </g>
   <g id="patch_8">
    <path clip-path="url(#p9934290b68)" d="M 190.35 189 
L 203.85 189 
L 203.85 144.038476 
L 190.35 144.038476 
z
"/>
   </g>
   <g id="patch_9">
    <path clip-path="url(#p9934290b68)" d="M 217.35 189 
L 230.85 189 
L 230.85 167.336843 
L 217.35 167.336843 
z
"/>
   </g>
   <g id="patch_10">
    <path clip-path="url(#p9934290b68)" d="M 244.35 189 
L 257.85 189 
L 257.85 164.569389 
L 244.35 164.569389 
z
"/>
   </g>
   <g id="patch_11">
    <path clip-path="url(#p9934290b68)" d="M 271.35 189 
L 284.85 189 
L 284.85 172.988414 
L 271.35 172.988414 
z
"/>
   </g>
   <g id="patch_12">
    <path clip-path="url(#p9934290b68)" d="M 55.35 157.908893 
L 68.85 157.908893 
L 68.85 129.521428 
L 55.35 129.521428 
z
" style="fill:#00b1b1;"/>
   </g>
   <g id="patch_13">
    <path clip-path="url(#p9934290b68)" d="M 82.35 163.846214 
L 95.85 163.846214 
L 95.85 134.19202 
L 82.35 134.19202 
z
" style="fill:#00b1b1;"/>
   </g>
   <g id="patch_14">
    <path clip-path="url(#p9934290b68)" d="M 109.35 151.668817 
L 122.85 151.668817 
L 122.85 134.00063 
L 109.35 134.00063 
z
" style="fill:#00b1b1;"/>
   </g>
   <g id="patch_15">
    <path clip-path="url(#p9934290b68)" d="M 136.35 151.486373 
L 149.85 151.486373 
L 149.85 133.564159 
L 136.35 133.564159 
z
" style="fill:#00b1b1;"/>
   </g>
   <g id="patch_16">
    <path clip-path="url(#p9934290b68)" d="M 163.35 147.957519 
L 176.85 147.957519 
L 176.85 139.465731 
L 163.35 139.465731 
z
" style="fill:#00b1b1;"/>
   </g>
   <g id="patch_17">
    <path clip-path="url(#p9934290b68)" d="M 190.35 144.038476 
L 203.85 144.038476 
L 203.85 137.555408 
L 190.35 137.555408 
z
" style="fill:#00b1b1;"/>
   </g>
   <g id="patch_18">
    <path clip-path="url(#p9934290b68)" d="M 217.35 167.336843 
L 230.85 167.336843 
L 230.85 156.794866 
L 217.35 156.794866 
z
" style="fill:#00b1b1;"/>
   </g>
   <g id="patch_19">
    <path clip-path="url(#p9934290b68)" d="M 244.35 164.569389 
L 257.85 164.569389 
L 257.85 155.978863 
L 244.35 155.978863 
z
" style="fill:#00b1b1;"/>
   </g>
   <g id="patch_20">
    <path clip-path="url(#p9934290b68)" d="M 271.35 172.988414 
L 284.85 172.988414 
L 284.85 165.741671 
L 271.35 165.741671 
z
" style="fill:#00b1b1;"/>
   </g>
   <g id="patch_21">
    <path clip-path="url(#p9934290b68)" d="M 55.35 129.521428 
L 68.85 129.521428 
L 68.85 105.816355 
L 55.35 105.816355 
z
" style="fill:#577bfe;"/>
   </g>
   <g id="patch_22">
    <path clip-path="url(#p9934290b68)" d="M 82.35 134.19202 
L 95.85 134.19202 
L 95.85 109.745936 
L 82.35 109.745936 
z
" style="fill:#577bfe;"/>
   </g>
   <g id="patch_23">
    <path clip-path="url(#p9934290b68)" d="M 109.35 134.00063 
L 122.85 134.00063 
L 122.85 124.372596 
L 109.35 124.372596 
z
" style="fill:#577bfe;"/>
   </g>
   <g id="patch_24">
    <path clip-path="url(#p9934290b68)" d="M 136.35 133.564159 
L 149.85 133.564159 
L 149.85 124.053403 
L 136.35 124.053403 
z
" style="fill:#577bfe;"/>
   </g>
   <g id="patch_25">
    <path clip-path="url(#p9934290b68)" d="M 163.35 139.465731 
L 176.85 139.465731 
L 176.85 134.367645 
L 163.35 134.367645 
z
" style="fill:#577bfe;"/>
   </g>
   <g id="patch_26">
    <path clip-path="url(#p9934290b68)" d="M 190.35 137.555408 
L 203.85 137.555408 
L 203.85 134.160162 
L 190.35 134.160162 
z
" style="fill:#577bfe;"/>
   </g>
   <g id="patch_27">
    <path clip-path="url(#p9934290b68)" d="M 217.35 156.794866 
L 230.85 156.794866 
L 230.85 145.977575 
L 217.35 145.977575 
z
" style="fill:#577bfe;"/>
   </g>
   <g id="patch_28">
    <path clip-path="url(#p9934290b68)" d="M 244.35 155.978863 
L 257.85 155.978863 
L 257.85 144.697623 
L 244.35 144.697623 
z
" style="fill:#577bfe;"/>
   </g>
   <g id="patch_29">
    <path clip-path="url(#p9934290b68)" d="M 271.35 165.741671 
L 284.85 165.741671 
L 284.85 153.089159 
L 271.35 153.089159 
z
" style="fill:#577bfe;"/>
   </g>
   <g id="patch_30">
    <path clip-path="url(#p9934290b68)" d="M 55.35 105.816355 
L 68.85 105.816355 
L 68.85 99.931485 
L 55.35 99.931485 
z
" style="fill:#bc00bc;"/>
   </g>
   <g id="patch_31">
    <path clip-path="url(#p9934290b68)" d="M 82.35 109.745936 
L 95.85 109.745936 
L 95.85 100.003787 
L 82.35 100.003787 
z
" style="fill:#bc00bc;"/>
   </g>
   <g id="patch_32">
    <path clip-path="url(#p9934290b68)" d="M 109.35 124.372596 
L 122.85 124.372596 
L 122.85 119.76848 
L 109.35 119.76848 
z
" style="fill:#bc00bc;"/>
   </g>
   <g id="patch_33">
    <path clip-path="url(#p9934290b68)" d="M 136.35 124.053403 
L 149.85 124.053403 
L 149.85 119.767899 
L 136.35 119.767899 
z
" style="fill:#bc00bc;"/>
   </g>
   <g id="patch_34">
    <path clip-path="url(#p9934290b68)" d="M 163.35 134.367645 
L 176.85 134.367645 
L 176.85 131.765336 
L 163.35 131.765336 
z
" style="fill:#bc00bc;"/>
   </g>
   <g id="patch_35">
    <path clip-path="url(#p9934290b68)" d="M 190.35 134.160162 
L 203.85 134.160162 
L 203.85 131.780154 
L 190.35 131.780154 
z
" style="fill:#bc00bc;"/>
   </g>
   <g id="patch_36">
    <path clip-path="url(#p9934290b68)" d="M 217.35 145.977575 
L 230.85 145.977575 
L 230.85 139.969063 
L 217.35 139.969063 
z
" style="fill:#bc00bc;"/>
   </g>
   <g id="patch_37">
    <path clip-path="url(#p9934290b68)" d="M 244.35 144.697623 
L 257.85 144.697623 
L 257.85 139.800042 
L 244.35 139.800042 
z
" style="fill:#bc00bc;"/>
   </g>
   <g id="patch_38">
    <path clip-path="url(#p9934290b68)" d="M 271.35 153.089159 
L 284.85 153.089159 
L 284.85 145.775365 
L 271.35 145.775365 
z
" style="fill:#bc00bc;"/>
   </g>
   <g id="matplotlib.axis_1">
    <g id="xtick_1">
     <g id="line2d_1">
      <defs>
       <path d="M 0 0 
L 0 3.5 
" id="m28b99158f7" style="stroke:#000000;stroke-width:0.8;"/>
      </defs>
      <g>
       <use style="stroke:#000000;stroke-width:0.8;" x="62.1" xlink:href="#m28b99158f7" y="189"/>
      </g>
     </g>
     <g id="text_1">
      <text style="font-family:Tahoma;font-size:10px;font-stretch:normal;font-style:normal;font-weight:normal;" transform="translate(55.078125 203.598437)">16 </text>
      <text style="font-family:Tahoma;font-size:10px;font-stretch:normal;font-style:normal;font-weight:normal;" transform="translate(52.8125 214.729062)">[10]</text>
     </g>
    </g>
    <g id="xtick_2">
     <g id="line2d_2">
      <g>
       <use style="stroke:#000000;stroke-width:0.8;" x="89.1" xlink:href="#m28b99158f7" y="189"/>
      </g>
     </g>
     <g id="text_2">
      <text style="font-family:Tahoma;font-size:10px;font-stretch:normal;font-style:normal;font-weight:normal;" transform="translate(82.078125 203.598437)">17 </text>
      <text style="font-family:Tahoma;font-size:10px;font-stretch:normal;font-style:normal;font-weight:normal;" transform="translate(79.8125 214.729062)">[10]</text>
     </g>
    </g>
    <g id="xtick_3">
     <g id="line2d_3">
      <g>
       <use style="stroke:#000000;stroke-width:0.8;" x="116.1" xlink:href="#m28b99158f7" y="189"/>
      </g>
     </g>
     <g id="text_3">
      <text style="font-family:Tahoma;font-size:10px;font-stretch:normal;font-style:normal;font-weight:normal;" transform="translate(109.078125 203.598437)">23 </text>
      <text style="font-family:Tahoma;font-size:10px;font-stretch:normal;font-style:normal;font-weight:normal;" transform="translate(106.8125 214.729062)">[15]</text>
     </g>
    </g>
    <g id="xtick_4">
     <g id="line2d_4">
      <g>
       <use style="stroke:#000000;stroke-width:0.8;" x="143.1" xlink:href="#m28b99158f7" y="189"/>
      </g>
     </g>
     <g id="text_4">
      <text style="font-family:Tahoma;font-size:10px;font-stretch:normal;font-style:normal;font-weight:normal;" transform="translate(136.078125 203.598437)">23 </text>
      <text style="font-family:Tahoma;font-size:10px;font-stretch:normal;font-style:normal;font-weight:normal;" transform="translate(133.8125 214.729062)">[15]</text>
     </g>
    </g>
    <g id="xtick_5">
     <g id="line2d_5">
      <g>
       <use style="stroke:#000000;stroke-width:0.8;" x="170.1" xlink:href="#m28b99158f7" y="189"/>
      </g>
     </g>
     <g id="text_5">
      <text style="font-family:Tahoma;font-size:10px;font-stretch:normal;font-style:normal;font-weight:normal;" transform="translate(163.078125 203.598437)">30 </text>
      <text style="font-family:Tahoma;font-size:10px;font-stretch:normal;font-style:normal;font-weight:normal;" transform="translate(160.8125 214.729062)">[20]</text>
     </g>
    </g>
    <g id="xtick_6">
     <g id="line2d_6">
      <g>
       <use style="stroke:#000000;stroke-width:0.8;" x="197.1" xlink:href="#m28b99158f7" y="189"/>
      </g>
     </g>
     <g id="text_6">
      <text style="font-family:Tahoma;font-size:10px;font-stretch:normal;font-style:normal;font-weight:normal;" transform="translate(190.078125 203.598437)">31 </text>
      <text style="font-family:Tahoma;font-size:10px;font-stretch:normal;font-style:normal;font-weight:normal;" transform="translate(187.8125 214.729062)">[20]</text>
     </g>
    </g>
    <g id="xtick_7">
     <g id="line2d_7">
      <g>
       <use style="stroke:#000000;stroke-width:0.8;" x="224.1" xlink:href="#m28b99158f7" y="189"/>
      </g>
     </g>
     <g id="text_7">
      <text style="font-family:Tahoma;font-size:10px;font-stretch:normal;font-style:normal;font-weight:normal;" transform="translate(217.078125 203.598437)">36 </text>
      <text style="font-family:Tahoma;font-size:10px;font-stretch:normal;font-style:normal;font-weight:normal;" transform="translate(214.8125 214.729062)">[25]</text>
     </g>
    </g>
    <g id="xtick_8">
     <g id="line2d_8">
      <g>
       <use style="stroke:#000000;stroke-width:0.8;" x="251.1" xlink:href="#m28b99158f7" y="189"/>
      </g>
     </g>
     <g id="text_8">
      <text style="font-family:Tahoma;font-size:10px;font-stretch:normal;font-style:normal;font-weight:normal;" transform="translate(244.078125 203.598437)">36 </text>
      <text style="font-family:Tahoma;font-size:10px;font-stretch:normal;font-style:normal;font-weight:normal;" transform="translate(241.8125 214.729062)">[25]</text>
     </g>
    </g>
    <g id="xtick_9">
     <g id="line2d_9">
      <g>
       <use style="stroke:#000000;stroke-width:0.8;" x="278.1" xlink:href="#m28b99158f7" y="189"/>
      </g>
     </g>
     <g id="text_9">
      <text style="font-family:Tahoma;font-size:10px;font-stretch:normal;font-style:normal;font-weight:normal;" transform="translate(271.078125 203.598437)">43 </text>
      <text style="font-family:Tahoma;font-size:10px;font-stretch:normal;font-style:normal;font-weight:normal;" transform="translate(268.8125 214.729062)">[30]</text>
     </g>
    </g>
    <g id="text_10">
     <text style="font-family:Tahoma;font-size:10px;font-stretch:normal;font-style:normal;font-weight:normal;" transform="translate(91.178906 228.34)">Mean interval betwean pulses [min]</text>
     <!-- [minimal gap $T_{gap}$] [min] -->
     <g transform="translate(114.45 239.4725)">
      <text>
       <tspan style="font-family:Tahoma;font-size:10px;font-style:regular;font-weight:regular;" x="0 3.828125 12.226562 14.511719 20.087891 22.373047 30.771484 36.020508 38.305664 41.430664 46.958008 52.207031 57.734375 80.41748 84.245605 87.370605 91.19873 99.597168 101.882324 107.458496" y="-0.40625">[minimal gap ] [min]</tspan>
       <tspan style="font-family:DejaVu Sans;font-size:10px;font-style:oblique;font-weight:oblique;" x="60.859375" y="-0.40625">T</tspan>
       <tspan style="font-family:DejaVu Sans;font-size:7px;font-style:oblique;font-weight:oblique;" x="66.967773 71.411133 75.700684" y="1.234375">gap</tspan>
      </text>
     </g>
    </g>
   </g>
   <g id="matplotlib.axis_2">
    <g id="ytick_1">
     <g id="line2d_10">
      <defs>
       <path d="M 0 0 
L -3.5 0 
" id="mfb5567631f" style="stroke:#000000;stroke-width:0.8;"/>
      </defs>
      <g>
       <use style="stroke:#000000;stroke-width:0.8;" x="48.6" xlink:href="#mfb5567631f" y="189"/>
      </g>
     </g>
     <g id="text_11">
      <text style="font-family:Tahoma;font-size:10px;font-stretch:normal;font-style:normal;font-weight:normal;text-anchor:end;" transform="rotate(-0, 41.6, 192.799219)" x="41.6" y="192.799219">0</text>
     </g>
    </g>
    <g id="ytick_2">
     <g id="line2d_11">
      <g>
       <use style="stroke:#000000;stroke-width:0.8;" x="48.6" xlink:href="#mfb5567631f" y="158.469231"/>
      </g>
     </g>
     <g id="text_12">
      <text style="font-family:Tahoma;font-size:10px;font-stretch:normal;font-style:normal;font-weight:normal;text-anchor:end;" transform="rotate(-0, 41.6, 162.26845)" x="41.6" y="162.26845">5</text>
     </g>
    </g>
    <g id="ytick_3">
     <g id="line2d_12">
      <g>
       <use style="stroke:#000000;stroke-width:0.8;" x="48.6" xlink:href="#mfb5567631f" y="127.938462"/>
      </g>
     </g>
     <g id="text_13">
      <text style="font-family:Tahoma;font-size:10px;font-stretch:normal;font-style:normal;font-weight:normal;text-anchor:end;" transform="rotate(-0, 41.6, 131.73768)" x="41.6" y="131.73768">10</text>
     </g>
    </g>
    <g id="ytick_4">
     <g id="line2d_13">
      <g>
       <use style="stroke:#000000;stroke-width:0.8;" x="48.6" xlink:href="#mfb5567631f" y="97.407692"/>
      </g>
     </g>
     <g id="text_14">
      <text style="font-family:Tahoma;font-size:10px;font-stretch:normal;font-style:normal;font-weight:normal;text-anchor:end;" transform="rotate(-0, 41.6, 101.206911)" x="41.6" y="101.206911">15</text>
     </g>
    </g>
    <g id="ytick_5">
     <g id="line2d_14">
      <g>
       <use style="stroke:#000000;stroke-width:0.8;" x="48.6" xlink:href="#mfb5567631f" y="66.876923"/>
      </g>
     </g>
     <g id="text_15">
      <text style="font-family:Tahoma;font-size:10px;font-stretch:normal;font-style:normal;font-weight:normal;text-anchor:end;" transform="rotate(-0, 41.6, 70.676142)" x="41.6" y="70.676142">20</text>
     </g>
    </g>
    <g id="ytick_6">
     <g id="line2d_15">
      <g>
       <use style="stroke:#000000;stroke-width:0.8;" x="48.6" xlink:href="#mfb5567631f" y="36.346154"/>
      </g>
     </g>
     <g id="text_16">
      <text style="font-family:Tahoma;font-size:10px;font-stretch:normal;font-style:normal;font-weight:normal;text-anchor:end;" transform="rotate(-0, 41.6, 40.145373)" x="41.6" y="40.145373">25</text>
     </g>
    </g>
    <g id="text_17">
     <text style="font-family:Tahoma;font-size:10px;font-stretch:normal;font-style:normal;font-weight:normal;text-anchor:middle;" transform="rotate(-90, 24.66875, 109.62)" x="24.66875" y="109.62">Lost an transmitted information rate [bit/h]</text>
    </g>
   </g>
   <g id="patch_39">
    <path d="M 48.6 189 
L 48.6 30.24 
" style="fill:none;stroke:#000000;stroke-linecap:square;stroke-linejoin:miter;stroke-width:0.8;"/>
   </g>
   <g id="patch_40">
    <path d="M 291.6 189 
L 291.6 30.24 
" style="fill:none;stroke:#000000;stroke-linecap:square;stroke-linejoin:miter;stroke-width:0.8;"/>
   </g>
   <g id="patch_41">
    <path d="M 48.6 189 
L 291.6 189 
" style="fill:none;stroke:#000000;stroke-linecap:square;stroke-linejoin:miter;stroke-width:0.8;"/>
   </g>
   <g id="patch_42">
    <path d="M 48.6 30.24 
L 291.6 30.24 
" style="fill:none;stroke:#000000;stroke-linecap:square;stroke-linejoin:miter;stroke-width:0.8;"/>
   </g>
   <g id="text_18">
    <text style="font-family:Tahoma;font-size:17.28px;font-stretch:normal;font-style:normal;font-weight:bold;text-anchor:start;" transform="rotate(-0, 6.48, 18.1701)" x="6.48" y="18.1701">F</text>
   </g>
   <g id="legend_1">
    <g id="patch_43">
     <path d="M 118.192188 96.68375 
L 284.6 96.68375 
Q 286.6 96.68375 286.6 94.68375 
L 286.6 37.24 
Q 286.6 35.24 284.6 35.24 
L 118.192188 35.24 
Q 116.192188 35.24 116.192188 37.24 
L 116.192188 94.68375 
Q 116.192188 96.68375 118.192188 96.68375 
z
" style="fill:#ffffff;opacity:0.8;stroke:#cccccc;stroke-linejoin:miter;"/>
    </g>
    <g id="patch_44">
     <path d="M 120.192188 46.838437 
L 140.192188 46.838437 
L 140.192188 39.838437 
L 120.192188 39.838437 
z
" style="fill:#bc00bc;"/>
    </g>
    <g id="text_19">
     <text style="font-family:Tahoma;font-size:10px;font-stretch:normal;font-style:normal;font-weight:normal;text-anchor:start;" transform="rotate(-0, 148.192188, 46.838437)" x="148.192188" y="46.838437">lost due to false detections</text>
    </g>
    <g id="patch_45">
     <path d="M 120.192188 61.449375 
L 140.192188 61.449375 
L 140.192188 54.449375 
L 120.192188 54.449375 
z
" style="fill:#577bfe;"/>
    </g>
    <g id="text_20">
     <text style="font-family:Tahoma;font-size:10px;font-stretch:normal;font-style:normal;font-weight:normal;text-anchor:start;" transform="rotate(-0, 148.192188, 61.449375)" x="148.192188" y="61.449375">lost due to missed pulses</text>
    </g>
    <g id="patch_46">
     <path d="M 120.192188 76.060313 
L 140.192188 76.060313 
L 140.192188 69.060313 
L 120.192188 69.060313 
z
" style="fill:#00b1b1;"/>
    </g>
    <g id="text_21">
     <text style="font-family:Tahoma;font-size:10px;font-stretch:normal;font-style:normal;font-weight:normal;text-anchor:start;" transform="rotate(-0, 148.192188, 76.060313)" x="148.192188" y="76.060313">lost due to inacurate detection</text>
    </g>
    <g id="patch_47">
     <path d="M 120.192188 90.67125 
L 140.192188 90.67125 
L 140.192188 83.67125 
L 120.192188 83.67125 
z
"/>
    </g>
    <g id="text_22">
     <text style="font-family:Tahoma;font-size:10px;font-stretch:normal;font-style:normal;font-weight:normal;text-anchor:start;" transform="rotate(-0, 148.192188, 90.67125)" x="148.192188" y="90.67125">transmitted</text>
    </g>
   </g>
  </g>
 </g>
 <defs>
  <clipPath id="p9934290b68">
   <rect height="158.76" width="243" x="48.6" y="30.24"/>
  </clipPath>
 </defs>
</svg>
